<svg width="24" height="24" viewBox="0 0 24 24" fill="none" xmlns="http://www.w3.org/2000/svg">
<path d="M12 11.3879C11.094 9.62686 8.628 6.34386 6.335 4.72586C4.138 3.17586 3.301 3.44286 2.752 3.69286C2.116 3.97786 2 4.95486 2 5.52786C2 6.10286 2.315 10.2369 2.52 10.9279C3.2 13.2079 5.614 13.9779 7.84 13.7309C4.58 14.2139 1.683 15.4009 5.48 19.6289C9.658 23.9539 11.206 18.7019 12 16.0389C12.794 18.7019 13.708 23.7649 18.444 19.6289C22 16.0389 19.421 14.2139 16.161 13.7309C18.386 13.9779 20.801 13.2079 21.48 10.9279C21.685 10.2379 22 6.10286 22 5.52886C22 4.95386 21.884 3.97886 21.248 3.69086C20.699 3.44286 19.862 3.17386 17.665 4.72386C15.372 6.34486 12.905 9.62786 12 11.3879Z" fill="#575757"/>
</svg>
