<svg width="44" height="44" viewBox="0 0 44 44" fill="none" xmlns="http://www.w3.org/2000/svg">
<path d="M22 21.3879C21.094 19.6269 18.628 16.3439 16.335 14.7259C14.138 13.1759 13.301 13.4429 12.752 13.6929C12.116 13.9779 12 14.9549 12 15.5279C12 16.1029 12.315 20.2369 12.52 20.9279C13.2 23.2079 15.614 23.9779 17.84 23.7309C14.58 24.2139 11.683 25.4009 15.48 29.6289C19.658 33.9539 21.206 28.7019 22 26.0389C22.794 28.7019 23.708 33.7649 28.444 29.6289C32 26.0389 29.421 24.2139 26.161 23.7309C28.386 23.9779 30.801 23.2079 31.48 20.9279C31.685 20.2379 32 16.1029 32 15.5289C32 14.9539 31.884 13.9789 31.248 13.6909C30.699 13.4429 29.862 13.1739 27.665 14.7239C25.372 16.3449 22.905 19.6279 22 21.3879Z" fill="white"/>
<path opacity="0.6" d="M7.90452 33.8034C6.60492 33.0961 4.42736 31.0926 4.42736 29.616C4.15958 28.4859 3.091 25.2293 3.091 24.8222C3.091 24.4151 2.88625 22.6412 3.091 21.362C3.27244 20.2284 4.00766 19.6153 4.42736 18.716C4.83698 17.8382 4.54688 16.4644 5.01445 15.6629C5.52821 14.7822 6.9379 13.0169 6.9379 13.0169C6.9379 13.0169 8.31055 11.42 8.86135 10.3709C9.7138 8.74716 12.3722 7.31773 13.9967 6.40761C14.5663 6.08853 14.7868 5.46804 15.5342 5.23077C16.0882 5.05487 16.5959 4.69142 17.1003 4.43708C18.0604 3.95301 19.5162 3.50157 20.5918 3.27393C23.254 2.71051 25.8442 3.13425 28.4801 3.49287C33.8947 4.22955 39.0112 8.68204 40.837 13.5508C42.7513 18.6556 42.1247 24.6112 40.2479 29.616C39.4468 31.7521 38.8455 34.299 37.5322 36.2118C36.3385 37.9505 34.2158 38.5493 32.6757 40.016C31.2904 41.3353 28.1072 40.9465 26.2817 40.9465C23.3176 40.9465 20.5717 39.8338 17.7469 39.236C16.3512 38.9406 15.0938 38.1133 13.7381 37.7444C12.8153 37.4933 11.0899 36.8018 10.577 36.0202C10.1831 35.42 8.58118 34.1716 7.90452 33.8034Z" stroke="white" stroke-opacity="0.2" stroke-width="2" stroke-linecap="round"/>
</svg>
