<svg width="44" height="44" viewBox="0 0 44 44" fill="none" xmlns="http://www.w3.org/2000/svg">
<mask id="mask0_365_530" style="mask-type:luminance" maskUnits="userSpaceOnUse" x="10" y="10" width="24" height="24">
<path d="M10 10H34V34H10V10Z" fill="white"/>
</mask>
<g mask="url(#mask0_365_530)">
<path fill-rule="evenodd" clip-rule="evenodd" d="M10 22.067C10 28.033 14.333 32.994 20 34V25.333H17V22H20V19.333C20 16.333 21.933 14.667 24.667 14.667C25.533 14.667 26.467 14.8 27.333 14.933V18H25.8C24.333 18 24 18.733 24 19.667V22H27.2L26.667 25.333H24V34C29.667 32.994 34 28.034 34 22.067C34 15.43 28.6 10 22 10C15.4 10 10 15.43 10 22.067Z" fill="white"/>
</g>
<path opacity="0.5" d="M7.90452 10.1966C6.60492 10.9039 4.42736 12.9074 4.42736 14.384C4.15958 15.5141 3.091 18.7707 3.091 19.1778C3.091 19.5849 2.88625 21.3588 3.091 22.638C3.27244 23.7716 4.00766 24.3847 4.42736 25.284C4.83698 26.1618 4.54688 27.5356 5.01445 28.3371C5.52821 29.2178 6.9379 30.9831 6.9379 30.9831C6.9379 30.9831 8.31055 32.58 8.86135 33.6291C9.7138 35.2528 12.3722 36.6823 13.9967 37.5924C14.5663 37.9115 14.7868 38.532 15.5342 38.7692C16.0882 38.9451 16.5959 39.3086 17.1003 39.5629C18.0604 40.047 19.5162 40.4984 20.5918 40.7261C23.254 41.2895 25.8442 40.8657 28.4801 40.5071C33.8947 39.7705 39.0112 35.318 40.837 30.4492C42.7513 25.3444 42.1247 19.3888 40.2479 14.384C39.4468 12.2479 38.8455 9.70102 37.5322 7.7882C36.3385 6.04949 34.2158 5.45073 32.6757 3.98399C31.2904 2.66467 28.1072 3.05346 26.2817 3.05346C23.3176 3.05346 20.5717 4.16616 17.7469 4.76399C16.3512 5.05937 15.0938 5.88667 13.7381 6.25557C12.8153 6.50666 11.0899 7.19823 10.577 7.97978C10.1831 8.58001 8.58118 9.82837 7.90452 10.1966Z" stroke="white" stroke-opacity="0.2" stroke-width="2" stroke-linecap="round"/>
</svg>
