<svg width="44" height="44" viewBox="0 0 44 44" fill="none" xmlns="http://www.w3.org/2000/svg">
<path d="M22 10C15.37 10 10 15.37 10 22C10 27.31 13.435 31.795 18.205 33.385C18.805 33.49 19.03 33.13 19.03 32.815C19.03 32.53 19.015 31.585 19.015 30.58C16 31.135 15.22 29.845 14.98 29.17C14.845 28.825 14.26 27.76 13.75 27.475C13.33 27.25 12.73 26.695 13.735 26.68C14.68 26.665 15.355 27.55 15.58 27.91C16.66 29.725 18.385 29.215 19.075 28.9C19.18 28.12 19.495 27.595 19.84 27.295C17.17 26.995 14.38 25.96 14.38 21.37C14.38 20.065 14.845 18.985 15.61 18.145C15.49 17.845 15.07 16.615 15.73 14.965C15.73 14.965 16.735 14.65 19.03 16.195C19.99 15.925 21.01 15.79 22.03 15.79C23.05 15.79 24.07 15.925 25.03 16.195C27.325 14.635 28.33 14.965 28.33 14.965C28.99 16.615 28.57 17.845 28.45 18.145C29.215 18.985 29.68 20.05 29.68 21.37C29.68 25.975 26.875 26.995 24.205 27.295C24.64 27.67 25.015 28.39 25.015 29.515C25.015 31.12 25 32.41 25 32.815C25 33.13 25.225 33.505 25.825 33.385C28.2073 32.581 30.2775 31.05 31.744 29.0076C33.2106 26.9653 33.9996 24.5144 34 22C34 15.37 28.63 10 22 10Z" fill="white"/>
<path opacity="0.5" d="M36.0955 10.1966C37.3951 10.9039 39.5726 12.9074 39.5726 14.384C39.8404 15.5141 40.909 18.7707 40.909 19.1778C40.909 19.5849 41.1138 21.3588 40.909 22.638C40.7276 23.7716 39.9923 24.3847 39.5726 25.284C39.163 26.1618 39.4531 27.5356 38.9855 28.3371C38.4718 29.2178 37.0621 30.9831 37.0621 30.9831C37.0621 30.9831 35.6894 32.58 35.1386 33.6291C34.2862 35.2528 31.6278 36.6823 30.0033 37.5924C29.4337 37.9115 29.2132 38.532 28.4658 38.7692C27.9118 38.9451 27.4041 39.3086 26.8997 39.5629C25.9396 40.047 24.4838 40.4984 23.4082 40.7261C20.746 41.2895 18.1558 40.8657 15.5199 40.5071C10.1053 39.7705 4.9888 35.318 3.16303 30.4492C1.24872 25.3444 1.87531 19.3888 3.75214 14.384C4.55315 12.2479 5.15454 9.70102 6.46777 7.7882C7.66146 6.04949 9.78422 5.45073 11.3243 3.98399C12.7096 2.66467 15.8928 3.05346 17.7183 3.05346C20.6824 3.05346 23.4283 4.16616 26.2531 4.76399C27.6488 5.05937 28.9062 5.88667 30.2619 6.25557C31.1847 6.50666 32.9101 7.19823 33.423 7.97978C33.8169 8.58001 35.4188 9.82837 36.0955 10.1966Z" stroke="white" stroke-opacity="0.2" stroke-width="2" stroke-linecap="round"/>
</svg>
