<svg width="24" height="24" viewBox="0 0 24 24" fill="none" xmlns="http://www.w3.org/2000/svg">
<path d="M12 0.296875C5.37 0.296875 0 5.66687 0 12.2969C0 17.6069 3.435 22.0919 8.205 23.6819C8.805 23.7869 9.03 23.4269 9.03 23.1119C9.03 22.8269 9.015 21.8819 9.015 20.8769C6 21.4319 5.22 20.1419 4.98 19.4669C4.845 19.1219 4.26 18.0569 3.75 17.7719C3.33 17.5469 2.73 16.9919 3.735 16.9769C4.68 16.9619 5.355 17.8469 5.58 18.2069C6.66 20.0219 8.385 19.5119 9.075 19.1969C9.18 18.4169 9.495 17.8919 9.84 17.5919C7.17 17.2919 4.38 16.2569 4.38 11.6669C4.38 10.3619 4.845 9.28187 5.61 8.44187C5.49 8.14187 5.07 6.91187 5.73 5.26188C5.73 5.26188 6.735 4.94688 9.03 6.49188C9.99 6.22188 11.01 6.08687 12.03 6.08687C13.05 6.08687 14.07 6.22188 15.03 6.49188C17.325 4.93188 18.33 5.26188 18.33 5.26188C18.99 6.91187 18.57 8.14187 18.45 8.44187C19.215 9.28187 19.68 10.3469 19.68 11.6669C19.68 16.2719 16.875 17.2919 14.205 17.5919C14.64 17.9669 15.015 18.6869 15.015 19.8119C15.015 21.4169 15 22.7069 15 23.1119C15 23.4269 15.225 23.8019 15.825 23.6819C18.2073 22.8779 20.2775 21.3469 21.744 19.3045C23.2106 17.2621 23.9996 14.8112 24 12.2969C24 5.66687 18.63 0.296875 12 0.296875Z" fill="#575757"/>
</svg>
