<svg width="44" height="44" viewBox="0 0 44 44" fill="none" xmlns="http://www.w3.org/2000/svg">
<path opacity="0.5" d="M7.90452 10.1966C6.60492 10.9039 4.42736 12.9074 4.42736 14.384C4.15958 15.5141 3.091 18.7707 3.091 19.1778C3.091 19.5849 2.88625 21.3588 3.091 22.638C3.27244 23.7716 4.00766 24.3847 4.42736 25.284C4.83698 26.1618 4.54688 27.5356 5.01445 28.3371C5.52821 29.2178 6.9379 30.9831 6.9379 30.9831C6.9379 30.9831 8.31055 32.58 8.86135 33.6291C9.7138 35.2528 12.3722 36.6823 13.9967 37.5924C14.5663 37.9115 14.7868 38.532 15.5342 38.7692C16.0882 38.9451 16.5959 39.3086 17.1003 39.5629C18.0604 40.047 19.5162 40.4984 20.5918 40.7261C23.254 41.2895 25.8442 40.8657 28.4801 40.5071C33.8947 39.7705 39.0112 35.318 40.837 30.4492C42.7513 25.3444 42.1247 19.3888 40.2479 14.384C39.4468 12.2479 38.8455 9.70102 37.5322 7.7882C36.3385 6.04949 34.2158 5.45073 32.6757 3.98399C31.2904 2.66467 28.1072 3.05346 26.2817 3.05346C23.3176 3.05346 20.5717 4.16616 17.7469 4.76399C16.3512 5.05937 15.0938 5.88667 13.7381 6.25557C12.8153 6.50666 11.0899 7.19823 10.577 7.97978C10.1831 8.58001 8.58118 9.82837 7.90452 10.1966Z" stroke="white" stroke-opacity="0.2" stroke-width="2" stroke-linecap="round"/>
<path d="M30 13C30.5304 13 31.0391 13.2107 31.4142 13.5858C31.7893 13.9609 32 14.4696 32 15V29C32 29.5304 31.7893 30.0391 31.4142 30.4142C31.0391 30.7893 30.5304 31 30 31H16C15.4696 31 14.9609 30.7893 14.5858 30.4142C14.2107 30.0391 14 29.5304 14 29V15C14 14.4696 14.2107 13.9609 14.5858 13.5858C14.9609 13.2107 15.4696 13 16 13H30ZM29.5 28.5V23.2C29.5 22.3354 29.1565 21.5062 28.5452 20.8948C27.9338 20.2835 27.1046 19.94 26.24 19.94C25.39 19.94 24.4 20.46 23.92 21.24V20.13H21.13V28.5H23.92V23.57C23.92 22.8 24.54 22.17 25.31 22.17C25.6813 22.17 26.0374 22.3175 26.2999 22.5801C26.5625 22.8426 26.71 23.1987 26.71 23.57V28.5H29.5ZM17.88 18.56C18.3256 18.56 18.7529 18.383 19.0679 18.0679C19.383 17.7529 19.56 17.3256 19.56 16.88C19.56 15.95 18.81 15.19 17.88 15.19C17.4318 15.19 17.0019 15.3681 16.685 15.685C16.3681 16.0019 16.19 16.4318 16.19 16.88C16.19 17.81 16.95 18.56 17.88 18.56ZM19.27 28.5V20.13H16.5V28.5H19.27Z" fill="white"/>
</svg>
