<svg width="44" height="44" viewBox="0 0 44 44" fill="none" xmlns="http://www.w3.org/2000/svg">
<path d="M30.94 24C30.66 25.41 28.5 26.96 25.97 27.26C24.66 27.41 23.37 27.56 22 27.5C19.75 27.39 18 26.96 18 26.96V27.58C18.32 29.8 20.22 29.93 22.03 30C23.85 30.05 25.47 29.54 25.47 29.54L25.55 31.19C25.55 31.19 24.27 31.87 22 32C20.75 32.07 19.19 31.97 17.38 31.5C13.46 30.45 12.78 26.26 12.68 22L12.67 18.57C12.67 14.23 15.5 12.96 15.5 12.96C16.95 12.3 19.41 12 21.97 12H22.03C24.59 12 27.05 12.3 28.5 12.96C28.5 12.96 31.33 14.23 31.33 18.57C31.33 18.57 31.37 21.78 30.94 24ZM28 18.91C28 17.83 27.7 17 27.15 16.35C26.59 15.72 25.85 15.39 24.92 15.39C23.86 15.39 23.05 15.8 22.5 16.62L22 17.5L21.5 16.62C20.94 15.8 20.14 15.39 19.07 15.39C18.15 15.39 17.41 15.72 16.84 16.35C16.29 17 16 17.83 16 18.91V24.17H18.1V19.06C18.1 18 18.55 17.44 19.46 17.44C20.46 17.44 20.96 18.09 20.96 19.37V22.16H23.03V19.37C23.03 18.09 23.53 17.44 24.54 17.44C25.44 17.44 25.89 18 25.89 19.06V24.17H28V18.91Z" fill="white"/>
<path opacity="0.6" d="M7.90452 33.8034C6.60492 33.0961 4.42736 31.0926 4.42736 29.616C4.15958 28.4859 3.091 25.2293 3.091 24.8222C3.091 24.4151 2.88625 22.6412 3.091 21.362C3.27244 20.2284 4.00766 19.6153 4.42736 18.716C4.83698 17.8382 4.54688 16.4644 5.01445 15.6629C5.52821 14.7822 6.9379 13.0169 6.9379 13.0169C6.9379 13.0169 8.31055 11.42 8.86135 10.3709C9.7138 8.74716 12.3722 7.31773 13.9967 6.40761C14.5663 6.08853 14.7868 5.46804 15.5342 5.23077C16.0882 5.05487 16.5959 4.69142 17.1003 4.43708C18.0604 3.95301 19.5162 3.50157 20.5918 3.27393C23.254 2.71051 25.8442 3.13425 28.4801 3.49287C33.8947 4.22955 39.0112 8.68204 40.837 13.5508C42.7513 18.6556 42.1247 24.6112 40.2479 29.616C39.4468 31.7521 38.8455 34.299 37.5322 36.2118C36.3385 37.9505 34.2158 38.5493 32.6757 40.016C31.2904 41.3353 28.1072 40.9465 26.2817 40.9465C23.3176 40.9465 20.5717 39.8338 17.7469 39.236C16.3512 38.9406 15.0938 38.1133 13.7381 37.7444C12.8153 37.4933 11.0899 36.8018 10.577 36.0202C10.1831 35.42 8.58118 34.1716 7.90452 33.8034Z" stroke="white" stroke-opacity="0.2" stroke-width="2" stroke-linecap="round"/>
</svg>
