<svg width="24" height="24" viewBox="0 0 24 24" fill="none" xmlns="http://www.w3.org/2000/svg">
<path d="M21 12C21 14.3869 20.0518 16.6761 18.364 18.364C16.6761 20.0518 14.3869 21 12 21M21 12C21 9.61305 20.0518 7.32387 18.364 5.63604C16.6761 3.94821 14.3869 3 12 3M21 12H3M12 21C9.61305 21 7.32387 20.0518 5.63604 18.364C3.94821 16.6761 3 14.3869 3 12M12 21C13.933 21 15.5 16.97 15.5 12C15.5 7.03 13.933 3 12 3M12 21C10.067 21 8.5 16.97 8.5 12C8.5 7.03 10.067 3 12 3M12 3C9.61305 3 7.32387 3.94821 5.63604 5.63604C3.94821 7.32387 3 9.61305 3 12" stroke="#575757" stroke-width="2" stroke-linejoin="round"/>
</svg>
