<svg width="44" height="44" viewBox="0 0 44 44" fill="none" xmlns="http://www.w3.org/2000/svg">
<path fill-rule="evenodd" clip-rule="evenodd" d="M31.5859 31.375L24.0885 20.4471L24.1013 20.4574L30.8613 12.625H28.6023L23.0954 19L18.7223 12.625H12.7977L19.7972 22.8276L19.7964 22.8267L12.4141 31.375H14.6731L20.7955 24.2824L25.6613 31.375H31.5859ZM17.8272 14.3295L28.3466 29.6705H26.5564L16.0285 14.3295H17.8272Z" fill="white"/>
<path opacity="0.5" d="M36.0955 33.8034C37.3951 33.0961 39.5726 31.0926 39.5726 29.616C39.8404 28.4859 40.909 25.2293 40.909 24.8222C40.909 24.4151 41.1138 22.6412 40.909 21.362C40.7276 20.2284 39.9923 19.6153 39.5726 18.716C39.163 17.8382 39.4531 16.4644 38.9855 15.6629C38.4718 14.7822 37.0621 13.0169 37.0621 13.0169C37.0621 13.0169 35.6894 11.42 35.1386 10.3709C34.2862 8.74716 31.6278 7.31773 30.0033 6.40761C29.4337 6.08853 29.2132 5.46804 28.4658 5.23077C27.9118 5.05487 27.4041 4.69142 26.8997 4.43708C25.9396 3.95301 24.4838 3.50157 23.4082 3.27393C20.746 2.71051 18.1558 3.13425 15.5199 3.49287C10.1053 4.22955 4.9888 8.68204 3.16303 13.5508C1.24872 18.6556 1.87531 24.6112 3.75214 29.616C4.55315 31.7521 5.15454 34.299 6.46777 36.2118C7.66146 37.9505 9.78422 38.5493 11.3243 40.016C12.7096 41.3353 15.8928 40.9465 17.7183 40.9465C20.6824 40.9465 23.4283 39.8338 26.2531 39.236C27.6488 38.9406 28.9062 38.1133 30.2619 37.7444C31.1847 37.4933 32.9101 36.8018 33.423 36.0202C33.8169 35.42 35.4188 34.1716 36.0955 33.8034Z" stroke="white" stroke-opacity="0.2" stroke-width="2" stroke-linecap="round"/>
</svg>
