<svg width="230" height="58" viewBox="0 0 230 58" fill="none" xmlns="http://www.w3.org/2000/svg">
<g opacity="0.3">
<path d="M173.106 34.0111H174.82C176.63 34.0111 177.903 34.7074 178.637 36.1C179.142 37.1593 179.461 38.1778 179.595 39.1556C179.595 40.6963 178.83 42.1556 177.302 43.5333L169.867 47.7222V48.2889L171.77 48.4778L176.923 48.1C177.591 48.1 178.352 49.3704 179.205 51.9111C178.752 52.9259 176.719 53.5593 173.106 53.8111L172.349 53.6222L170.435 54L168.532 53.6222L167.953 53.8111C164.651 53.6556 163 53.2111 163 52.4778V50.7667C163 46.2111 166.242 42.7852 172.727 40.4889L173.674 39.3444V38.5778H173.484C170.902 39.0889 168.806 39.6593 167.196 40.2889C166.862 40.2889 166.417 39.2741 165.86 37.2444C167.611 35.0889 170.027 34.0111 173.106 34.0111Z" fill="white"/>
<path d="M188.042 34H190.457C193.633 34 195.922 36.4667 197.324 41.4L197.692 44.5556C197.692 47.6519 196.145 50.4296 193.051 52.8889C192.041 53.6296 190.869 54 189.534 54C185.905 54 182.874 52.0259 180.44 48.0778C179.943 47.2259 179.695 46.4852 179.695 45.8556V43.0667C179.695 39.6963 181.487 36.9815 185.07 34.9222L188.042 34ZM184.77 42.9889C185.556 45.7815 186.784 47.1778 188.454 47.1778H189.322C190.68 47.1778 191.555 46.363 191.949 44.7333V44.2111C191.325 41.063 190.335 39.4889 188.977 39.4889H188.621C187.189 39.4889 185.905 40.5963 184.77 42.8111V42.9889Z" fill="white"/>
<path d="M207.965 34.0111H209.679C211.489 34.0111 212.762 34.7074 213.496 36.1C214.001 37.1593 214.32 38.1778 214.453 39.1556C214.453 40.6963 213.689 42.1556 212.161 43.5333L204.726 47.7222V48.2889L206.629 48.4778L211.782 48.1C212.45 48.1 213.21 49.3704 214.064 51.9111C213.611 52.9259 211.578 53.5593 207.965 53.8111L207.208 53.6222L205.293 54L203.39 53.6222L202.811 53.8111C199.51 53.6556 197.859 53.2111 197.859 52.4778V50.7667C197.859 46.2111 201.101 42.7852 207.586 40.4889L208.532 39.3444V38.5778H208.343C205.761 39.0889 203.665 39.6593 202.055 40.2889C201.721 40.2889 201.276 39.2741 200.719 37.2444C202.47 35.0889 204.885 34.0111 207.965 34.0111Z" fill="white"/>
<path d="M225.772 34.1667H226.785C227.216 34.1667 227.839 35.463 228.655 38.0556V38.5889C228.655 38.7667 228.429 38.9444 227.976 39.1222L226.284 38.7667C224.689 38.7667 223.157 39.3556 221.688 40.5333V40.7111C225.487 42.9852 227.698 45.0519 228.321 46.9111C228.521 46.9111 228.748 47.563 229 48.8667C229 50.2519 227.809 51.6667 225.427 53.1111C223.788 53.7037 222.315 54 221.009 54H220.497C217.44 53.6963 215.911 53.2815 215.911 52.7556C215.006 52.0222 214.553 50.1333 214.553 47.0889L214.72 46.9111H215.065C217.64 48.2148 219.169 48.8667 219.651 48.8667H222.033L222.367 48.5111V47.9778C221.335 46.6741 219.354 45.2556 216.423 43.7222L214.553 41.9556V40.5333C214.553 38.9926 216.368 37.3407 219.996 35.5778C222.111 34.637 224.036 34.1667 225.772 34.1667Z" fill="white"/>
</g>
<path d="M60.4969 6.72177H62.9134L63.1188 6.93148L63.3242 6.72177H67.1664C71.3228 6.72177 73.8803 10.3649 74.8388 17.6512V18.2679C74.8388 22.018 72.9539 25.2499 69.1842 27.9638C67.7665 28.6546 66.083 29 64.1337 29C61.0325 28.8273 59.482 28.2763 59.482 27.347L59.6874 25.9037V13.9381L59.8807 13.1116L59.6874 12.2851C59.6874 8.57623 59.9572 6.72177 60.4969 6.72177ZM64.1337 11.8781C64.3995 12.4949 64.5324 13.3871 64.5324 14.5549V20.3403L64.9432 20.7474H66.3569C67.9196 20.7474 68.9264 19.7852 69.3775 17.8609V17.2441C68.6606 13.5269 67.5168 11.6684 65.9461 11.6684H65.5474L64.1337 11.8781Z" fill="white"/>
<path d="M92.7209 6.85746H93.6996C94.0137 6.85746 94.2755 7.3879 94.4849 8.44876C94.4849 10.0524 92.9867 10.8542 89.9902 10.8542L89.7969 11.0516H89.6036C89.9902 21.2491 90.3165 26.7014 90.5823 27.4087C90.5823 28.1488 89.4103 28.6792 87.0663 29H81.5929C80.0302 29 78.7938 28.3996 77.8836 27.1989C76.184 26.6891 75.3342 25.6282 75.3342 24.0164L74.9475 21.0188V19.4275C75.2939 17.166 75.9464 16.0352 76.9049 16.0352C78.7253 16.0352 79.6356 17.3633 79.6356 20.0196C79.6356 22.9473 80.7431 24.4111 82.9582 24.4111L83.1516 24.2137L84.1302 14.8386V12.0508L83.7436 11.6437C82.9542 12.0467 81.7822 12.2481 80.2276 12.2481L80.0222 12.0508V11.0516C80.2961 8.51866 81.2747 7.2522 82.9582 7.2522C84.9639 6.98904 88.2181 6.85746 92.7209 6.85746Z" fill="white"/>
<path d="M102.846 6.80812H107.111C108.65 6.80812 109.87 8.32952 110.772 11.3723C114.155 18.6092 115.847 23.8642 115.847 27.1373C116.121 27.1373 116.258 27.4827 116.258 28.1735L115.653 29L113.213 28.7902H109.757C109.419 28.7902 108.944 27.1989 108.331 24.0164L108.138 23.819C108.138 23.1282 107.526 22.7828 106.302 22.7828C104.997 22.3634 103.78 22.1537 102.653 22.1537C101.839 22.3922 101.432 23.2228 101.432 24.6455C101.126 24.6455 100.788 25.3363 100.417 26.7179C99.6039 28.083 99.0602 28.7738 98.7863 28.7902H97.566L96.7564 28.5805L96.1523 28.7902C94.9441 28.7902 94.062 28.4449 93.5062 27.7541V27.5443C93.5062 25.6776 96.0798 19.5262 101.227 9.09022C101.896 7.68395 102.435 6.92325 102.846 6.80812ZM105.492 13.235L103.668 17.7992V18.0089C103.668 18.5188 104.815 18.8642 107.111 19.0451L107.317 18.8354V18.6257L105.903 13.235H105.492Z" fill="white"/>
<path d="M118.71 6.80812H119.278C121.324 7.12062 123.213 7.8032 124.945 8.85584L127.216 12.7662H127.41C127.41 9.63298 127.913 7.71273 128.92 7.00549C131.312 7.00549 132.509 7.48658 132.509 8.44876L133.826 24.6825V26.3231L134.019 27.1496C133.721 28.1118 132.964 28.5929 131.747 28.5929H129.295C128.288 28.5929 127.784 28.0419 127.784 26.9399V23.2515C127.784 22.2482 127.281 21.4917 126.274 20.9818C125.356 18.8436 124.16 17.1331 122.685 15.8502V16.0475L123.06 28.1735C122.512 28.7245 121.505 29 120.039 29H118.336C117.2 29 116.632 28.5189 116.632 27.5567V16.6643C117.22 10.5376 117.913 7.2522 118.71 6.80812Z" fill="white"/>
<path d="M143.262 6.79578H145.678C146.484 6.79578 146.887 7.34267 146.887 8.43643L147.092 9.66999C146.536 11.1749 145.598 11.9274 144.277 11.9274L144.071 11.73H143.866C141.313 13.4735 140.036 14.9126 140.036 16.0475C140.938 19.337 142.352 20.9818 144.277 20.9818H145.28C147.293 20.9818 148.3 19.7482 148.3 17.2811H148.095L145.074 18.9217H144.47C143.157 18.9217 142.42 17.9637 142.259 16.0475C142.259 14.4357 144.14 13.1322 147.902 12.1371H148.506C150.02 12.1371 151.631 13.3707 153.339 15.8378L153.737 17.4785V18.3049C153.737 21.9645 152.058 25.1183 148.699 27.7664C147.604 28.5888 146.331 29 144.881 29C140.942 29 137.652 26.8083 135.01 22.4251C134.47 21.4793 134.2 20.6569 134.2 19.9579V16.8617C134.2 13.1199 136.145 10.1059 140.036 7.81964L143.262 6.79578Z" fill="white"/>
<path d="M163.029 6.79578H165.651C169.098 6.79578 171.583 9.5343 173.106 15.0113L173.504 18.5147C173.504 21.9522 171.825 25.0361 168.466 27.7664C167.371 28.5888 166.098 29 164.648 29C160.709 29 157.419 26.8083 154.777 22.4251C154.237 21.4793 153.967 20.6569 153.967 19.9579V16.8617C153.967 13.1199 155.912 10.1059 159.803 7.81964L163.029 6.79578ZM159.477 16.7753C160.33 19.8757 161.664 21.4259 163.476 21.4259H164.418C165.892 21.4259 166.843 20.5213 167.27 18.712V18.1322C166.593 14.6371 165.518 12.8896 164.044 12.8896H163.657C162.103 12.8896 160.709 14.119 159.477 16.578V16.7753Z" fill="white"/>
<path d="M184.306 6.6971H185.708C187.045 7.82376 187.713 9.3945 187.713 11.4093C187.504 11.6807 186.102 12.2934 183.509 13.2473C181.366 14.4809 180.295 16.1832 180.295 18.3543C180.295 20.7063 182.635 22.4826 187.315 23.6833L187.52 23.8807V25.1142C186.505 27.7047 185.502 29 184.512 29C181.338 29 178.196 27.2935 175.087 23.8807C174.153 22.4086 173.686 21.2491 173.686 20.402V17.3428C173.686 13.7737 175.554 10.7021 179.292 8.12803C180.927 7.17408 182.599 6.6971 184.306 6.6971Z" fill="white"/>
<path d="M196.957 6.79578H199.578C203.026 6.79578 205.511 9.5343 207.033 15.0113L207.432 18.5147C207.432 21.9522 205.753 25.0361 202.394 27.7664C201.298 28.5888 200.025 29 198.576 29C194.637 29 191.346 26.8083 188.704 22.4251C188.165 21.4793 187.895 20.6569 187.895 19.9579V16.8617C187.895 13.1199 189.84 10.1059 193.731 7.81964L196.957 6.79578ZM193.404 16.7753C194.258 19.8757 195.591 21.4259 197.404 21.4259H198.346C199.82 21.4259 200.771 20.5213 201.198 18.712V18.1322C200.521 14.6371 199.446 12.8896 197.971 12.8896H197.585C196.03 12.8896 194.637 14.119 193.404 16.578V16.7753Z" fill="white"/>
<path d="M209.691 6.80812H210.259C212.305 7.12062 214.194 7.8032 215.926 8.85584L218.198 12.7662H218.391C218.391 9.63298 218.894 7.71273 219.901 7.00549C222.294 7.00549 223.49 7.48658 223.49 8.44876L224.807 24.6825V26.3231L225 27.1496C224.702 28.1118 223.945 28.5929 222.729 28.5929H220.276C219.269 28.5929 218.765 28.0419 218.765 26.9399V23.2515C218.765 22.2482 218.262 21.4917 217.255 20.9818C216.337 18.8436 215.141 17.1331 213.667 15.8502V16.0475L214.041 28.1735C213.493 28.7245 212.487 29 211.021 29H209.317C208.181 29 207.613 28.5189 207.613 27.5567V16.6643C208.201 10.5376 208.894 7.2522 209.691 6.80812Z" fill="white"/>
<path d="M68.9113 33.6961H73.2173C74.7706 33.6961 76.0026 35.128 76.9134 37.9918C80.329 44.803 82.0368 49.7489 82.0368 52.8294C82.3132 52.8294 82.4515 53.1545 82.4515 53.8046L81.8416 54.5825L79.3775 54.3851H75.8888C75.5472 54.3851 75.0674 52.8874 74.4494 49.8921L74.2542 49.7063C74.2542 49.0561 73.6361 48.731 72.4 48.731C71.0826 48.3363 69.8546 48.1389 68.7161 48.1389C67.8948 48.3634 67.4841 49.1451 67.4841 50.4842C67.1751 50.4842 66.8335 51.1343 66.4594 52.4347C65.6381 53.7195 65.0891 54.3697 64.8126 54.3851H63.5806L62.7633 54.1878L62.1534 54.3851C60.9336 54.3851 60.0431 54.0601 59.482 53.4099V53.2125C59.482 51.4555 62.0802 45.666 67.2767 35.8439C67.9517 34.5204 68.4966 33.8044 68.9113 33.6961ZM71.5827 39.7449L69.7408 44.0406V44.238C69.7408 44.7179 70.8996 45.0429 73.2173 45.2132L73.4247 45.0158V44.8185L71.9975 39.7449H71.5827Z" fill="white"/>
<path d="M95.7965 33.8122H96.8212L97.4433 34.2069C97.2725 36.5599 96.8618 37.7364 96.2113 37.7364C91.9581 38.0924 89.8315 38.6149 89.8315 39.3037V39.6985L90.0389 39.8958L89.8315 40.8711V42.0437L90.4414 42.2411C91.0595 41.9779 91.954 41.8463 93.1251 41.8463H94.7719L95.3818 42.4384V44.0058C95.3818 45.0507 94.1497 45.5731 91.6857 45.5731C90.4496 45.5731 89.8315 46.0298 89.8315 46.9431V51.0531L89.6241 53.2125L89.8315 54.1878L89.2094 54.5825H88.3921C84.6838 53.9401 82.8296 52.6978 82.8296 50.8557V50.6699C82.8296 43.1157 83.7201 37.8254 85.5011 34.799C88.5507 34.1411 91.9825 33.8122 95.7965 33.8122Z" fill="white"/>
<path d="M98.5777 33.7425H105.067C109.255 34.8339 111.349 36.8269 111.349 39.7217C111.349 41.6722 110.203 43.4098 107.91 44.9346V45.3177C109.983 46.9044 112.008 49.1568 113.984 52.0747V52.2721C111.959 53.5492 110.337 54.2536 109.117 54.3851L103.652 46.8618L103.042 46.6761L103.238 46.8618L103.042 47.8255V48.0228L103.652 53.4215C103.652 54.0639 103.246 54.3851 102.432 54.3851V54.5825C99.1877 54.4587 97.5653 53.944 97.5653 53.0384L97.7727 51.6916V40.4995L97.9678 39.7217L97.7727 38.9554C97.7727 35.4801 98.041 33.7425 98.5777 33.7425ZM102.432 38.3749L102.64 42.0437L102.835 42.2294H103.042C104.571 41.587 105.718 40.6234 106.482 39.3385V39.1412C105.726 37.8563 104.783 37.2139 103.652 37.2139H103.042C102.774 37.2139 102.571 37.6009 102.432 38.3749Z" fill="white"/>
<path d="M114.838 33.7425H117.705C119.339 33.7425 120.157 34.9113 120.157 37.2487L121.999 53.8046V54.002C121.868 54.389 121.462 54.5825 120.779 54.5825H119.547C117.457 54.5825 115.684 53.8666 114.228 52.4347V34.323L114.838 33.7425Z" fill="white"/>
<path d="M133.124 33.5916H134.539C135.889 34.652 136.563 36.1303 136.563 38.0266C136.352 38.282 134.937 38.8587 132.318 39.7565C130.155 40.9175 129.074 42.5197 129.074 44.5631C129.074 46.7767 131.436 48.4485 136.161 49.5786L136.368 49.7643V50.9253C135.344 53.3635 134.331 54.5825 133.331 54.5825C130.127 54.5825 126.955 52.9765 123.816 49.7643C122.873 48.3789 122.401 47.2875 122.401 46.4903V43.611C122.401 40.2519 124.288 37.361 128.061 34.9383C129.712 34.0405 131.399 33.5916 133.124 33.5916Z" fill="white"/>
<path d="M146.176 33.6961H150.482C152.035 33.6961 153.267 35.128 154.178 37.9918C157.593 44.803 159.301 49.7489 159.301 52.8294C159.578 52.8294 159.716 53.1545 159.716 53.8046L159.106 54.5825L156.642 54.3851H153.153C152.812 54.3851 152.332 52.8874 151.714 49.8921L151.519 49.7063C151.519 49.0561 150.901 48.731 149.665 48.731C148.347 48.3363 147.119 48.1389 145.981 48.1389C145.159 48.3634 144.749 49.1451 144.749 50.4842C144.44 50.4842 144.098 51.1343 143.724 52.4347C142.903 53.7195 142.354 54.3697 142.077 54.3851H140.845L140.028 54.1878L139.418 54.3851C138.198 54.3851 137.308 54.0601 136.746 53.4099V53.2125C136.746 51.4555 139.345 45.666 144.541 35.8439C145.216 34.5204 145.761 33.8044 146.176 33.6961ZM148.847 39.7449L147.005 44.0406V44.238C147.005 44.7179 148.164 45.0429 150.482 45.2132L150.689 45.0158V44.8185L149.262 39.7449H148.847Z" fill="white"/>
<path fill-rule="evenodd" clip-rule="evenodd" d="M30.5768 18.7856C30.3482 18.4677 30.0204 18.4697 29.8399 18.4708L29.8113 18.4709C29.7548 18.4709 29.6993 18.474 29.6527 18.4766L29.6496 18.4768C29.5995 18.4796 29.5592 18.4817 29.5208 18.4817C29.498 18.4817 29.485 18.4809 29.4677 18.4799C29.4512 18.4788 29.4305 18.4776 29.3938 18.4765C29.34 18.4749 29.2623 18.4752 29.1803 18.496C29.1686 18.499 29.1495 18.5019 29.1127 18.5047L29.0896 18.5064C29.0594 18.5085 29.0175 18.5114 28.9811 18.516C28.8567 18.5318 28.7548 18.6087 28.7265 18.6301L28.7208 18.6343C28.6326 18.6975 28.5673 18.7711 28.518 18.831C28.495 18.8589 28.4777 18.8809 28.4624 18.9002C28.4394 18.9295 28.4209 18.9529 28.3955 18.981C28.1636 19.2374 28.0037 19.5387 27.915 19.9046C27.8742 20.0731 27.8892 20.2277 27.9054 20.3433C27.911 20.3838 27.9164 20.418 27.9211 20.4481C27.9318 20.5164 27.9393 20.5644 27.9401 20.6201C27.9405 20.6476 27.9407 20.6766 27.9409 20.7067L27.9409 20.7083C27.9422 20.9092 27.9438 21.1638 28.0124 21.4032C28.0458 21.52 28.1161 21.5989 28.1492 21.6352L28.1613 21.6483L28.1713 21.659L28.174 21.6619C28.1812 21.6696 28.1861 21.6749 28.1902 21.6795L28.1958 21.6859C28.2537 21.7806 28.3283 21.8772 28.3868 21.9531C28.4061 21.9781 28.4238 22.0011 28.4384 22.0207C28.4953 22.0971 28.5605 22.145 28.597 22.1714L28.6148 22.1842C28.6248 22.1914 28.631 22.1958 28.6384 22.2015L28.6452 22.207C28.6477 22.2091 28.6486 22.2101 28.6486 22.2101C28.7129 22.2787 28.7864 22.3076 28.8233 22.3202C28.8434 22.3272 28.862 22.3322 28.8725 22.335L28.8854 22.3385L28.8881 22.3393L28.8889 22.3395L28.9198 22.3496C29.0074 22.3783 29.1453 22.4235 29.2902 22.4235C29.4909 22.4235 29.7843 22.4165 30.0382 22.3128C30.0991 22.288 30.159 22.2619 30.2193 22.2341C30.2531 22.2185 30.2811 22.2006 30.3016 22.1864C30.3213 22.1728 30.3395 22.1586 30.351 22.1497L30.3517 22.1491C30.3638 22.1397 30.3697 22.1351 30.3741 22.1319C30.4513 22.0942 30.5056 22.0418 30.537 22.0097C30.5604 21.9859 30.571 21.9742 30.5778 21.9667C30.5846 21.9592 30.5877 21.9558 30.5957 21.9487C30.6912 21.8649 30.7783 21.7513 30.8394 21.641C30.8505 21.6209 30.8576 21.6103 30.868 21.5947C30.8781 21.5795 30.8913 21.5596 30.9144 21.5218C30.9462 21.4695 30.9918 21.3885 31.0153 21.2893L31.0201 21.2769L31.0209 21.2747C31.0239 21.2671 31.0288 21.2547 31.0334 21.2419C31.0387 21.2271 31.0452 21.2076 31.0509 21.1851C31.0626 21.1388 31.0703 21.094 31.0759 21.0592L31.0801 21.0326C31.084 21.0082 31.087 20.9898 31.0907 20.9707C31.1006 20.9208 31.104 20.8692 31.1058 20.8428L31.1065 20.8332L31.1079 20.8164L31.1087 20.8086L31.1092 20.805C31.1347 20.7205 31.1528 20.6154 31.1528 20.5177L31.1528 20.1533C31.1529 20.0293 31.153 19.8779 31.1007 19.7073C31.0498 19.541 30.9789 19.3826 30.909 19.2445L30.9074 19.2413C30.8936 19.214 30.8578 19.143 30.7999 19.0817C30.7462 19.0113 30.6081 18.8291 30.5768 18.7856ZM29.8113 19.0942C29.9205 19.0942 29.9768 19.0951 30.0233 19.1072C30.0536 19.1151 30.0736 19.126 30.0974 19.1591C30.1382 19.2158 30.3061 19.4369 30.344 19.4864L30.3624 19.5105L30.3697 19.5168L30.3706 19.5185C30.3731 19.523 30.3759 19.5284 30.3793 19.5352C30.4401 19.6552 30.4939 19.778 30.5302 19.8966C30.5521 19.968 30.5541 20.0307 30.5541 20.166V20.2522C30.4992 20.181 30.4149 20.1354 30.3204 20.1354H29.2611C29.0958 20.1354 28.9618 20.2749 28.9618 20.447C28.9618 20.6191 29.0958 20.7587 29.2611 20.7587H30.3204C30.3987 20.7587 30.47 20.7274 30.5233 20.6761C30.5142 20.7216 30.5113 20.7611 30.5095 20.7852L30.5084 20.8005C30.5061 20.8316 30.5056 20.8384 30.5042 20.8455C30.4979 20.8774 30.4925 20.9113 30.4883 20.9377L30.4854 20.9555C30.4833 20.9688 30.4813 20.9803 30.4795 20.9905C30.4771 21.0033 30.4749 21.014 30.4726 21.0234L30.4657 21.0413L30.4647 21.0439C30.4582 21.0603 30.4435 21.0978 30.4338 21.1407C30.4338 21.1407 30.43 21.1531 30.4088 21.1878C30.4001 21.202 30.3915 21.2154 30.3805 21.2324L30.3705 21.2477C30.3563 21.2699 30.3378 21.2988 30.3208 21.3295C30.2896 21.3858 30.2452 21.441 30.2095 21.4725C30.1857 21.4934 30.1655 21.5142 30.1513 21.5293L30.1264 21.5558L30.1176 21.5649L30.1123 21.5702L30.1101 21.5723C30.0811 21.5868 30.0571 21.6026 30.0402 21.6145C30.0229 21.6267 30.0062 21.6398 29.9956 21.648L29.993 21.65C29.9809 21.6594 29.9749 21.664 29.9704 21.6671C29.9198 21.6904 29.8701 21.712 29.8197 21.7325C29.6828 21.7884 29.4943 21.8002 29.2902 21.8002C29.2423 21.8002 29.1958 21.7854 29.0906 21.752L29.0633 21.7433C29.0541 21.7403 29.0456 21.7379 29.0391 21.7361L29.0367 21.7355C29.0011 21.7037 28.9666 21.6793 28.9474 21.6657L28.9387 21.6595C28.9193 21.6455 28.9126 21.6395 28.9111 21.638C28.8827 21.5999 28.8568 21.5663 28.8328 21.5353C28.7811 21.4683 28.7384 21.413 28.6994 21.3488C28.6749 21.3084 28.6478 21.2764 28.629 21.2554C28.6193 21.2445 28.6098 21.2343 28.6025 21.2266L28.5999 21.2238L28.5839 21.2065L28.58 21.2022C28.5436 21.0609 28.5421 20.9102 28.5401 20.7132C28.5397 20.6804 28.5394 20.646 28.5388 20.6105C28.5373 20.5049 28.5195 20.3922 28.5067 20.3113C28.5033 20.2896 28.5002 20.2699 28.4979 20.2535C28.4847 20.1593 28.4843 20.1039 28.4956 20.0571C28.5599 19.7917 28.6711 19.5856 28.8314 19.4083C28.8695 19.3661 28.9112 19.3136 28.9423 19.2745L28.9551 19.2584L28.9642 19.247L28.9729 19.2363C29.0102 19.1909 29.0358 19.1653 29.0604 19.1477L29.0753 19.137L29.0828 19.1317L29.0997 19.1304L29.1398 19.1276L29.1572 19.1263C29.2 19.123 29.2601 19.1174 29.3222 19.1016C29.3253 19.1008 29.339 19.0984 29.3769 19.0995C29.386 19.0998 29.3949 19.1002 29.4046 19.1007L29.4391 19.1025C29.4622 19.1037 29.491 19.105 29.5208 19.105C29.5766 19.105 29.6317 19.102 29.678 19.0994L29.6816 19.0992C29.7315 19.0964 29.7722 19.0942 29.8113 19.0942Z" fill="white"/>
<path d="M31.9196 20.9145H32.9857V19.9795H31.9196V20.9145Z" fill="white"/>
<path fill-rule="evenodd" clip-rule="evenodd" d="M32.1776 16.7499C31.6788 16.249 31.0093 16.2502 30.4637 16.2512L30.3922 16.2513C30.2407 16.2513 30.0893 16.2574 29.945 16.2633L29.9436 16.2633C29.7968 16.2692 29.6575 16.2748 29.5209 16.2748C29.4459 16.2748 29.3779 16.2721 29.3036 16.2692C29.2479 16.267 29.1887 16.2647 29.1206 16.2632C28.9774 16.2602 28.8171 16.2625 28.6603 16.2913C28.5682 16.3082 28.4645 16.3166 28.3472 16.3232L28.2994 16.3257L28.256 16.3279C28.1679 16.3323 28.0724 16.3371 27.9841 16.3452C27.7953 16.3625 27.6294 16.4495 27.5234 16.5051L27.4969 16.5189C27.297 16.6224 27.1397 16.7475 27.0017 16.8688C26.9485 16.9156 26.9012 16.9587 26.8561 16.9998C26.7767 17.0723 26.7039 17.1388 26.6165 17.2086C25.9885 17.7101 25.543 18.3076 25.2917 19.0566C25.1862 19.371 25.223 19.6669 25.2698 19.9089C25.2844 19.9843 25.2991 20.0522 25.3127 20.1152C25.347 20.2733 25.3747 20.401 25.3775 20.5406C25.3788 20.6045 25.3795 20.6705 25.3802 20.7382C25.3845 21.1769 25.3895 21.6881 25.5795 22.1671C25.6494 22.3433 25.7924 22.4605 25.8765 22.5272C25.9086 22.5527 25.9357 22.5736 25.9586 22.5913C26.0155 22.6353 26.0477 22.6601 26.0724 22.6895C26.2302 22.8771 26.4269 23.0613 26.6017 23.225C26.6648 23.2841 26.7251 23.3405 26.7796 23.3935C26.8951 23.5056 27.0277 23.5773 27.1276 23.6294L27.1673 23.6501C27.2566 23.6965 27.3168 23.7278 27.3693 23.7683C27.463 23.8407 27.5706 23.8726 27.6405 23.89C27.6786 23.8994 27.7159 23.9068 27.7462 23.9128L27.7796 23.9193L27.801 23.9235L27.8105 23.9255L27.8221 23.9281L27.8877 23.9433L27.9257 23.9522C28.1987 24.0161 28.5067 24.0881 28.829 24.0881C29.4342 24.0881 30.1957 24.0692 30.8269 23.8832C31.0002 23.8321 31.1708 23.7784 31.3435 23.7208C31.4489 23.6857 31.5451 23.6316 31.6135 23.5931L31.6178 23.5906C31.6974 23.5459 31.7415 23.5219 31.7791 23.5094C31.9189 23.4628 32.0278 23.3908 32.1135 23.3276C32.151 23.2999 32.1804 23.2771 32.2061 23.2572C32.2475 23.2251 32.2796 23.2001 32.3221 23.1732C32.5492 23.029 32.7727 22.8217 32.9326 22.6134C32.9595 22.5783 32.9931 22.5397 33.0349 22.4929L33.0586 22.4665C33.0928 22.4282 33.1315 22.3852 33.168 22.3419C33.2552 22.2386 33.3652 22.0953 33.4191 21.9224L33.4207 21.9184C33.4207 21.9184 33.4217 21.9161 33.4223 21.9147C33.4231 21.9129 33.4241 21.9107 33.4253 21.9083C33.4305 21.8973 33.4372 21.8849 33.4477 21.8655L33.4518 21.8579C33.47 21.8246 33.5015 21.7668 33.5238 21.7033C33.5545 21.6157 33.5753 21.5286 33.5919 21.4544L33.6038 21.4008C33.6158 21.3462 33.626 21.3001 33.6387 21.2534C33.6631 21.164 33.672 21.0713 33.6776 21.0118L33.68 20.9873C33.6871 20.9184 33.6935 20.8902 33.7015 20.8713C33.769 20.7122 33.8181 20.5089 33.8181 20.3225L33.8181 19.5424C33.8182 19.2688 33.8183 18.9748 33.6787 18.6458C33.5357 18.3086 33.3351 17.9837 33.1327 17.6951C33.0815 17.6221 32.9851 17.4878 32.8488 17.4012C32.8216 17.384 32.7929 17.3692 32.7748 17.3599L32.7603 17.3525C32.7461 17.3453 32.7357 17.34 32.7249 17.3341L32.72 17.3313C32.6941 17.2973 32.6669 17.2707 32.6468 17.2523C32.6179 17.2258 32.5875 17.2021 32.563 17.1834C32.5505 17.1739 32.5378 17.1644 32.5268 17.1562C32.5154 17.1478 32.5053 17.1403 32.4962 17.1333C32.4763 17.1182 32.4674 17.1106 32.4641 17.1075C32.4307 17.076 32.4015 17.0371 32.3558 16.9725L32.3474 16.9606C32.3068 16.903 32.2503 16.8229 32.1776 16.7499ZM31.7619 17.1985C31.4468 16.8821 31.0152 16.8746 30.3922 16.8746C30.2537 16.8746 30.1134 16.8802 29.9668 16.8861L29.9626 16.8863C29.8193 16.8921 29.6697 16.8981 29.5209 16.8981C29.4411 16.8981 29.3473 16.8946 29.2598 16.8913C29.2052 16.8893 29.153 16.8873 29.1084 16.8864C28.9763 16.8836 28.8626 16.8871 28.7642 16.9052C28.6346 16.9289 28.5008 16.9388 28.3793 16.9456C28.3421 16.9477 28.3066 16.9494 28.2723 16.9512C28.1887 16.9553 28.1122 16.9592 28.0366 16.9661C27.9676 16.9724 27.8993 17.0067 27.7635 17.077C27.625 17.1487 27.5095 17.2383 27.3879 17.3451C27.3522 17.3765 27.3132 17.412 27.2719 17.4496C27.1829 17.5306 27.0825 17.622 26.981 17.7031C26.4323 18.1413 26.0647 18.6432 25.857 19.2621C25.806 19.4141 25.8157 19.5733 25.8568 19.7858C25.8651 19.8289 25.8755 19.8767 25.8867 19.928C25.9248 20.103 25.9719 20.3192 25.9762 20.5273C25.9777 20.6018 25.9787 20.6744 25.9796 20.7453C25.9855 21.1915 25.9905 21.5696 26.1328 21.9288C26.1328 21.9288 26.138 21.9386 26.1537 21.9555C26.1729 21.9763 26.2001 22.0003 26.2395 22.0315L26.2513 22.0408L26.2841 22.0662L26.2856 22.0674C26.3147 22.0899 26.3492 22.1165 26.371 22.1342C26.4174 22.1718 26.4735 22.2202 26.5228 22.2788C26.6555 22.4366 26.8101 22.5813 26.9751 22.7358L26.9758 22.7364C27.0449 22.8011 27.1161 22.8678 27.188 22.9377C27.2347 22.983 27.2978 23.021 27.3962 23.0724L27.4309 23.0903C27.5145 23.1335 27.626 23.1909 27.7237 23.2659L27.7252 23.2665C27.7297 23.2685 27.7453 23.2752 27.7794 23.2837C27.8021 23.2893 27.8268 23.2943 27.8564 23.3001L27.8682 23.3024C27.8931 23.3072 27.9234 23.3131 27.9508 23.3194L28.0564 23.3438C28.337 23.409 28.5775 23.4648 28.829 23.4648C29.4383 23.4648 30.1223 23.443 30.6638 23.2834C30.8303 23.2343 30.9944 23.1827 31.1608 23.1272C31.2071 23.1118 31.2573 23.085 31.3332 23.0423L31.3454 23.0354C31.41 22.9989 31.5011 22.9476 31.5965 22.9158C31.6512 22.8975 31.7021 22.8672 31.7673 22.8191C31.7817 22.8084 31.7998 22.7944 31.8203 22.7787C31.8743 22.737 31.9451 22.6824 32.0103 22.641C32.1768 22.5354 32.3477 22.3769 32.4648 22.2244C32.507 22.1693 32.5541 22.1158 32.5964 22.0684L32.6238 22.0379C32.6574 22.0004 32.6883 21.966 32.7182 21.9305C32.7974 21.8367 32.8359 21.774 32.8495 21.7301C32.8714 21.6599 32.9051 21.5979 32.9241 21.5631L32.9264 21.5588C32.9504 21.5146 32.9576 21.5003 32.9613 21.4897C32.979 21.4391 32.9931 21.3826 33.0088 21.3126L33.0181 21.2707C33.0307 21.2135 33.0454 21.1468 33.0627 21.0833C33.0716 21.0508 33.0748 21.0188 33.0811 20.9559L33.0846 20.921C33.0922 20.8471 33.1051 20.7342 33.1537 20.6195C33.1936 20.5255 33.2193 20.4079 33.2193 20.3225V19.5604C33.2193 19.2724 33.2161 19.0984 33.131 18.8976C33.0122 18.6176 32.8388 18.3332 32.649 18.0625C32.6253 18.0287 32.6037 17.9998 32.5823 17.9756C32.5605 17.9509 32.5453 17.9386 32.5371 17.9334L32.535 17.9322L32.5305 17.9297L32.5228 17.9256L32.5106 17.9193L32.5015 17.9146C32.4863 17.9069 32.4651 17.8961 32.4453 17.8852C32.4206 17.8716 32.3878 17.8525 32.3552 17.8277C32.3268 17.8061 32.286 17.771 32.2515 17.7204C32.243 17.7127 32.2299 17.702 32.2097 17.6867L32.1943 17.6751L32.1785 17.6632L32.1774 17.6624L32.1586 17.6484L32.143 17.6367C32.1202 17.6193 32.0898 17.5956 32.0619 17.5693C31.9789 17.4909 31.9179 17.4047 31.8743 17.343L31.8736 17.342C31.8253 17.2737 31.7964 17.2331 31.7619 17.1985Z" fill="white"/>
<path fill-rule="evenodd" clip-rule="evenodd" d="M34.5681 10.6493L34.568 10.6476C34.567 10.6356 34.5617 10.5683 34.5432 10.5069L34.5427 10.5053C34.536 10.4826 34.5051 10.3788 34.407 10.3003C34.3427 10.2488 34.2504 10.2093 34.1413 10.2162C34.0417 10.2225 33.9694 10.265 33.9289 10.2955C33.9199 10.3022 33.912 10.3086 33.9055 10.3139L33.8923 10.325C33.8001 10.3621 33.7137 10.4031 33.6382 10.4388L33.6335 10.4411C33.5439 10.4836 33.4688 10.519 33.3927 10.5483C33.2811 10.5913 33.1813 10.6517 33.1027 10.7028C33.0518 10.7359 33.0202 10.7577 32.9922 10.7769C32.9626 10.7973 32.9366 10.8151 32.8962 10.8407C32.7312 10.9452 32.5389 11.0768 32.3771 11.2539C32.225 11.4203 32.09 11.5896 31.9597 11.7564C31.933 11.7906 31.908 11.8265 31.8847 11.8632C31.4698 11.762 31.0526 11.6842 30.6221 11.6842C29.3671 11.6842 27.8807 11.7312 26.6525 12.1205C26.6191 12.0809 26.5873 12.0519 26.5694 12.0355L26.5667 12.0331C26.5536 12.0211 26.5469 12.0147 26.5439 12.0118L26.5425 12.0105C26.4616 11.9018 26.3477 11.803 26.2796 11.744C26.264 11.7304 26.2507 11.7189 26.2409 11.7099C26.1203 11.5996 25.9436 11.4411 25.7627 11.3006C25.6722 11.2303 25.576 11.1608 25.4815 11.1028C25.3919 11.0478 25.2824 10.9895 25.1687 10.9596C25.1012 10.9418 25.0304 10.938 24.9863 10.9367C24.935 10.9351 24.8822 10.9362 24.8374 10.938C24.7918 10.9398 24.7502 10.9425 24.7203 10.9447L24.7032 10.946L24.6839 10.9476L24.6733 10.9485L24.6702 10.9488L24.6687 10.9489L24.5572 10.9594L24.4702 11.0296C24.3889 11.0953 24.3373 11.1769 24.3047 11.2399C24.2702 11.3066 24.2439 11.378 24.2233 11.4457C24.1822 11.5811 24.1544 11.7341 24.1358 11.8757C24.117 12.0191 24.1063 12.1618 24.1024 12.2809C24.0989 12.3858 24.0991 12.5107 24.1164 12.5971C24.1522 12.7749 24.2014 12.983 24.2949 13.1837C24.1273 13.2861 23.9816 13.4156 23.8364 13.5447C23.7306 13.6387 23.625 13.7325 23.5114 13.8155C23.092 14.1217 22.6719 14.5701 22.3769 15.0123C22.2883 15.1451 22.1823 15.2811 22.0734 15.4208C22.0073 15.5056 21.94 15.592 21.8751 15.6795C21.8001 15.6582 21.6982 15.6438 21.5439 15.6438H21.1822C20.9351 15.6561 20.691 15.6708 20.402 15.7518L20.3789 15.7582C20.2915 15.7826 20.1897 15.8111 20.0873 15.8487C20.0367 15.8672 19.9852 15.8922 19.9551 15.9068L19.9419 15.9132L19.9337 15.9171L19.9183 15.9242L19.912 15.927L19.9047 15.9301C19.8974 15.9331 19.8946 15.9339 19.8946 15.9339L19.893 15.9343C19.8812 15.9372 19.8153 15.9534 19.7574 15.9815L19.7559 15.9822C19.7345 15.9926 19.6366 16.0398 19.5747 16.1489C19.5341 16.2204 19.51 16.3175 19.5347 16.4234C19.5572 16.5201 19.6111 16.5841 19.6479 16.6189C19.6561 16.6266 19.6637 16.6333 19.67 16.6389L19.6831 16.65C19.735 16.7344 19.7897 16.8126 19.8375 16.8808L19.8405 16.8851C19.8973 16.9661 19.9446 17.034 19.9861 17.104C20.047 17.2064 20.1231 17.2945 20.1866 17.3633C20.2279 17.408 20.2546 17.4355 20.2784 17.4599C20.3034 17.4856 20.3251 17.508 20.3571 17.5435C20.4877 17.6884 20.6495 17.8557 20.8515 17.9856C20.8974 18.0151 20.9433 18.0436 20.9891 18.0713L20.9875 18.0781C20.9523 18.2263 20.9394 18.378 20.9266 18.5286C20.9095 18.7291 20.8926 18.9279 20.8237 19.1149C20.7093 19.4252 20.6295 19.8186 20.6295 20.1518V22.0199C20.6295 22.3794 20.6295 22.7084 20.6632 23.0334C20.5454 23.1323 20.4443 23.2391 20.3571 23.3358C20.3251 23.3713 20.3035 23.3936 20.2785 23.4193C20.2548 23.4437 20.2279 23.4713 20.1866 23.5161C20.1231 23.5848 20.047 23.6729 19.9861 23.7754C19.9446 23.8454 19.8973 23.9132 19.8405 23.9943L19.8375 23.9986C19.79 24.0664 19.7356 24.144 19.6841 24.2278C19.6415 24.2578 19.5925 24.3052 19.5596 24.3784C19.5028 24.5044 19.5318 24.6194 19.5603 24.6819C19.6024 24.7746 19.6735 24.8242 19.6803 24.829C19.7001 24.8435 19.7178 24.8536 19.7267 24.8585C19.759 24.8763 19.7967 24.8917 19.8188 24.9006C19.8733 24.9225 19.9483 24.9496 20.0195 24.9748C20.0922 25.0004 20.1666 25.0259 20.2225 25.0449L20.2906 25.0679L20.31 25.0744L20.3291 25.0808L20.3413 25.084C20.3821 25.0945 20.4603 25.1072 20.5237 25.1175C20.5697 25.1249 20.6232 25.1333 20.6787 25.142L20.6835 25.1428L20.6861 25.1432L20.7816 25.1582C20.8731 25.1727 20.9619 25.187 21.032 25.1992C21.0672 25.2054 21.0952 25.2106 21.1153 25.2147L21.1285 25.2176L21.1685 25.2322L21.2251 25.235C21.2996 25.2387 21.3747 25.2369 21.4486 25.2311C21.6127 25.5434 21.7882 25.8486 21.9673 26.1425C22.0778 26.3238 22.2185 26.5364 22.389 26.6609C22.4255 26.6876 22.4717 26.7147 22.5205 26.7432C22.6338 26.8096 22.7613 26.8843 22.8137 26.9809C22.8684 27.082 22.9955 27.1908 23.1155 27.2936C23.1868 27.3546 23.2556 27.4135 23.3051 27.4674C23.435 27.6085 23.5344 27.7701 23.6337 27.9318C23.7246 28.0799 23.8155 28.2279 23.93 28.3602C24.3679 28.8661 24.8837 29.1182 25.4444 29.2438C25.4424 29.4243 25.466 29.596 25.4908 29.7447C25.4986 29.7916 25.5026 29.8224 25.5071 29.8578C25.5114 29.8915 25.5163 29.9297 25.5255 29.9898C25.5397 30.0821 25.5612 30.1963 25.6036 30.3076C25.6325 30.3836 25.6561 30.4627 25.6841 30.5575L25.6856 30.5625C25.7092 30.6423 25.7363 30.7336 25.7701 30.8267L25.7703 30.8323L25.7707 30.8438L25.7715 30.8598L25.7725 30.8734C25.7767 30.9237 25.7932 31.0057 25.855 31.0836C25.9227 31.169 26.0139 31.211 26.0953 31.2242C26.2197 31.2444 26.3179 31.198 26.3394 31.1878L26.3409 31.1871C26.3991 31.1598 26.453 31.1188 26.4627 31.1114L26.4641 31.1104C26.4641 31.1104 26.4645 31.11 26.4671 31.1085L26.4734 31.105C26.4818 31.1003 26.4929 31.0948 26.5099 31.0866L26.5232 31.0804C26.5535 31.0662 26.6052 31.0419 26.6515 31.0142C26.745 30.9582 26.8309 30.897 26.9048 30.8444L26.9243 30.8305C27.1685 30.6569 27.3573 30.4451 27.5215 30.261L27.5234 30.2589C27.7835 29.9671 27.9265 29.5877 27.9685 29.4392C27.9697 29.4368 27.9736 29.4285 27.9832 29.4096L27.9848 29.4064C27.9915 29.3931 28.0014 29.3735 28.0121 29.349L28.1385 29.3433L28.2256 29.3393C28.5349 29.325 28.8432 29.3106 29.1478 29.3106C29.3124 29.3106 29.4829 29.3182 29.6555 29.3258C30.0657 29.344 30.4879 29.3626 30.8708 29.2818C31.1726 29.2182 31.5019 29.1992 31.8264 29.1805C32.0097 29.17 32.1918 29.1595 32.3664 29.141C32.398 29.1377 32.4293 29.1328 32.4603 29.1265C32.6022 29.2618 32.7587 29.3677 32.8962 29.4548C32.9367 29.4804 32.9624 29.4981 32.992 29.5184C33.0201 29.5378 33.0517 29.5595 33.1027 29.5927C33.1813 29.6438 33.2811 29.7042 33.3927 29.7472C33.4688 29.7765 33.5439 29.8119 33.6335 29.8544L33.6382 29.8567C33.7137 29.8925 33.8001 29.9335 33.8923 29.9706L33.9055 29.9816C33.912 29.9869 33.9199 29.9933 33.9289 30C33.9694 30.0305 34.0417 30.073 34.1413 30.0793C34.2504 30.0862 34.3427 30.0467 34.407 29.9952C34.5051 29.9167 34.536 29.8129 34.5427 29.7902L34.5432 29.7886C34.5617 29.7272 34.567 29.6599 34.568 29.6479L34.5681 29.6462C34.5681 29.6462 34.5681 29.6449 34.5702 29.6357C34.5716 29.6299 34.5733 29.6232 34.5756 29.6148L34.5809 29.5964L34.5851 29.5824C34.5947 29.5505 34.611 29.4959 34.6212 29.4432C34.6418 29.3368 34.6533 29.2325 34.6633 29.1428L34.666 29.1185C34.6992 28.8217 34.6668 28.5405 34.6387 28.296L34.6384 28.2932C34.6178 28.1143 34.5463 27.9337 34.502 27.8219L34.4952 27.8046C34.4941 27.8019 34.493 27.799 34.4918 27.7958C34.4902 27.7917 34.4886 27.7872 34.4868 27.7824L34.4772 27.7563C34.469 27.7337 34.4592 27.7068 34.448 27.6776C34.6077 27.5103 34.7707 27.3421 34.9479 27.1793C35.6575 26.5274 36.2429 25.8127 36.7061 25.0111C36.884 25.0873 37.0668 25.1628 37.2609 25.2295C37.4883 25.3076 37.7204 25.3312 37.9157 25.3442C37.9635 25.3473 37.9946 25.3506 38.0303 25.3543C38.0642 25.3578 38.1025 25.3618 38.1634 25.3666C38.257 25.3739 38.3736 25.3792 38.4923 25.3637C38.5732 25.3531 38.6561 25.3483 38.7553 25.3428L38.7605 25.3425C38.844 25.3379 38.9396 25.3326 39.0384 25.3211L39.0553 25.3245L39.0682 25.3269L39.0743 25.3279L39.0847 25.3295C39.1349 25.337 39.2188 25.3397 39.3092 25.2977C39.4083 25.2517 39.4703 25.1729 39.5018 25.0971C39.55 24.9813 39.527 24.8756 39.522 24.8524L39.5217 24.8508C39.5082 24.7882 39.4805 24.7267 39.4755 24.7155L39.4748 24.714C39.4748 24.714 39.4741 24.7128 39.4716 24.7038C39.47 24.6981 39.4683 24.6915 39.4663 24.683L39.462 24.6642L39.4589 24.65C39.4519 24.6173 39.4399 24.5615 39.4235 24.5106C39.3901 24.4072 39.3498 24.31 39.3152 24.2264L39.3061 24.2043C39.192 23.9281 39.028 23.6968 38.8853 23.4957L38.8837 23.4935C38.7794 23.3463 38.6295 23.2219 38.5367 23.145L38.5224 23.1331C38.5121 23.1246 38.4989 23.113 38.4833 23.0993C38.4155 23.0398 38.3022 22.9405 38.1834 22.8749L38.1818 22.8737L38.1759 22.8689L38.1577 22.854L38.155 22.8517C38.1291 22.8301 38.0755 22.7854 38.0041 22.7493L37.9955 22.7449C37.8979 22.6954 37.7777 22.6345 37.6426 22.5881C37.715 22.0163 37.6093 21.4553 37.503 20.8916C37.4246 20.4755 37.346 20.0579 37.3384 19.6334C37.3353 19.4636 37.3336 19.2933 37.3319 19.123L37.3319 19.1218C37.3304 18.969 37.3288 18.8162 37.3263 18.6634C37.408 18.6374 37.4843 18.6103 37.5521 18.5862L37.5529 18.5859L37.6012 18.5688L37.6428 18.5543C37.7779 18.5079 37.8979 18.447 37.9955 18.3976L38.0041 18.3932C38.0755 18.357 38.1291 18.3123 38.155 18.2908L38.1577 18.2885L38.1761 18.2734L38.1834 18.2675C38.3023 18.2019 38.4156 18.1026 38.4833 18.0431L38.5009 18.0278L38.5106 18.0194L38.5225 18.0093L38.5367 17.9975C38.6295 17.9205 38.7794 17.7961 38.8837 17.649L38.8853 17.6467C39.028 17.4456 39.1921 17.2143 39.3061 16.9381L39.3153 16.9158C39.3499 16.8323 39.3901 16.7352 39.4235 16.6319C39.4399 16.5808 39.4519 16.5252 39.4589 16.4926L39.462 16.4783C39.4661 16.4599 39.469 16.4479 39.4716 16.4387L39.4739 16.4309L39.4748 16.4284L39.4755 16.4269C39.4804 16.4159 39.5082 16.3543 39.5217 16.2916L39.522 16.29C39.527 16.2668 39.55 16.1611 39.5018 16.0453C39.4703 15.9695 39.4083 15.8908 39.3093 15.8447C39.2188 15.8027 39.1349 15.8055 39.0847 15.8129C39.0735 15.8145 39.0636 15.8163 39.0553 15.8179L39.0384 15.8213C38.9396 15.8098 38.844 15.8045 38.7605 15.7999L38.7553 15.7996C38.6561 15.7941 38.5732 15.7894 38.4923 15.7787C38.3736 15.7632 38.257 15.7685 38.1634 15.7759C38.1025 15.7806 38.0643 15.7846 38.0304 15.7882C37.9946 15.7919 37.9635 15.7951 37.9157 15.7983C37.7204 15.8112 37.4883 15.8348 37.2609 15.913C37.1673 15.9451 37.0764 15.9793 36.9873 16.0146C36.9772 15.9834 36.9668 15.9523 36.9561 15.9212C36.8633 15.6519 36.6303 15.4455 36.4038 15.2448C36.259 15.1166 36.1169 14.9907 36.0157 14.8523C35.7065 14.4294 35.3332 14.0272 34.9697 13.6355L34.9687 13.6345C34.8275 13.4823 34.6875 13.3315 34.5536 13.1818C34.4738 13.0928 34.3865 13.0162 34.2948 12.9471C34.3006 12.9336 34.3051 12.922 34.3086 12.9132L34.3099 12.9099C34.3164 12.8935 34.3199 12.8849 34.3216 12.881L34.3223 12.8792C34.395 12.765 34.4465 12.6237 34.4772 12.5392C34.4843 12.5197 34.4903 12.5032 34.4952 12.4908L34.502 12.4737C34.5463 12.3619 34.6178 12.1812 34.6384 12.0023L34.6387 11.9995C34.6668 11.755 34.6992 11.4738 34.666 11.177L34.6634 11.1532C34.6534 11.0634 34.6418 10.9589 34.6212 10.8523C34.611 10.7996 34.5947 10.745 34.5851 10.713L34.5809 10.6991C34.5756 10.6811 34.5724 10.6692 34.5702 10.6598L34.5687 10.6528L34.5681 10.6493ZM33.6602 11.2354C33.7513 11.2003 33.8377 11.1604 33.9143 11.1242C33.9188 11.16 33.923 11.1978 33.9277 11.2392L33.9277 11.2399L33.9298 11.2584C33.9525 11.4615 33.9317 11.6638 33.9024 11.9185C33.8941 11.9913 33.8591 12.0863 33.8067 12.2191L33.8058 12.2215C33.7856 12.2725 33.771 12.3122 33.7591 12.3446C33.7351 12.4098 33.7218 12.4457 33.696 12.4857C33.6572 12.546 33.6333 12.6075 33.6227 12.6347L33.6203 12.641L33.6174 12.6482C33.6138 12.6571 33.6117 12.662 33.6107 12.6643C33.5452 12.7597 33.4961 12.83 33.4382 12.8933C33.4225 12.9105 33.4072 12.9274 33.3922 12.9439C33.3806 12.9568 33.3692 12.9694 33.358 12.9817C33.2081 13.1476 33.0925 13.2756 32.9574 13.3585C32.8944 13.3971 32.8366 13.4426 32.798 13.4729L32.7853 13.4829C32.74 13.5184 32.7167 13.5349 32.6975 13.5452C32.6183 13.5881 32.453 13.6591 32.2605 13.7245L32.2606 13.7216C32.2635 13.6583 32.2691 13.5342 32.239 13.4146C32.239 13.4146 32.2371 13.4043 32.2371 13.373C32.2371 13.3577 32.2375 13.342 32.238 13.3213L32.2381 13.3148C32.2386 13.2927 32.2393 13.2643 32.2388 13.2351C32.2385 13.213 32.2374 13.1909 32.2365 13.175L32.2362 13.1682L32.2351 13.1478L32.2345 13.132C32.2342 13.1226 32.2341 13.1164 32.2342 13.1125C32.2464 13.0494 32.257 12.9718 32.2654 12.9102L32.2692 12.8821C32.2715 12.8659 32.2735 12.8515 32.2753 12.8395C32.288 12.757 32.3008 12.707 32.3157 12.6735C32.3404 12.6178 32.3615 12.5681 32.3806 12.5232C32.4386 12.3866 32.4781 12.2937 32.5445 12.2087C32.673 12.0443 32.7935 11.8937 32.9253 11.7494C33.018 11.6479 33.1411 11.5591 33.294 11.4623C33.3285 11.4405 33.3861 11.4015 33.4345 11.3689L33.4351 11.3684C33.4659 11.3476 33.493 11.3293 33.5083 11.3194C33.574 11.2766 33.6221 11.2501 33.6602 11.2354ZM24.8703 11.971C24.8853 11.8573 24.9051 11.7533 24.9283 11.6728C24.936 11.6727 24.9435 11.6728 24.9507 11.6729L24.9635 11.6731C24.9744 11.6735 24.9818 11.674 24.9863 11.6743L24.9887 11.6752C24.9949 11.6776 25.0032 11.6811 25.0136 11.686C25.0348 11.6962 25.0611 11.7105 25.0924 11.7298C25.1556 11.7686 25.2285 11.8205 25.3068 11.8813C25.4632 12.0029 25.6221 12.1448 25.7393 12.2521C25.7799 12.2892 25.8118 12.3171 25.8379 12.3399C25.8903 12.3857 25.9192 12.411 25.9474 12.4493C25.9899 12.5071 26.0389 12.5515 26.0606 12.5712L26.0656 12.5757C26.0763 12.5855 26.0818 12.5908 26.084 12.593C26.1498 12.6882 26.1979 12.7592 26.2364 12.8357C26.255 12.8727 26.2731 12.9082 26.2904 12.9423C26.3918 13.1412 26.4699 13.2944 26.4988 13.4497C26.5123 13.5222 26.534 13.5922 26.5485 13.6389L26.5533 13.6542C26.5701 13.7091 26.5772 13.7367 26.58 13.7582C26.5915 13.8471 26.5984 14.0262 26.5902 14.2283L26.5875 14.2272C26.5293 14.2017 26.4149 14.1516 26.292 14.1364C26.292 14.1364 26.2816 14.1344 26.2522 14.1231C26.238 14.1176 26.2235 14.1116 26.2044 14.1037L26.198 14.1011C26.1775 14.0927 26.1512 14.0818 26.1236 14.0717C26.1027 14.064 26.0817 14.0571 26.0664 14.0521L26.0598 14.0499C26.046 14.0454 26.0356 14.0421 26.0254 14.0385L26.0139 14.0344L26.007 14.0317C25.9521 13.9975 25.8834 13.9598 25.8286 13.9297C25.8041 13.9162 25.7823 13.9043 25.766 13.8949C25.6932 13.8534 25.651 13.8234 25.6249 13.7976C25.5817 13.7545 25.5426 13.7169 25.5074 13.683C25.4003 13.5799 25.3275 13.5098 25.2718 13.4174C25.1641 13.2389 25.0665 13.0727 24.9788 12.8983C24.9171 12.7757 24.8783 12.6294 24.8428 12.4526C24.8432 12.4548 24.8432 12.453 24.8429 12.447C24.8422 12.431 24.8401 12.3854 24.8427 12.305C24.8459 12.2085 24.8548 12.0897 24.8703 11.971ZM20.6028 16.461C20.7981 16.4063 20.9995 16.3933 21.2523 16.3807C21.5515 16.3822 21.7876 16.4601 21.8582 16.4903C21.9244 16.5186 21.9892 16.532 22.018 16.538L22.0246 16.5394L22.0412 16.543L22.0493 16.545C22.1546 16.5937 22.2323 16.6304 22.3046 16.6769C22.3389 16.699 22.372 16.72 22.4039 16.7403L22.4055 16.7413C22.5945 16.8614 22.7401 16.9538 22.8443 17.073C22.8929 17.1285 22.9474 17.1778 22.9838 17.2107L22.9958 17.2215C23.0384 17.2602 23.0585 17.2804 23.0719 17.2975C23.1273 17.3683 23.2247 17.519 23.3209 17.6972L23.3181 17.6975C23.2549 17.7051 23.1308 17.7198 23.0171 17.7688C23.0171 17.7688 23.0072 17.7724 22.9762 17.7775C22.961 17.78 22.9455 17.7821 22.9249 17.785L22.9182 17.786C22.8963 17.7891 22.868 17.7931 22.8391 17.7983C22.8172 17.8022 22.7955 17.8069 22.7799 17.8103L22.7584 17.815L22.7376 17.8193C22.7283 17.8212 22.7222 17.8222 22.7183 17.8228C22.6535 17.8211 22.5749 17.8234 22.5124 17.8252L22.5117 17.8252C22.484 17.826 22.4595 17.8267 22.4408 17.8269C22.3569 17.8279 22.3052 17.8235 22.2696 17.8144C22.2103 17.7992 22.1576 17.7866 22.1099 17.7752C21.9649 17.7406 21.8664 17.717 21.7712 17.6656C21.5872 17.5663 21.4183 17.4726 21.2536 17.3668C21.1378 17.2923 21.0297 17.186 20.9087 17.0517C20.8813 17.0213 20.8331 16.9709 20.7927 16.9287C20.767 16.9018 20.7444 16.8781 20.7321 16.8648C20.6789 16.8072 20.6448 16.7644 20.624 16.7294C20.5743 16.6457 20.5206 16.5674 20.4722 16.4981C20.5072 16.4878 20.5442 16.4774 20.5849 16.466L20.6028 16.461ZM38.1334 16.5186C38.0751 16.5241 38.0058 16.5308 37.9648 16.5335C37.7839 16.5455 37.6331 16.5646 37.5028 16.6094C37.3175 16.6731 37.1392 16.7476 36.9471 16.8305C36.8478 16.8734 36.7684 16.9361 36.6516 17.0282C36.6132 17.0586 36.5707 17.0921 36.5222 17.1291C36.4929 17.1514 36.4576 17.1891 36.4067 17.2555C36.4003 17.2638 36.3929 17.2736 36.3848 17.2845L36.3638 17.3128C36.3267 17.3628 36.2801 17.4257 36.2389 17.4754L36.2373 17.4782L36.2335 17.4852L36.2297 17.4926L36.2226 17.507L36.2108 17.5313L36.1998 17.5538C36.1975 17.5584 36.1951 17.5632 36.1927 17.568C36.1898 17.5737 36.1868 17.5794 36.1838 17.5851L36.1776 17.5967C36.1731 17.605 36.1686 17.613 36.1643 17.6207C36.1572 17.6331 36.1506 17.6447 36.1447 17.6547L36.1414 17.6604C36.131 17.6783 36.1231 17.6918 36.1157 17.7053C36.1007 17.7327 36.0973 17.7427 36.0973 17.7427C36.066 17.862 36.0009 17.9687 35.9679 18.0229L35.9667 18.0248C36.1671 18.0593 36.3465 18.0759 36.4366 18.0762C36.4584 18.0762 36.4868 18.0729 36.5437 18.0634L36.5597 18.0607C36.6082 18.0525 36.6807 18.0402 36.7546 18.0364C36.9132 18.0282 37.0761 17.9712 37.2876 17.8972C37.3239 17.8846 37.3616 17.8714 37.4009 17.8578C37.4822 17.8299 37.5592 17.7917 37.6627 17.7393C37.6652 17.7373 37.6712 17.7326 37.6824 17.7233L37.6875 17.719C37.71 17.7002 37.7606 17.6576 37.8238 17.6233C37.8657 17.6005 37.8946 17.5753 37.9472 17.5296C37.9733 17.5068 38.0053 17.4789 38.0475 17.4439L38.0495 17.4422C38.1595 17.3507 38.236 17.2841 38.2785 17.2242C38.4271 17.0147 38.5429 16.8472 38.6209 16.6581L38.628 16.641C38.6441 16.6021 38.6587 16.5667 38.6721 16.533C38.5874 16.5282 38.4924 16.522 38.3955 16.5093C38.355 16.5039 38.3 16.5043 38.2217 16.5104C38.2034 16.5119 38.1706 16.515 38.1334 16.5186ZM22.2696 23.065C22.3052 23.0558 22.3569 23.0514 22.4408 23.0524C22.4597 23.0526 22.4845 23.0534 22.5125 23.0542C22.575 23.056 22.6535 23.0582 22.7183 23.0565C22.7222 23.0571 22.7283 23.0582 22.7376 23.06C22.748 23.0621 22.7585 23.0644 22.7723 23.0674L22.7799 23.069C22.7955 23.0725 22.8172 23.0772 22.8391 23.0811C22.868 23.0863 22.8963 23.0903 22.9182 23.0934L22.9249 23.0943C22.9455 23.0972 22.961 23.0994 22.9762 23.1019C23.0072 23.107 23.0168 23.1104 23.0168 23.1104C23.1309 23.1595 23.2557 23.1744 23.3187 23.1819L23.3209 23.1821C23.2247 23.3604 23.1273 23.5111 23.0719 23.5818C23.0585 23.5989 23.0384 23.6191 22.9958 23.6578L22.9838 23.6687C22.9474 23.7016 22.8929 23.7509 22.8443 23.8064C22.7401 23.9255 22.5946 24.018 22.4056 24.138C22.3732 24.1586 22.3395 24.18 22.3046 24.2025C22.2323 24.2489 22.1546 24.2857 22.0493 24.3344C22.0463 24.3351 22.0389 24.337 22.0246 24.34L22.018 24.3414C21.9892 24.3473 21.9244 24.3607 21.8582 24.389C21.8276 24.4022 21.7365 24.4344 21.6167 24.4613C21.5098 24.4852 21.3972 24.5008 21.2975 24.5001C21.2902 24.4984 21.2832 24.4969 21.277 24.4956L21.2652 24.4932C21.2347 24.4869 21.1984 24.4802 21.1603 24.4735C21.0836 24.4601 20.9894 24.445 20.8978 24.4305L20.8015 24.4153C20.7437 24.4063 20.6895 24.3977 20.6423 24.3901C20.5816 24.3803 20.5477 24.3744 20.5345 24.372L20.5338 24.3719L20.5276 24.3698L20.4892 24.3569C20.533 24.2938 20.5801 24.224 20.624 24.15C20.6448 24.115 20.6789 24.0721 20.7321 24.0146C20.7445 24.0012 20.7673 23.9773 20.7931 23.9503C20.8335 23.9081 20.8813 23.858 20.9087 23.8276C21.0297 23.6933 21.1378 23.587 21.2536 23.5126C21.4183 23.4067 21.5872 23.313 21.7712 23.2137C21.8664 23.1624 21.9649 23.1388 22.1099 23.1042C22.1576 23.0928 22.2103 23.0801 22.2696 23.065ZM19.9111 24.8961H19.9029L19.9065 24.8961L19.9111 24.8961ZM36.5437 23.079C36.4868 23.0696 36.4584 23.0662 36.4366 23.0663C36.3465 23.0665 36.1671 23.0831 35.9667 23.1176L35.9679 23.1196C36.0008 23.1735 36.066 23.2804 36.0974 23.4C36.0981 23.4017 36.1021 23.4123 36.1157 23.4372C36.1231 23.4506 36.1309 23.464 36.1413 23.4819L36.1447 23.4878C36.1558 23.5069 36.1701 23.5315 36.1838 23.5573C36.1942 23.5769 36.2038 23.5967 36.2108 23.6111L36.2139 23.6175C36.2201 23.6305 36.2248 23.6402 36.2297 23.6498L36.2357 23.6613L36.2389 23.6671C36.2801 23.7167 36.3267 23.7796 36.3638 23.8297C36.3804 23.8521 36.3952 23.872 36.4067 23.8869C36.4576 23.9533 36.4929 23.991 36.5222 24.0133C36.5707 24.0504 36.6132 24.0839 36.6516 24.1142C36.7684 24.2064 36.8478 24.2691 36.9471 24.3119C37.1392 24.3948 37.3175 24.4694 37.5028 24.533C37.6331 24.5778 37.7839 24.597 37.9648 24.6089C38.0058 24.6117 38.0757 24.6184 38.1341 24.6239C38.171 24.6275 38.2035 24.6306 38.2217 24.632C38.3 24.6382 38.355 24.6385 38.3955 24.6332C38.4924 24.6205 38.5874 24.6143 38.6721 24.6095C38.6587 24.5758 38.6441 24.5403 38.628 24.5015L38.6209 24.4843C38.5429 24.2953 38.4271 24.1277 38.2785 23.9183C38.236 23.8583 38.1596 23.7917 38.0495 23.7003L38.0475 23.6986C38.0052 23.6635 37.9733 23.6356 37.9472 23.6129C37.8946 23.5671 37.8657 23.5419 37.8238 23.5191C37.7606 23.4848 37.71 23.4423 37.6875 23.4234L37.6824 23.4191L37.6693 23.4084L37.6627 23.4032C37.5592 23.3508 37.4822 23.3125 37.4009 23.2846C37.3617 23.2711 37.3239 23.2579 37.2877 23.2452C37.0761 23.1712 36.9132 23.1143 36.7546 23.1061C36.6807 23.1022 36.6081 23.0899 36.5597 23.0817L36.5437 23.079ZM32.2606 26.5733L32.2605 26.571C32.453 26.6364 32.6183 26.7075 32.6975 26.7503C32.7167 26.7606 32.74 26.7771 32.7853 26.8126L32.798 26.8226C32.8366 26.8529 32.8944 26.8984 32.9574 26.937C33.0925 27.0199 33.2079 27.1476 33.3578 27.3135C33.3835 27.342 33.4102 27.3715 33.4382 27.4022C33.4961 27.4655 33.5452 27.5358 33.6107 27.6312C33.6119 27.6341 33.6149 27.641 33.6203 27.6545L33.6227 27.6608C33.6333 27.688 33.6572 27.7495 33.696 27.8098C33.7218 27.8497 33.735 27.8857 33.759 27.9508C33.771 27.9832 33.7856 28.023 33.8058 28.074L33.8067 28.0764C33.8592 28.2092 33.8941 28.3042 33.9024 28.377C33.9317 28.6317 33.9525 28.834 33.9298 29.0371L33.9277 29.0556C33.9231 29.0973 33.9188 29.1353 33.9143 29.1713C33.8377 29.1351 33.7513 29.0952 33.6602 29.0601C33.6221 29.0454 33.574 29.0189 33.5083 28.9761C33.493 28.9661 33.4657 28.9477 33.4348 28.9269C33.3863 28.8941 33.3287 28.8552 33.294 28.8332C33.1411 28.7364 33.018 28.6476 32.9253 28.5461C32.7935 28.4018 32.673 28.2512 32.5445 28.0869C32.4781 28.0018 32.4386 27.9089 32.3806 27.7723C32.3616 27.7275 32.3404 27.6776 32.3157 27.622C32.3008 27.5885 32.288 27.5385 32.2753 27.456C32.2726 27.438 32.2693 27.4139 32.2657 27.3873L32.2655 27.3863L32.2654 27.3853C32.257 27.3237 32.2464 27.2462 32.2342 27.183C32.2341 27.1791 32.2342 27.1729 32.2345 27.1635L32.2352 27.1463L32.2365 27.1205C32.237 27.1117 32.2376 27.101 32.238 27.0895L32.2384 27.0788L32.2388 27.0604C32.2393 27.0312 32.2386 27.0028 32.2381 26.9807L32.238 26.974C32.2375 26.9533 32.2371 26.9378 32.2371 26.9225C32.2371 26.8912 32.2389 26.8813 32.2389 26.8813C32.2691 26.7613 32.2634 26.6363 32.2606 26.5733ZM27.224 27.3482L27.2224 27.3497C27.1771 27.394 27.0874 27.4816 26.9775 27.5394C26.9775 27.5394 26.9688 27.5447 26.9454 27.5656C26.9339 27.5758 26.9226 27.5865 26.9074 27.6007L26.9025 27.6052C26.8864 27.6203 26.8656 27.6398 26.8434 27.659C26.8266 27.6735 26.8094 27.6874 26.7969 27.6974L26.7914 27.7018L26.7742 27.7157L26.7634 27.7246C26.7561 27.7306 26.7514 27.7347 26.7486 27.7374C26.7094 27.7887 26.6585 27.8482 26.618 27.8956C26.5999 27.9167 26.5837 27.9357 26.5718 27.9502C26.5185 28.0147 26.4897 28.0575 26.4745 28.0909C26.4494 28.1464 26.4262 28.1952 26.4054 28.2394C26.3419 28.3735 26.2987 28.4648 26.2795 28.5708C26.2423 28.7757 26.2101 28.9654 26.1902 29.1594C26.1761 29.2959 26.1919 29.4462 26.2215 29.6241C26.2282 29.6641 26.2375 29.7318 26.2453 29.7893L26.2456 29.7912C26.2506 29.8279 26.255 29.8602 26.2577 29.8782C26.2696 29.9555 26.2819 30.0087 26.2963 30.0468C26.3309 30.1377 26.3587 30.2283 26.3828 30.3092C26.4128 30.2885 26.4441 30.2663 26.4784 30.2419L26.4936 30.231C26.6607 30.1122 26.7982 29.9618 26.9692 29.77C27.1294 29.5903 27.2322 29.3236 27.2558 29.2383C27.275 29.1693 27.305 29.1106 27.3183 29.0845L27.3214 29.0786L27.3276 29.0661L27.3325 29.0558C27.3601 28.9436 27.3799 28.8603 27.3887 28.7752C27.3913 28.7498 27.3939 28.7249 27.3965 28.7007C27.3981 28.6861 27.3996 28.6717 27.4012 28.6576L27.4013 28.6565C27.4253 28.4347 27.4438 28.264 27.4156 28.1086C27.4024 28.0361 27.3978 27.963 27.3948 27.9141L27.3938 27.8981C27.39 27.8408 27.3868 27.8126 27.3818 27.7914C27.3609 27.7042 27.3036 27.5344 27.224 27.3482ZM31.4609 15.2168C31.4609 14.9022 31.3524 14.7274 31.1799 14.4808C31.1198 14.3949 31.0478 14.3177 30.9758 14.2405C30.9032 14.1628 30.8307 14.0851 30.7704 13.9984C30.5939 13.7449 30.3032 13.5323 30.0285 13.393C30.0035 13.3804 29.9782 13.3671 29.9526 13.3536C29.8508 13.3 29.7445 13.2441 29.6348 13.2168C29.6155 13.212 29.5935 13.2008 29.5711 13.1894C29.5194 13.1631 29.4659 13.1358 29.441 13.1854C29.4125 13.2421 29.343 13.2902 29.2803 13.3336C29.2521 13.3531 29.2253 13.3716 29.2042 13.3896C29.1803 13.4099 29.1569 13.4326 29.1335 13.4552C29.1033 13.4845 29.0731 13.5137 29.042 13.5378C28.8983 13.649 28.7588 13.7723 28.643 13.9164C28.5621 14.017 28.4643 14.0989 28.3668 14.1805C28.2274 14.2972 28.0887 14.4134 28.0011 14.5829C27.9734 14.6364 27.9403 14.6867 27.9074 14.7369C27.8729 14.7893 27.8386 14.8415 27.8108 14.8969C27.7898 14.9386 27.7788 14.9902 27.7677 15.0419C27.7525 15.1131 27.7372 15.1845 27.6959 15.2301C27.6635 15.2659 27.6636 15.2951 27.6636 15.3111C27.6636 15.3176 27.6636 15.3219 27.6615 15.3236C27.6573 15.3271 27.6445 15.3202 27.606 15.2994L27.5696 15.2799C27.2528 15.1113 26.853 15.092 26.4777 15.0738C26.3853 15.0694 26.2944 15.065 26.2066 15.0584C25.6511 15.0171 24.9203 15.1332 24.6144 15.3752C24.5487 15.4773 24.5319 15.6392 24.5169 15.7833C24.5066 15.8832 24.4971 15.9746 24.4728 16.0315L24.4577 16.0666C24.4163 16.1631 24.3742 16.2613 24.343 16.3612C24.3248 16.4196 24.3243 16.5089 24.3239 16.5754L24.3237 16.6037C24.3208 16.8376 24.3193 17.0729 24.3237 17.3068C24.3289 17.5837 24.4117 17.8708 24.5008 18.1268C24.5122 18.1595 24.5185 18.1943 24.5252 18.2309C24.5476 18.3546 24.5739 18.4994 24.8129 18.657C24.4663 18.657 24.1453 18.8438 23.8615 19.0251C23.7134 19.1196 23.5948 19.2351 23.4741 19.3525C23.4248 19.4004 23.3751 19.4488 23.323 19.4961C23.2193 19.5903 23.1382 19.7129 23.0575 19.8348C23.0052 19.9139 22.9531 19.9926 22.8951 20.0631C22.8617 20.1037 22.8349 20.15 22.8084 20.1959C22.7792 20.2463 22.7504 20.2961 22.7136 20.337C22.6952 20.3575 22.6835 20.3824 22.6722 20.4066C22.6622 20.4282 22.6523 20.4492 22.6382 20.4661C22.6286 20.4776 22.6175 20.49 22.6059 20.503C22.552 20.5634 22.4865 20.6366 22.5084 20.6825C22.6846 21.0526 23.0078 21.3287 23.318 21.5937C23.3804 21.647 23.4427 21.7002 23.5028 21.7534C23.686 21.9154 23.878 22.0327 24.0956 22.1424C24.1308 22.1602 24.1646 22.1801 24.1984 22.2001C24.2502 22.2306 24.302 22.2612 24.3587 22.2837C24.4186 22.3076 24.5166 22.3383 24.6204 22.3707C24.7652 22.416 24.9215 22.4649 25.0023 22.5041C24.9954 22.5731 24.9302 22.6546 24.8787 22.7191C24.8646 22.7367 24.8516 22.7531 24.841 22.7675C24.8107 22.809 24.7781 22.8497 24.7454 22.8905C24.6877 22.9625 24.6298 23.0349 24.5832 23.1129C24.5079 23.239 24.4773 23.3758 24.4461 23.5154C24.4396 23.5443 24.4331 23.5733 24.4262 23.6023C24.4066 23.6846 24.381 23.7653 24.3553 23.8461C24.3296 23.927 24.3039 24.008 24.2841 24.0908C24.2393 24.2793 24.2289 24.4657 24.2289 24.6587C24.2289 24.7187 24.2275 24.7791 24.2261 24.8396C24.2212 25.0583 24.2162 25.2781 24.2763 25.4874C24.2873 25.5257 24.2945 25.5699 24.3019 25.6151C24.3157 25.6995 24.3301 25.7876 24.371 25.8485C24.4964 25.8485 24.6212 25.8564 24.7458 25.8643C24.8702 25.8721 24.9944 25.88 25.1189 25.88L25.8974 25.88C26.1814 25.8803 26.4985 25.8806 26.7623 25.7779C26.9006 25.724 27.0245 25.6996 27.1446 25.6758C27.3078 25.6436 27.4639 25.6128 27.6396 25.5116C27.6396 25.998 27.9581 26.4619 28.2765 26.7786C28.4797 26.9807 28.6163 27.1075 28.7597 27.2404C28.805 27.2825 28.8512 27.3253 28.9002 27.3712C29.0653 27.5257 29.2732 27.6748 29.4851 27.7567C29.4886 27.7581 29.4921 27.7594 29.4956 27.7607C29.4997 27.7622 29.5038 27.7637 29.5079 27.7652L29.5258 27.7717C29.5603 27.7841 29.5948 27.7964 29.6272 27.8143C29.6409 27.8219 29.6521 27.8311 29.6628 27.84C29.6839 27.8575 29.7035 27.8736 29.7377 27.8736C29.7982 27.8402 29.875 27.7718 29.9184 27.7168C29.9527 27.6734 29.9898 27.632 30.0268 27.5906C30.0885 27.5218 30.1502 27.453 30.1991 27.3748C30.2755 27.2526 30.3659 27.1394 30.4561 27.0263C30.4929 26.9801 30.5297 26.9339 30.5656 26.8872C30.6191 26.8175 30.6679 26.7475 30.717 26.677L30.7536 26.6247C30.7662 26.6067 30.7789 26.5887 30.7919 26.5706C30.9587 26.337 31.1019 26.0518 31.1935 25.782C31.2051 25.7478 31.2178 25.7127 31.2306 25.6771C31.2717 25.5636 31.3147 25.4448 31.3312 25.3301C31.3348 25.305 31.3636 25.2079 31.3636 25.2202C31.5283 25.4247 31.6628 25.4308 31.7878 25.4364C31.8381 25.4386 31.8868 25.4408 31.9353 25.4558C32.209 25.5402 32.4879 25.6254 32.7754 25.6442C32.8823 25.6512 32.989 25.6609 33.0955 25.6706C33.2955 25.6888 33.4952 25.707 33.6962 25.707C33.7631 25.707 33.8342 25.7106 33.9071 25.7144C34.1119 25.7249 34.3302 25.7361 34.5047 25.6686C34.5167 25.664 34.5551 25.654 34.6 25.6424C34.6896 25.6193 34.8051 25.5895 34.7888 25.5814C34.7888 25.2183 34.7843 24.8562 34.7729 24.4944C34.7689 24.3676 34.754 24.2337 34.7398 24.1069L34.7378 24.0896C34.7293 24.013 34.7244 23.9362 34.7196 23.8595C34.7115 23.7316 34.7034 23.6039 34.6782 23.4773C34.6529 23.3497 34.6325 23.231 34.6126 23.1144C34.584 22.9473 34.556 22.7837 34.5146 22.6023C34.5822 22.5962 34.6905 22.5528 34.7482 22.5212C34.8395 22.4711 34.9296 22.4167 35.0193 22.3625C35.0612 22.3372 35.103 22.312 35.1449 22.2872C35.3219 22.1825 35.5023 22.0473 35.6544 21.9086C35.7037 21.8637 35.7364 21.817 35.7719 21.7663L35.781 21.7534C35.7874 21.7442 35.794 21.7349 35.8008 21.7254C35.8575 21.6471 35.9199 21.5737 35.9823 21.5002C36.0591 21.4098 36.136 21.3193 36.2025 21.2195C36.237 21.1677 36.2908 21.0892 36.3502 21.0028L36.3507 21.002C36.4996 20.7851 36.683 20.5179 36.683 20.4937C36.683 20.3395 36.6741 20.2199 36.6003 20.1126C36.5424 20.0284 36.4496 19.9545 36.3572 19.8808C36.2723 19.8131 36.1877 19.7456 36.1304 19.6705C36.047 19.5611 35.9362 19.4739 35.8277 19.3886C35.8075 19.3726 35.7873 19.3567 35.7674 19.3408C35.6442 19.2421 35.512 19.1457 35.3763 19.0651C35.1975 18.959 35.017 18.8832 34.8203 18.8209C34.7914 18.8117 34.7662 18.8005 34.7421 18.7898C34.6967 18.7696 34.655 18.7511 34.5994 18.7511C34.5994 18.4472 34.6349 18.1469 34.6705 17.8468C34.706 17.547 34.7414 17.2475 34.7414 16.9446C34.7414 16.8653 34.7423 16.7858 34.7432 16.7064C34.7464 16.4155 34.7496 16.1242 34.7099 15.8376C34.6989 15.7587 34.672 15.6499 34.6345 15.5794C34.6345 15.5093 33.5621 15.1572 33.2631 15.1332C33.2269 15.1332 33.1607 15.129 33.0805 15.1239C32.8557 15.1095 32.5212 15.0882 32.4289 15.1332C32.3084 15.192 31.5986 15.2168 31.4609 15.2168Z" fill="white"/>
<path fill-rule="evenodd" clip-rule="evenodd" d="M17.3978 1.75233C18.1238 1.42804 19.0821 1 20.1255 1C21.0387 1 21.7468 1.62616 22.1861 2.08203C22.6403 2.5534 23.0933 3.15913 23.5021 3.70585L23.5949 3.82993C24.0535 4.44233 24.4662 4.98121 24.8687 5.37948C25.2967 5.80297 25.5365 5.88527 25.6172 5.89175C26.4208 5.95625 27.3368 5.79527 28.3367 5.59462L28.5311 5.55544C28.9476 5.47134 29.3812 5.38376 29.7832 5.32384C30.2426 5.25536 30.7495 5.2079 31.2274 5.26543C31.4465 5.29181 31.8041 5.31856 32.2866 5.35463C32.4549 5.36722 32.6389 5.38098 32.8371 5.39623C33.5787 5.45328 34.4775 5.52864 35.4019 5.63994C36.3233 5.75088 37.2904 5.89984 38.1665 6.10817C39.0204 6.31123 39.8846 6.59223 40.5366 7.01095C41.6148 7.70326 42.2963 8.91054 42.72 9.95392C43.1404 10.9891 43.3804 12.0481 43.4803 12.76C43.5324 12.9467 43.6334 13.3239 43.7605 13.7987L43.7607 13.7996L43.7622 13.8052C43.8469 14.1216 43.9431 14.4809 44.044 14.8557C44.3335 15.9301 44.6712 17.166 44.9287 18.034C44.9858 18.2265 45.0346 18.3976 45.079 18.5532C45.176 18.8931 45.252 19.1592 45.3467 19.4119C45.4719 19.7463 45.5878 19.9282 45.7205 20.056C45.9905 20.3161 46.6279 20.6334 48.6535 20.7114C49.5583 20.7463 50.326 20.9071 50.9128 21.2542C51.554 21.6336 51.9322 22.2126 52.0068 22.8852C52.0738 23.4887 51.8833 24.0449 51.6761 24.4568C51.4618 24.8831 51.1746 25.2643 50.9024 25.5593L50.8995 25.5625C49.7281 26.8219 47.9553 28.742 46.4438 30.4088C45.6875 31.2429 45.0003 32.0095 44.4876 32.5968C44.2306 32.8912 44.0226 33.1348 43.8732 33.3168C43.8139 33.389 43.7673 33.4474 43.7323 33.4927C43.7254 33.531 43.7176 33.5807 43.709 33.6431C43.6812 33.8468 43.6544 34.1265 43.6281 34.4742C43.5829 35.0704 43.5432 35.8107 43.5002 36.6123L43.4787 37.013C43.4276 37.9582 43.3705 38.9596 43.2947 39.8462C43.2207 40.7107 43.1232 41.5447 42.9744 42.1181C42.8032 42.7775 42.4306 43.4259 42.0336 44.0046C41.6278 44.5963 41.1378 45.1977 40.6648 45.7623C40.5318 45.921 40.4009 46.076 40.2727 46.2278C39.9322 46.6308 39.6105 47.0118 39.3191 47.3807C38.9136 47.8943 38.6323 48.3052 38.4842 48.6189C38.4535 48.684 38.4222 48.7509 38.3901 48.8193L38.3876 48.8246C38.0006 49.6507 37.5051 50.7084 36.5765 51.9009C35.568 53.1962 34.0797 54.616 31.704 56.1687C30.2833 57.0973 28.8665 57.2227 27.5853 56.6707C26.3926 56.1568 25.4714 55.1208 24.7779 54.0499C23.3834 51.8965 22.5689 49.065 22.3088 47.7286C22.0871 46.5898 22.0515 44.6516 22.0799 42.8807C22.1083 41.114 22.2041 39.3766 22.2884 38.4798C22.2855 38.0306 22.2444 37.1452 22.0994 36.2898C22.0239 35.8448 21.9261 35.4427 21.8069 35.1272C21.748 34.971 21.6902 34.8534 21.6386 34.7699C21.5894 34.6904 21.5585 34.6623 21.556 34.6601C21.1016 34.2954 20.799 33.7523 20.5888 33.3026C20.3647 32.8233 20.1692 32.2759 19.9957 31.7747C19.9619 31.6768 19.9289 31.5807 19.8965 31.4866C19.756 31.0778 19.6279 30.7052 19.4948 30.3725C19.3221 29.9411 19.1937 29.7183 19.1196 29.6326C18.9476 29.4338 18.8202 29.2788 18.7146 29.1502C18.5143 28.9065 18.3918 28.7575 18.1906 28.5841C17.9319 28.3612 17.5252 28.1007 16.5993 27.7291C16.3385 27.6244 16.2008 27.6361 16.0418 27.6801C15.8476 27.7339 15.6678 27.8213 15.3582 27.9717C15.2387 28.0297 15.0998 28.0972 14.9333 28.1758C13.7984 28.7112 12.1923 29.3128 9.28824 29.228C5.91088 29.1294 3.88644 26.418 2.74145 23.8855C1.57055 21.2957 1.09786 18.4418 1.00923 17.1612C0.895253 15.5144 1.85706 14.0762 2.76661 13.0167C3.2416 12.4635 3.75837 11.9511 4.22024 11.5038C4.3193 11.4078 4.41467 11.3159 4.50629 11.2276C4.85776 10.889 5.15422 10.6034 5.39187 10.3459C6.08411 9.59574 6.35083 9.30274 6.52221 9.01385C6.66645 8.77072 6.76111 8.49586 6.92303 7.71603C7.30938 5.85534 8.28715 4.53704 9.44161 3.61038C10.179 3.01846 11.256 2.75098 12.2044 2.60889C13.2038 2.45914 14.2893 2.41916 15.2143 2.41916C15.8425 2.41916 16.4515 2.17318 17.2779 1.80577L17.3978 1.75233ZM43.7507 33.4067L43.75 33.4094L43.7483 33.4151C43.749 33.4123 43.75 33.4094 43.75 33.4094C43.7505 33.4078 43.7507 33.4067 43.7507 33.4067ZM18.1563 3.83651C17.3898 4.17735 16.3725 4.62968 15.2143 4.62968C14.3385 4.62968 13.3777 4.66854 12.5354 4.79475C11.642 4.9286 11.0819 5.13418 10.8371 5.33068C10.0271 5.98086 9.36778 6.87015 9.0993 8.16316C8.93381 8.96017 8.78291 9.55258 8.43602 10.1373C8.13669 10.6419 7.70569 11.1083 7.14531 11.7147L7.0289 11.8407C6.74251 12.1511 6.3837 12.4966 6.02657 12.8405C5.94078 12.9231 5.85508 13.0056 5.77051 13.0875C5.31664 13.5271 4.8614 13.9806 4.45646 14.4523C3.60616 15.4427 3.17646 16.2909 3.22619 17.0094C3.30126 18.0941 3.72897 20.6804 4.76812 22.9788C5.83317 25.3345 7.32844 26.9594 9.35341 27.0185C11.8517 27.0914 13.1105 26.5892 13.981 26.1785C14.0626 26.14 14.1499 26.0973 14.2415 26.0525C14.6046 25.875 15.0358 25.6642 15.4457 25.5506C16.0694 25.3779 16.7093 25.3896 17.4308 25.6791C18.4693 26.0959 19.1268 26.4662 19.6457 26.9134C19.9979 27.2169 20.2925 27.5746 20.5529 27.8906C20.6401 27.9965 20.7235 28.0977 20.804 28.1907C21.1391 28.5781 21.379 29.1043 21.5594 29.5549C21.715 29.9436 21.8653 30.3815 22.0066 30.7927C22.0371 30.8817 22.0673 30.9694 22.0969 31.0552C22.2714 31.5591 22.4339 32.0072 22.6038 32.3705C22.6876 32.5498 22.7642 32.6887 22.8327 32.7914C22.8663 32.8418 22.8946 32.8783 22.9166 32.9038C22.9214 32.9093 22.9258 32.9142 22.9297 32.9184C22.9346 32.9236 22.9387 32.9279 22.9422 32.9312C22.9483 32.9372 22.9514 32.9397 22.9514 32.9397C23.4278 33.3221 23.7094 33.8788 23.8873 34.35C24.0751 34.8476 24.2024 35.4015 24.2906 35.9223C24.4674 36.9651 24.5107 38.0148 24.5107 38.5304V38.5838L24.5056 38.637C24.4274 39.4398 24.3302 41.1511 24.3019 42.916C24.273 44.714 24.3193 46.4288 24.4905 47.3084C24.7214 48.4949 25.4622 51.0246 26.6461 52.8528C27.2418 53.7727 27.8656 54.3825 28.4685 54.6423C28.9829 54.8639 29.6125 54.8908 30.4837 54.3213C32.6919 52.8781 33.9866 51.6172 34.8197 50.5473C35.5916 49.5559 35.994 48.6987 36.3795 47.8776L36.3799 47.8768C36.3984 47.8374 36.4169 47.798 36.4353 47.7588C36.4478 47.7323 36.4602 47.7059 36.4726 47.6796C36.7339 47.126 37.1483 46.5513 37.5715 46.0153C37.8873 45.6154 38.2443 45.1927 38.5928 44.7802L38.5933 44.7796C38.7166 44.6336 38.8388 44.489 38.9577 44.347C39.426 43.7881 39.8569 43.2562 40.198 42.7588C40.548 42.2485 40.7483 41.8523 40.8227 41.5655C40.9194 41.1928 41.0061 40.5288 41.0805 39.6588C41.153 38.8108 41.2085 37.8412 41.2597 36.8942L41.281 36.4984C41.3238 35.6999 41.365 34.9306 41.4121 34.3082C41.4395 33.9463 41.4703 33.615 41.507 33.3456C41.5254 33.2115 41.5472 33.0774 41.5745 32.9548C41.5971 32.8535 41.6406 32.6762 41.7298 32.5044C41.7931 32.3824 41.8785 32.267 41.9276 32.2017C41.9906 32.118 42.0672 32.0219 42.1519 31.9187C42.3221 31.7114 42.5471 31.4484 42.8097 31.1476C43.3362 30.5444 44.0344 29.7657 44.7937 28.9283C46.3128 27.253 48.0914 25.3267 49.2666 24.0631C49.4304 23.8853 49.5862 23.6718 49.6887 23.4679C49.7391 23.3677 49.7694 23.2841 49.7851 23.22C49.7906 23.1977 49.7938 23.1798 49.7957 23.1658C49.7902 23.1622 49.784 23.1583 49.7768 23.1541C49.6439 23.0755 49.2998 22.9485 48.5675 22.9203C46.5004 22.8406 45.0915 22.5272 44.1747 21.6441C43.7139 21.2002 43.4512 20.6825 43.2644 20.184C43.1368 19.8434 43.0234 19.4463 42.9146 19.0651C42.8751 18.9268 42.8361 18.7902 42.7973 18.6596C42.531 17.7616 42.1866 16.5007 41.8976 15.4279C41.7826 15.0011 41.6776 14.6088 41.5894 14.2791C41.4512 13.7626 41.3541 13.3998 41.324 13.2982L41.299 13.214L41.2877 13.127C41.2162 12.5764 41.0163 11.6604 40.6596 10.7818C40.2893 9.86993 39.8249 9.18499 39.3314 8.86812C39.0013 8.6561 38.433 8.44433 37.6498 8.25811C36.8889 8.07715 36.0142 7.94031 35.1349 7.83444C34.2585 7.72892 33.3974 7.65645 32.6657 7.60016C32.4976 7.58723 32.3333 7.57496 32.1757 7.5632C31.6706 7.52549 31.2341 7.4929 30.9604 7.45993C30.7833 7.43862 30.5127 7.4503 30.1126 7.50994C29.7719 7.56073 29.4016 7.6354 28.9796 7.72052L28.7761 7.76149C27.8115 7.95505 26.5993 8.18828 25.4385 8.0951C24.5369 8.02274 23.8149 7.4546 23.3016 6.94677C22.7628 6.41372 22.2546 5.74042 21.8128 5.15049L21.751 5.0679C21.3102 4.47901 20.936 3.97917 20.5819 3.61169C20.2979 3.31703 20.1461 3.23741 20.1067 3.21676C20.1004 3.21347 20.0964 3.21075 20.0964 3.21075C19.5703 3.21899 19.0265 3.44965 18.1846 3.82391L18.1563 3.83651Z" fill="white"/>
<path fill-rule="evenodd" clip-rule="evenodd" d="M50.9581 41.8134C50.9927 42.4686 50.9495 43.1372 50.8446 43.6422C50.761 44.0448 50.8052 44.5715 50.942 45.1264C51.0759 45.6694 51.2735 46.1397 51.3986 46.3806C51.6666 46.897 51.6366 47.5704 51.4636 48.2084C51.276 48.9001 50.875 49.7328 50.1595 50.6975C49.6993 51.3181 49.2095 51.8073 48.6566 52.1148C48.0724 52.4398 47.4672 52.5336 46.8682 52.4318C46.3072 52.3365 45.8125 52.0797 45.3967 51.8146C45.0149 51.5711 44.6251 51.2703 44.2593 50.988L44.1648 50.9152C43.6348 50.5068 43.2443 50.031 43.0402 49.4675C42.835 48.9009 42.8593 48.3587 42.9618 47.893C43.0601 47.4467 43.2416 47.0253 43.3926 46.6874C43.4147 46.6382 43.4361 46.5905 43.4571 46.5441L43.4795 46.4944L43.4801 46.493C43.606 46.214 43.711 45.9814 43.7947 45.7396C43.8484 45.5844 43.8541 45.4681 43.8375 45.2644C43.8349 45.2316 43.8307 45.1911 43.8259 45.1441C43.8031 44.9221 43.7655 44.5553 43.7999 44.1688C43.8918 43.1363 44.4394 41.9737 45.9611 40.1824C46.7203 39.2885 47.5372 38.6069 48.4351 38.5064C48.942 38.4496 49.41 38.5868 49.7888 38.8686C50.141 39.1306 50.3678 39.4798 50.5167 39.7953C50.8099 40.4166 50.9243 41.1722 50.9581 41.8134ZM48.4456 40.84C48.2525 40.9785 47.9907 41.218 47.6585 41.6091C46.2333 43.2868 46.0443 44.0164 46.0134 44.3637C45.9992 44.5232 46.0098 44.6314 46.0283 44.8208C46.0355 44.8944 46.0439 44.9804 46.0525 45.0863C46.082 45.4494 46.0877 45.9046 45.8959 46.4591C45.7761 46.8053 45.6212 47.1475 45.4939 47.4286L45.4561 47.5122L45.4231 47.5857C45.2723 47.923 45.1775 48.1618 45.1326 48.366C45.0919 48.5507 45.1059 48.6491 45.1309 48.7183C45.157 48.7904 45.2372 48.9453 45.5257 49.1677L45.5974 49.223C45.9893 49.525 46.302 49.7662 46.5959 49.9536C46.9066 50.1516 47.1077 50.23 47.2425 50.2529C47.3392 50.2693 47.4297 50.2646 47.572 50.1855C47.7456 50.0889 48.0129 49.8686 48.3712 49.3853C48.9654 48.584 49.2192 47.9975 49.3181 47.6327C49.3678 47.4493 49.3743 47.3424 49.3746 47.297C49.1807 46.9035 48.9468 46.3143 48.7838 45.653C48.6096 44.9465 48.49 44.0541 48.6684 43.1951C48.7272 42.9117 48.7658 42.4371 48.739 41.9294C48.7132 41.4414 48.6326 41.0364 48.5274 40.7847C48.5029 40.8002 48.4757 40.8184 48.4456 40.84Z" fill="white"/>
</svg>
