<svg width="160" height="40" viewBox="0 0 160 40" fill="none" xmlns="http://www.w3.org/2000/svg">
<path d="M42.4978 4.08698H44.2238L44.3706 4.23677L44.5173 4.08698H47.2617C50.2306 4.08698 52.0573 6.68921 52.742 11.8937V12.3342C52.742 15.0128 51.3957 17.3214 48.703 19.2598C47.6904 19.7533 46.4879 20 45.0955 20C42.8804 19.8766 41.7728 19.483 41.7728 18.8193L41.9195 17.7884V9.24152L42.0576 8.65117L41.9195 8.06082C41.9195 5.41159 42.1123 4.08698 42.4978 4.08698ZM45.0955 7.77005C45.2854 8.21061 45.3803 8.84795 45.3803 9.68208V13.8145L45.6737 14.1053H46.6835C47.7997 14.1053 48.5189 13.418 48.8411 12.0435V11.6029C48.329 8.94781 47.512 7.62026 46.3901 7.62026H46.1053L45.0955 7.77005Z" fill="black"/>
<path d="M65.5149 4.1839H66.214C66.4384 4.1839 66.6254 4.56278 66.775 5.32054C66.775 6.466 65.7048 7.03872 63.5645 7.03872L63.4264 7.1797H63.2883C63.5645 14.4636 63.7975 18.3582 63.9874 18.8633C63.9874 19.392 63.1502 19.7709 61.4759 20H57.5664C56.4502 20 55.567 19.5712 54.9169 18.7135C53.7028 18.3493 53.0958 17.5916 53.0958 16.4403L52.8197 14.2991V13.1625C53.0671 11.5471 53.5331 10.7394 54.2178 10.7394C55.5181 10.7394 56.1683 11.6881 56.1683 13.5854C56.1683 15.6766 56.9594 16.7222 58.5416 16.7222L58.6797 16.5812L59.3787 9.88474V7.89341L59.1026 7.60264C58.5387 7.89047 57.7016 8.03439 56.5911 8.03439L56.4444 7.89341V7.1797C56.64 5.37047 57.3391 4.46586 58.5416 4.46586C59.9742 4.27789 62.2987 4.1839 65.5149 4.1839Z" fill="black"/>
<path d="M72.7472 4.14866H75.7937C76.8926 4.14866 77.7643 5.23537 78.4087 7.40879C80.8252 12.578 82.0334 16.3316 82.0334 18.6695C82.229 18.6695 82.3268 18.9162 82.3268 19.4096L81.8953 20L80.152 19.8502H77.6837C77.4421 19.8502 77.1026 18.7135 76.6653 16.4403L76.5273 16.2993C76.5273 15.8058 76.09 15.5591 75.2154 15.5591C74.2834 15.2596 73.4146 15.1098 72.6091 15.1098C72.028 15.2801 71.7374 15.8734 71.7374 16.8896C71.5188 16.8896 71.2771 17.383 71.0125 18.3699C70.4313 19.345 70.043 19.8384 69.8474 19.8502H68.9757L68.3975 19.7004L67.9659 19.8502C67.1029 19.8502 66.4729 19.6035 66.0759 19.11V18.9602C66.0759 17.6268 67.9142 13.233 71.5907 5.77873C72.0682 4.77425 72.4537 4.2309 72.7472 4.14866ZM74.6372 8.73928L73.334 11.9994V12.1492C73.334 12.5134 74.1539 12.7601 75.7937 12.8893L75.9404 12.7396V12.5898L74.9306 8.73928H74.6372Z" fill="black"/>
<path d="M84.0788 4.14866H84.4844C85.9458 4.37187 87.2951 4.85943 88.5321 5.61131L90.1546 8.40446H90.2927C90.2927 6.16642 90.6523 4.79481 91.3715 4.28964C93.0803 4.28964 93.9347 4.63327 93.9347 5.32054L94.8754 16.9161V18.0879L95.0135 18.6783C94.8006 19.3656 94.2597 19.7092 93.391 19.7092H91.639C90.9198 19.7092 90.5602 19.3156 90.5602 18.5285V15.894C90.5602 15.1773 90.2006 14.6369 89.4814 14.2727C88.8255 12.7454 87.9711 11.5236 86.9182 10.6073V10.7482L87.1857 19.4096C86.7945 19.8032 86.0753 20 85.0281 20H83.8113C83 20 82.5944 19.6563 82.5944 18.9691V11.1888C83.0144 6.81257 83.5092 4.46586 84.0788 4.14866Z" fill="black"/>
<path d="M101.616 4.13985H103.342C103.917 4.13985 104.205 4.53048 104.205 5.31173L104.352 6.19285C103.955 7.26781 103.284 7.8053 102.341 7.8053L102.194 7.66432H102.047C100.223 8.90963 99.3114 9.9376 99.3114 10.7482C99.9558 13.0979 100.966 14.2727 102.341 14.2727H103.057C104.495 14.2727 105.215 13.3916 105.215 11.6293H105.068L102.91 12.8012H102.479C101.541 12.8012 101.014 12.1169 100.899 10.7482C100.899 9.5969 102.243 8.66586 104.93 7.95509H105.361C106.443 7.95509 107.594 8.8362 108.813 10.5984L109.098 11.7703V12.3607C109.098 14.9747 107.899 17.2274 105.499 19.1188C104.717 19.7063 103.808 20 102.772 20C99.9586 20 97.6083 18.4345 95.7211 15.3036C95.3357 14.6281 95.1429 14.0407 95.1429 13.5414V11.3298C95.1429 8.65704 96.5324 6.50418 99.3114 4.87117L101.616 4.13985Z" fill="black"/>
<path d="M115.735 4.13985H117.608C120.07 4.13985 121.845 6.09593 122.933 10.0081L123.217 12.5105C123.217 14.9658 122.018 17.1686 119.619 19.1188C118.836 19.7063 117.927 20 116.891 20C114.078 20 111.728 18.4345 109.84 15.3036C109.455 14.6281 109.262 14.0407 109.262 13.5414V11.3298C109.262 8.65704 110.652 6.50418 113.431 4.87117L115.735 4.13985ZM113.198 11.2681C113.807 13.4826 114.76 14.5899 116.054 14.5899H116.727C117.78 14.5899 118.459 13.9438 118.764 12.6514V12.2373C118.281 9.74082 117.513 8.49257 116.46 8.49257H116.184C115.073 8.49257 114.078 9.37075 113.198 11.1271V11.2681Z" fill="black"/>
<path d="M130.933 4.06936H131.934C132.889 4.87411 133.367 5.99607 133.367 7.43523C133.217 7.62907 132.216 8.06669 130.363 8.74809C128.833 9.62921 128.068 10.8452 128.068 12.3959C128.068 14.0759 129.739 15.3447 133.082 16.2023L133.229 16.3433V17.2244C132.504 19.0748 131.787 20 131.08 20C128.813 20 126.569 18.7811 124.348 16.3433C123.681 15.2919 123.347 14.4636 123.347 13.8586V11.6734C123.347 9.12404 124.682 6.93005 127.351 5.09145C128.519 4.41006 129.713 4.06936 130.933 4.06936Z" fill="black"/>
<path d="M139.969 4.13985H141.842C144.304 4.13985 146.079 6.09593 147.167 10.0081L147.451 12.5105C147.451 14.9658 146.252 17.1686 143.853 19.1188C143.07 19.7063 142.161 20 141.125 20C138.312 20 135.962 18.4345 134.074 15.3036C133.689 14.6281 133.496 14.0407 133.496 13.5414V11.3298C133.496 8.65704 134.886 6.50418 137.665 4.87117L139.969 4.13985ZM137.432 11.2681C138.042 13.4826 138.994 14.5899 140.288 14.5899H140.961C142.014 14.5899 142.693 13.9438 142.998 12.6514V12.2373C142.515 9.74082 141.747 8.49257 140.694 8.49257H140.418C139.307 8.49257 138.312 9.37075 137.432 11.1271V11.2681Z" fill="black"/>
<path d="M149.065 4.14866H149.471C150.932 4.37187 152.282 4.85943 153.519 5.61131L155.141 8.40446H155.279C155.279 6.16642 155.639 4.79481 156.358 4.28964C158.067 4.28964 158.921 4.63327 158.921 5.32054L159.862 16.9161V18.0879L160 18.6783C159.787 19.3656 159.246 19.7092 158.378 19.7092H156.626C155.906 19.7092 155.547 19.3156 155.547 18.5285V15.894C155.547 15.1773 155.187 14.6369 154.468 14.2727C153.812 12.7454 152.958 11.5236 151.905 10.6073V10.7482L152.172 19.4096C151.781 19.8032 151.062 20 150.015 20H148.798C147.987 20 147.581 19.6563 147.581 18.9691V11.1888C148.001 6.81257 148.496 4.46586 149.065 4.14866Z" fill="black"/>
<path d="M48.5081 23.3543H51.5838C52.6933 23.3543 53.5733 24.3771 54.2239 26.4227C56.6636 31.2879 57.8834 34.8206 57.8834 37.021C58.0809 37.021 58.1796 37.2532 58.1796 37.7176L57.744 38.2732L55.9839 38.1322H53.492C53.248 38.1322 52.9053 37.0625 52.4638 34.9229L52.3244 34.7902C52.3244 34.3258 51.8829 34.0936 51 34.0936C50.059 33.8116 49.1819 33.6707 48.3687 33.6707C47.782 33.831 47.4886 34.3894 47.4886 35.3458C47.2679 35.3458 47.0239 35.8102 46.7567 36.739C46.1701 37.6568 45.778 38.1212 45.5805 38.1322H44.7004L44.1167 37.9913L43.681 38.1322C42.8097 38.1322 42.1736 37.9 41.7728 37.4356V37.2947C41.7728 36.0397 43.6287 31.9043 47.3405 24.8885C47.8226 23.9431 48.2118 23.4317 48.5081 23.3543ZM50.4162 27.6749L49.1006 30.7433V30.8843C49.1006 31.227 49.9283 31.4592 51.5838 31.5809L51.7319 31.4399V31.2989L50.7125 27.6749H50.4162Z" fill="black"/>
<path d="M67.7118 23.4373H68.4437L68.8881 23.7192C68.7661 25.3999 68.4727 26.2403 68.008 26.2403C64.9701 26.4946 63.4511 26.8678 63.4511 27.3598V27.6418L63.5992 27.7827L63.4511 28.4793V29.3169L63.8867 29.4579C64.3282 29.2699 64.9672 29.1759 65.8036 29.1759H66.9799L67.4155 29.5989V30.7184C67.4155 31.4648 66.5355 31.8379 64.7755 31.8379C63.8925 31.8379 63.4511 32.1641 63.4511 32.8165V35.7522L63.303 37.2947L63.4511 37.9913L63.0067 38.2732H62.4229C59.7741 37.8143 58.4497 36.927 58.4497 35.6112V35.4785C58.4497 30.0826 59.0858 26.3038 60.3579 24.1422C62.5362 23.6722 64.9875 23.4373 67.7118 23.4373Z" fill="black"/>
<path d="M69.6984 23.3875H74.3338C77.3253 24.167 78.821 25.5906 78.821 27.6583C78.821 29.0515 78.002 30.2927 76.3639 31.3818V31.6555C77.8452 32.7889 79.2915 34.3977 80.7031 36.482V36.6229C79.2567 37.5352 78.0978 38.0383 77.2265 38.1322L73.3231 32.7585L72.8874 32.6258L73.0268 32.7585L72.8874 33.4468V33.5877L73.3231 37.4439C73.3231 37.9028 73.0326 38.1322 72.4517 38.1322V38.2732C70.134 38.1848 68.9752 37.8171 68.9752 37.1703L69.1233 36.2083V28.214L69.2627 27.6583L69.1233 27.111C69.1233 24.6287 69.315 23.3875 69.6984 23.3875ZM72.4517 26.6964L72.5999 29.3169L72.7393 29.4496H72.8874C73.9794 28.9907 74.7985 28.3024 75.3445 27.3847V27.2437C74.8043 26.326 74.1305 25.8671 73.3231 25.8671H72.8874C72.6957 25.8671 72.5505 26.1435 72.4517 26.6964Z" fill="black"/>
<path d="M81.313 23.3875H83.3606C84.5281 23.3875 85.1119 24.2223 85.1119 25.892L86.4276 37.7176V37.8586C86.3346 38.135 86.0442 38.2732 85.5563 38.2732H84.6762C83.1834 38.2732 81.9171 37.7618 80.8773 36.739V23.8022L81.313 23.3875Z" fill="black"/>
<path d="M94.374 23.2797H95.3847C96.3489 24.0371 96.8311 25.0931 96.8311 26.4476C96.68 26.63 95.6693 27.0419 93.7989 27.6832C92.2538 28.5125 91.4812 29.6569 91.4812 31.1165C91.4812 32.6976 93.1686 33.8918 96.5435 34.699L96.6917 34.8317V35.661C95.9597 37.4025 95.2366 38.2732 94.5221 38.2732C92.2334 38.2732 89.968 37.126 87.7258 34.8317C87.052 33.8421 86.7151 33.0625 86.7151 32.4931V30.4365C86.7151 28.037 88.0628 25.9721 90.758 24.2417C91.9372 23.6004 93.1425 23.2797 94.374 23.2797Z" fill="black"/>
<path d="M103.697 23.3543H106.773C107.882 23.3543 108.762 24.3771 109.413 26.4227C111.852 31.2879 113.072 34.8206 113.072 37.021C113.27 37.021 113.369 37.2532 113.369 37.7176L112.933 38.2732L111.173 38.1322H108.681C108.437 38.1322 108.094 37.0625 107.653 34.9229L107.513 34.7902C107.513 34.3258 107.072 34.0936 106.189 34.0936C105.248 33.8116 104.371 33.6707 103.558 33.6707C102.971 33.831 102.678 34.3894 102.678 35.3458C102.457 35.3458 102.213 35.8102 101.946 36.739C101.359 37.6568 100.967 38.1212 100.769 38.1322H99.8894L99.3056 37.9913L98.8699 38.1322C97.9986 38.1322 97.3626 37.9 96.9617 37.4356V37.2947C96.9617 36.0397 98.8176 31.9043 102.529 24.8885C103.012 23.9431 103.401 23.4317 103.697 23.3543ZM105.605 27.6749L104.289 30.7433V30.8843C104.289 31.227 105.117 31.4592 106.773 31.5809L106.921 31.4399V31.2989L105.901 27.6749H105.605Z" fill="black"/>
<path fill-rule="evenodd" clip-rule="evenodd" d="M21.1263 12.704C20.963 12.4769 20.7289 12.4784 20.5999 12.4791L20.5795 12.4792C20.5391 12.4792 20.4995 12.4814 20.4662 12.4833L20.464 12.4834C20.4282 12.4854 20.3995 12.487 20.372 12.487C20.3557 12.487 20.3465 12.4864 20.334 12.4856C20.3223 12.4849 20.3075 12.484 20.2813 12.4832C20.2428 12.4821 20.1874 12.4823 20.1288 12.4972C20.1204 12.4993 20.1068 12.5013 20.0805 12.5034L20.064 12.5045C20.0424 12.506 20.0125 12.5081 19.9865 12.5114C19.8977 12.5227 19.8249 12.5776 19.8046 12.5929L19.8006 12.5959C19.7376 12.6411 19.6909 12.6936 19.6557 12.7364C19.6393 12.7564 19.6269 12.7721 19.616 12.7859C19.5996 12.8068 19.5864 12.8235 19.5682 12.8436C19.4026 13.0267 19.2884 13.2419 19.225 13.5033C19.1958 13.6237 19.2066 13.7341 19.2181 13.8166C19.2222 13.8456 19.226 13.87 19.2294 13.8915C19.237 13.9403 19.2424 13.9746 19.243 14.0144C19.2432 14.034 19.2434 14.0547 19.2435 14.0762L19.2435 14.0773C19.2444 14.2208 19.2456 14.4027 19.2946 14.5737C19.3184 14.6572 19.3687 14.7135 19.3923 14.7394L19.4009 14.7488L19.4081 14.7564L19.41 14.7585C19.4152 14.764 19.4186 14.7678 19.4216 14.7711L19.4255 14.7757C19.4669 14.8433 19.5202 14.9123 19.562 14.9665C19.5758 14.9844 19.5884 15.0008 19.5989 15.0148C19.6395 15.0694 19.6861 15.1036 19.7121 15.1224L19.7249 15.1316C19.732 15.1367 19.7365 15.1399 19.7417 15.1439L19.7466 15.1478C19.7483 15.1493 19.749 15.15 19.749 15.15C19.7949 15.1991 19.8474 15.2197 19.8738 15.2287C19.8882 15.2337 19.9014 15.2373 19.9089 15.2393L19.9182 15.2418L19.9201 15.2424L19.9206 15.2425L19.9427 15.2497C20.0053 15.2702 20.1038 15.3025 20.2073 15.3025C20.3507 15.3025 20.5602 15.2975 20.7416 15.2235C20.7851 15.2057 20.8278 15.1871 20.8709 15.1672C20.895 15.1561 20.9151 15.1433 20.9297 15.1331C20.9438 15.1234 20.9568 15.1133 20.965 15.1069L20.9655 15.1065C20.9741 15.0998 20.9783 15.0965 20.9815 15.0942C21.0367 15.0673 21.0755 15.0299 21.0979 15.007C21.1145 14.9899 21.1221 14.9816 21.127 14.9762C21.1319 14.9709 21.1341 14.9684 21.1398 14.9634C21.208 14.9035 21.2702 14.8224 21.3139 14.7436C21.3218 14.7292 21.3269 14.7216 21.3343 14.7105C21.3415 14.6997 21.3509 14.6855 21.3674 14.6584C21.3902 14.6211 21.4227 14.5632 21.4395 14.4923L21.4429 14.4835L21.4435 14.4819C21.4457 14.4765 21.4491 14.4676 21.4524 14.4585C21.4562 14.4479 21.4608 14.434 21.4649 14.418C21.4733 14.3849 21.4788 14.3528 21.4828 14.328L21.4858 14.309C21.4886 14.2915 21.4907 14.2784 21.4934 14.2648C21.5004 14.2291 21.5029 14.1923 21.5042 14.1734L21.5046 14.1666L21.5056 14.1545L21.5062 14.149L21.5066 14.1464C21.5248 14.0861 21.5377 14.011 21.5377 13.9412L21.5377 13.6809C21.5378 13.5924 21.5378 13.4842 21.5005 13.3623C21.4641 13.2436 21.4135 13.1305 21.3636 13.0318L21.3624 13.0295C21.3526 13.01 21.327 12.9593 21.2856 12.9155C21.2473 12.8652 21.1486 12.7351 21.1263 12.704ZM20.5795 12.9244C20.6575 12.9244 20.6977 12.9251 20.7309 12.9337C20.7526 12.9393 20.7669 12.9471 20.7839 12.9708C20.813 13.0113 20.9329 13.1692 20.96 13.2046L20.9732 13.2218L20.9783 13.2263L20.979 13.2275C20.9808 13.2307 20.9828 13.2346 20.9852 13.2394C21.0286 13.3251 21.0671 13.4129 21.093 13.4976C21.1087 13.5486 21.11 13.5933 21.11 13.69V13.7515C21.0709 13.7007 21.0106 13.6681 20.9431 13.6681H20.1865C20.0684 13.6681 19.9727 13.7678 19.9727 13.8907C19.9727 14.0137 20.0684 14.1133 20.1865 14.1133H20.9431C20.9991 14.1133 21.05 14.091 21.0881 14.0544C21.0816 14.0869 21.0795 14.1151 21.0782 14.1323L21.0774 14.1432C21.0758 14.1654 21.0754 14.1703 21.0744 14.1754C21.0699 14.1981 21.0661 14.2224 21.0631 14.2412L21.061 14.254C21.0595 14.2635 21.0581 14.2717 21.0568 14.2789C21.0551 14.2881 21.0535 14.2957 21.0519 14.3024L21.0469 14.3152L21.0462 14.317C21.0416 14.3288 21.0311 14.3555 21.0242 14.3862C21.0242 14.3862 21.0214 14.3951 21.0063 14.4199C21.0001 14.43 20.9939 14.4396 20.9861 14.4517L20.979 14.4627C20.9688 14.4785 20.9556 14.4991 20.9434 14.5211C20.9211 14.5613 20.8895 14.6007 20.8639 14.6232C20.8469 14.6381 20.8325 14.653 20.8223 14.6638L20.8046 14.6827L20.7983 14.6892L20.7945 14.693L20.7929 14.6945C20.7722 14.7048 20.7551 14.7161 20.743 14.7246C20.7306 14.7334 20.7187 14.7427 20.7111 14.7486L20.7093 14.75C20.7006 14.7567 20.6964 14.76 20.6932 14.7622C20.657 14.7788 20.6215 14.7943 20.5855 14.809C20.4877 14.8489 20.3531 14.8573 20.2073 14.8573C20.1731 14.8573 20.1398 14.8467 20.0647 14.8228L20.0452 14.8166C20.0386 14.8145 20.0325 14.8128 20.028 14.8115L20.0262 14.8111C20.0008 14.7884 19.9762 14.771 19.9624 14.7612L19.9562 14.7568C19.9424 14.7468 19.9376 14.7425 19.9365 14.7415C19.9162 14.7142 19.8977 14.6902 19.8806 14.6681C19.8436 14.6202 19.8131 14.5807 19.7853 14.5349C19.7678 14.506 19.7484 14.4832 19.735 14.4681C19.7281 14.4603 19.7213 14.4531 19.7161 14.4476L19.7142 14.4456L19.7028 14.4332L19.7 14.4301C19.674 14.3292 19.6729 14.2216 19.6715 14.0809C19.6712 14.0575 19.671 14.0328 19.6706 14.0075C19.6695 13.9321 19.6568 13.8516 19.6477 13.7938C19.6452 13.7783 19.643 13.7642 19.6414 13.7525C19.632 13.6852 19.6316 13.6456 19.6397 13.6122C19.6857 13.4227 19.765 13.2754 19.8796 13.1488C19.9068 13.1187 19.9366 13.0811 19.9588 13.0532L19.9679 13.0417L19.9744 13.0336L19.9807 13.0259C20.0073 12.9935 20.0256 12.9752 20.0431 12.9626L20.0538 12.955L20.0591 12.9512L20.0712 12.9503L20.0998 12.9483L20.1123 12.9474C20.1429 12.945 20.1858 12.941 20.2302 12.9297C20.2324 12.9291 20.2421 12.9274 20.2692 12.9282C20.2757 12.9284 20.2821 12.9287 20.289 12.929L20.3136 12.9303C20.3302 12.9312 20.3507 12.9322 20.372 12.9322C20.4119 12.9322 20.4512 12.93 20.4843 12.9281L20.4869 12.928C20.5225 12.926 20.5516 12.9244 20.5795 12.9244Z" fill="black"/>
<path d="M22.0854 14.2246H22.8469V13.5568H22.0854V14.2246Z" fill="black"/>
<path fill-rule="evenodd" clip-rule="evenodd" d="M22.2697 11.2499C21.9134 10.8922 21.4352 10.893 21.0455 10.8937L20.9944 10.8938C20.8862 10.8938 20.778 10.8982 20.675 10.9023L20.674 10.9024C20.5692 10.9066 20.4697 10.9106 20.3721 10.9106C20.3185 10.9106 20.2699 10.9087 20.2169 10.9066C20.1771 10.905 20.1348 10.9033 20.0861 10.9023C19.9838 10.9001 19.8694 10.9018 19.7573 10.9224C19.6916 10.9344 19.6175 10.9404 19.5337 10.9451L19.4996 10.947L19.4686 10.9485C19.4057 10.9517 19.3375 10.9551 19.2743 10.9609C19.1395 10.9732 19.021 11.0354 18.9453 11.0751L18.9264 11.0849C18.7836 11.1588 18.6712 11.2482 18.5726 11.3349C18.5346 11.3683 18.5009 11.399 18.4687 11.4285C18.412 11.4802 18.3599 11.5277 18.2975 11.5776C17.849 11.9358 17.5307 12.3626 17.3512 12.8976C17.2758 13.1221 17.3021 13.3335 17.3356 13.5064C17.346 13.5602 17.3565 13.6087 17.3662 13.6537C17.3907 13.7666 17.4105 13.8579 17.4125 13.9576C17.4135 14.0032 17.4139 14.0504 17.4144 14.0987C17.4175 14.4121 17.4211 14.7772 17.5568 15.1194C17.6067 15.2452 17.7089 15.3289 17.7689 15.3766C17.7919 15.3948 17.8112 15.4097 17.8276 15.4224C17.8682 15.4538 17.8912 15.4715 17.9088 15.4925C18.0216 15.6265 18.1621 15.7581 18.2869 15.875C18.332 15.9172 18.3751 15.9575 18.414 15.9953C18.4965 16.0754 18.5912 16.1266 18.6625 16.1639L18.6909 16.1787C18.7547 16.2118 18.7977 16.2342 18.8352 16.2631C18.9021 16.3148 18.979 16.3376 19.0289 16.35C19.0562 16.3567 19.0828 16.362 19.1044 16.3663L19.1283 16.3709L19.1436 16.374L19.1503 16.3754L19.1586 16.3772L19.2055 16.3881L19.2326 16.3944C19.4276 16.44 19.6477 16.4915 19.8778 16.4915C20.3102 16.4915 20.8541 16.478 21.3049 16.3451C21.4287 16.3086 21.5506 16.2703 21.6739 16.2292C21.7492 16.2041 21.8179 16.1654 21.8668 16.1379L21.8699 16.1362C21.9267 16.1042 21.9582 16.0871 21.9851 16.0781C22.0849 16.0448 22.1627 15.9934 22.2239 15.9483C22.2507 15.9285 22.2717 15.9122 22.29 15.898C22.3196 15.875 22.3426 15.8572 22.3729 15.838C22.5352 15.735 22.6948 15.5869 22.809 15.4382C22.8282 15.4131 22.8522 15.3855 22.8821 15.352L22.899 15.3332C22.9235 15.3059 22.951 15.2751 22.9771 15.2442C23.0394 15.1705 23.118 15.068 23.1565 14.9446L23.1576 14.9417C23.1576 14.9417 23.1583 14.9401 23.1588 14.9391C23.1594 14.9378 23.1601 14.9362 23.1609 14.9345C23.1647 14.9267 23.1694 14.9178 23.1769 14.904L23.1799 14.8985C23.1928 14.8747 23.2154 14.8334 23.2313 14.7881C23.2532 14.7255 23.268 14.6633 23.2799 14.6103L23.2884 14.572C23.297 14.533 23.3043 14.5 23.3134 14.4667C23.3308 14.4028 23.3371 14.3366 23.3412 14.2941L23.3429 14.2766C23.3479 14.2274 23.3525 14.2073 23.3582 14.1938C23.4064 14.0801 23.4415 13.9349 23.4415 13.8018L23.4415 13.2446C23.4416 13.0492 23.4416 12.8392 23.3419 12.6041C23.2398 12.3633 23.0965 12.1312 22.9519 11.9251C22.9154 11.8729 22.8465 11.777 22.7492 11.7152C22.7297 11.7028 22.7092 11.6923 22.6963 11.6857L22.6859 11.6804C22.6758 11.6752 22.6683 11.6714 22.6606 11.6672L22.6572 11.6652C22.6387 11.641 22.6192 11.6219 22.6048 11.6088C22.5842 11.5899 22.5625 11.5729 22.545 11.5596C22.536 11.5528 22.527 11.546 22.5191 11.5402C22.511 11.5341 22.5038 11.5288 22.4973 11.5238C22.4831 11.513 22.4767 11.5076 22.4744 11.5054C22.4505 11.4828 22.4296 11.455 22.397 11.4089L22.391 11.4004C22.362 11.3593 22.3216 11.3021 22.2697 11.2499ZM21.9728 11.5703C21.7477 11.3444 21.4395 11.339 20.9944 11.339C20.8955 11.339 20.7953 11.343 20.6905 11.3472L20.6876 11.3474C20.5852 11.3515 20.4783 11.3558 20.3721 11.3558C20.3151 11.3558 20.248 11.3533 20.1856 11.3509C20.1466 11.3495 20.1093 11.3481 20.0774 11.3474C19.983 11.3454 19.9019 11.3479 19.8316 11.3608C19.739 11.3778 19.6434 11.3849 19.5566 11.3897C19.5301 11.3912 19.5047 11.3925 19.4802 11.3937C19.4205 11.3967 19.3659 11.3994 19.3119 11.4044C19.2626 11.4089 19.2138 11.4334 19.1168 11.4836C19.0178 11.5348 18.9353 11.5988 18.8485 11.6751C18.823 11.6975 18.7951 11.7228 18.7656 11.7497C18.7021 11.8076 18.6304 11.8729 18.5578 11.9308C18.1659 12.2438 17.9033 12.6023 17.755 13.0444C17.7186 13.1529 17.7255 13.2666 17.7549 13.4184C17.7608 13.4492 17.7682 13.4833 17.7762 13.52C17.8034 13.645 17.8371 13.7995 17.8401 13.948C17.8412 14.0013 17.8419 14.0532 17.8426 14.1038C17.8468 14.4225 17.8503 14.6926 17.952 14.9492C17.952 14.9492 17.9557 14.9561 17.9669 14.9682C17.9807 14.9831 18.0001 15.0002 18.0282 15.0225L18.0367 15.0292L18.0601 15.0473L18.0611 15.0481C18.082 15.0642 18.1065 15.0832 18.1222 15.0959C18.1553 15.1227 18.1953 15.1573 18.2306 15.1992C18.3254 15.3118 18.4358 15.4152 18.5536 15.5256L18.5541 15.526C18.6035 15.5722 18.6543 15.6199 18.7057 15.6698C18.7391 15.7021 18.7841 15.7293 18.8544 15.766L18.8792 15.7788C18.939 15.8096 19.0186 15.8507 19.0884 15.9042L19.0894 15.9046C19.0926 15.906 19.1038 15.9109 19.1282 15.9169C19.1443 15.9209 19.162 15.9245 19.1831 15.9287L19.1916 15.9303C19.2093 15.9337 19.231 15.9379 19.2506 15.9424L19.326 15.9599C19.5265 16.0064 19.6982 16.0463 19.8778 16.0463C20.313 16.0463 20.8016 16.0307 21.1884 15.9167C21.3074 15.8817 21.4246 15.8448 21.5435 15.8052C21.5765 15.7942 21.6123 15.775 21.6666 15.7445L21.6753 15.7396C21.7215 15.7135 21.7865 15.6768 21.8546 15.6541C21.8937 15.6411 21.9301 15.6194 21.9766 15.585C21.987 15.5774 21.9999 15.5675 22.0145 15.5562C22.0531 15.5264 22.1036 15.4874 22.1502 15.4579C22.2691 15.3824 22.3912 15.2692 22.4748 15.1603C22.505 15.1209 22.5387 15.0827 22.5689 15.0489L22.5884 15.0271C22.6124 15.0003 22.6345 14.9757 22.6559 14.9503C22.7124 14.8834 22.7399 14.8386 22.7497 14.8072C22.7653 14.7571 22.7894 14.7128 22.8029 14.6879L22.8046 14.6849C22.8217 14.6533 22.8268 14.6431 22.8295 14.6355C22.8421 14.5994 22.8522 14.559 22.8635 14.509L22.8701 14.479C22.8791 14.4382 22.8896 14.3906 22.9019 14.3452C22.9083 14.322 22.9106 14.2991 22.9151 14.2542L22.9176 14.2293C22.923 14.1765 22.9322 14.0959 22.967 14.0139C22.9954 13.9468 23.0138 13.8628 23.0138 13.8018V13.2575C23.0138 13.0517 23.0115 12.9274 22.9507 12.784C22.8659 12.584 22.742 12.3808 22.6065 12.1875C22.5895 12.1634 22.5741 12.1427 22.5588 12.1254C22.5432 12.1078 22.5323 12.099 22.5265 12.0953L22.525 12.0944L22.5218 12.0926L22.5163 12.0897L22.5076 12.0852L22.5011 12.0819C22.4902 12.0764 22.4751 12.0687 22.4609 12.0609C22.4433 12.0512 22.4199 12.0375 22.3966 12.0198C22.3763 12.0044 22.3472 11.9793 22.3225 11.9432C22.3164 11.9377 22.3071 11.93 22.2927 11.919L22.2817 11.9108L22.2703 11.9023L22.2696 11.9017L22.2562 11.8917L22.245 11.8833C22.2287 11.8709 22.207 11.854 22.1871 11.8352C22.1278 11.7792 22.0842 11.7176 22.0531 11.6736L22.0526 11.6729C22.0181 11.6241 21.9974 11.5951 21.9728 11.5703Z" fill="black"/>
<path fill-rule="evenodd" clip-rule="evenodd" d="M23.9772 6.89234L23.9771 6.89118C23.9764 6.88259 23.9726 6.83449 23.9594 6.79061L23.9591 6.78948C23.9543 6.77327 23.9322 6.69917 23.8621 6.64304C23.8162 6.60628 23.7503 6.57808 23.6723 6.58301C23.6012 6.58752 23.5495 6.61787 23.5206 6.63963C23.5142 6.64446 23.5086 6.64898 23.5039 6.6528L23.4945 6.66068C23.4287 6.68718 23.3669 6.71647 23.313 6.74203L23.3096 6.74363C23.2456 6.77398 23.192 6.79926 23.1376 6.82023C23.0579 6.85093 22.9867 6.89404 22.9305 6.93056C22.8941 6.95425 22.8716 6.96976 22.8516 6.98352C22.8304 6.99804 22.8119 7.01079 22.783 7.02908C22.6651 7.10374 22.5278 7.19769 22.4122 7.3242C22.3036 7.4431 22.2072 7.56402 22.1141 7.68313C22.095 7.70757 22.0772 7.7332 22.0605 7.75941C21.7641 7.68711 21.4661 7.63154 21.1586 7.63154C20.2622 7.63154 19.2005 7.66515 18.3232 7.94322C18.2994 7.91494 18.2766 7.89419 18.2638 7.8825L18.2619 7.88078C18.2526 7.87223 18.2478 7.86766 18.2456 7.8656L18.2446 7.86466C18.1869 7.78703 18.1055 7.71645 18.0569 7.67425C18.0457 7.66455 18.0362 7.65634 18.0292 7.6499C17.9431 7.57113 17.8169 7.45796 17.6876 7.35757C17.623 7.30739 17.5543 7.25772 17.4868 7.21629C17.4228 7.17698 17.3446 7.13537 17.2634 7.11399C17.2151 7.10129 17.1646 7.09858 17.1331 7.09761C17.0964 7.09649 17.0587 7.09728 17.0267 7.09855C16.9941 7.09985 16.9644 7.10178 16.943 7.10336L16.9308 7.10429L16.9171 7.10542L16.9095 7.10608L16.9073 7.10628L16.9062 7.10638L16.8265 7.11387L16.7644 7.16403C16.7063 7.2109 16.6695 7.2692 16.6462 7.31423C16.6215 7.36183 16.6028 7.41285 16.5881 7.46122C16.5587 7.55791 16.5389 7.6672 16.5256 7.76835C16.5122 7.87079 16.5045 7.9727 16.5017 8.05781C16.4992 8.13273 16.4993 8.22196 16.5117 8.28366C16.5373 8.41064 16.5724 8.55931 16.6392 8.70266C16.5195 8.77581 16.4154 8.86829 16.3117 8.96047C16.2361 9.02762 16.1607 9.09463 16.0796 9.1539C15.78 9.37267 15.4799 9.69292 15.2692 10.0088C15.2059 10.1036 15.1302 10.2008 15.0524 10.3006C15.0052 10.3611 14.9572 10.4228 14.9108 10.4854C14.8572 10.4701 14.7844 10.4599 14.6742 10.4599H14.4158C14.2393 10.4686 14.065 10.4791 13.8586 10.537L13.8421 10.5416C13.7796 10.559 13.707 10.5793 13.6338 10.6062C13.5976 10.6195 13.5609 10.6373 13.5393 10.6477L13.53 10.6523L13.524 10.6551L13.5131 10.6601L13.5086 10.6621L13.5034 10.6643C13.4981 10.6665 13.4961 10.6671 13.4961 10.6671L13.495 10.6673C13.4866 10.6694 13.4395 10.681 13.3982 10.7011L13.3971 10.7016C13.3818 10.709 13.3119 10.7427 13.2676 10.8206C13.2387 10.8717 13.2215 10.941 13.2391 11.0167C13.2551 11.0858 13.2937 11.1315 13.3199 11.1564C13.3258 11.1619 13.3312 11.1667 13.3357 11.1706L13.3451 11.1786C13.3821 11.2389 13.4212 11.2947 13.4554 11.3434L13.4575 11.3465C13.498 11.4044 13.5319 11.4528 13.5615 11.5028C13.605 11.576 13.6593 11.6389 13.7047 11.6881C13.7342 11.72 13.7533 11.7396 13.7703 11.7571C13.7881 11.7754 13.8036 11.7914 13.8265 11.8168C13.9198 11.9203 14.0353 12.0398 14.1797 12.1326C14.2124 12.1536 14.2452 12.174 14.2779 12.1938L14.2768 12.1986C14.2517 12.3045 14.2425 12.4128 14.2333 12.5205C14.2211 12.6637 14.209 12.8057 14.1598 12.9392C14.0781 13.1608 14.0211 13.4419 14.0211 13.6798V15.0142C14.0211 15.271 14.0211 15.506 14.0451 15.7381C13.961 15.8088 13.8888 15.885 13.8265 15.9542C13.8037 15.9795 13.7882 15.9954 13.7704 16.0138C13.7534 16.0312 13.7342 16.051 13.7047 16.0829C13.6593 16.132 13.605 16.1949 13.5615 16.2681C13.5319 16.3181 13.498 16.3666 13.4575 16.4245L13.4553 16.4276C13.4214 16.476 13.3826 16.5314 13.3458 16.5913C13.3153 16.6127 13.2804 16.6466 13.2569 16.6988C13.2163 16.7889 13.237 16.871 13.2573 16.9157C13.2875 16.9818 13.3382 17.0173 13.3431 17.0207C13.3572 17.0311 13.3698 17.0383 13.3762 17.0418C13.3993 17.0545 13.4262 17.0655 13.442 17.0718C13.481 17.0875 13.5345 17.1069 13.5853 17.1248C13.6373 17.1432 13.6904 17.1614 13.7303 17.1749L13.779 17.1914L13.7929 17.196L13.8065 17.2006L13.8152 17.2028C13.8443 17.2104 13.9002 17.2195 13.9455 17.2268C13.9784 17.2321 14.0166 17.2381 14.0562 17.2443L14.0596 17.2448L14.0615 17.2451L14.1297 17.2559C14.1951 17.2662 14.2585 17.2764 14.3086 17.2852C14.3337 17.2896 14.3537 17.2933 14.3681 17.2962L14.3775 17.2983L14.4061 17.3087L14.4465 17.3107C14.4997 17.3134 14.5534 17.3121 14.6061 17.3079C14.7233 17.531 14.8487 17.749 14.9767 17.9589C15.0556 18.0884 15.156 18.2403 15.2778 18.3292C15.3039 18.3483 15.3369 18.3676 15.3718 18.388C15.4527 18.4354 15.5438 18.4888 15.5812 18.5578C15.6203 18.63 15.7111 18.7077 15.7968 18.7811C15.8477 18.8247 15.8968 18.8668 15.9322 18.9053C16.025 19.006 16.096 19.1215 16.1669 19.237C16.2319 19.3428 16.2968 19.4485 16.3786 19.543C16.6913 19.9043 17.0598 20.0844 17.4603 20.1741C17.4589 20.3031 17.4757 20.4257 17.4934 20.5319C17.499 20.5654 17.5018 20.5875 17.5051 20.6127C17.5081 20.6368 17.5116 20.6641 17.5182 20.707C17.5284 20.7729 17.5437 20.8545 17.574 20.934C17.5946 20.9883 17.6115 21.0448 17.6315 21.1125L17.6326 21.1161C17.6495 21.173 17.6688 21.2383 17.6929 21.3048L17.693 21.3088L17.6933 21.317L17.6939 21.3285L17.6946 21.3382C17.6977 21.3741 17.7094 21.4326 17.7536 21.4883C17.8019 21.5493 17.8671 21.5793 17.9252 21.5887C18.014 21.6031 18.0842 21.57 18.0996 21.5627L18.1006 21.5622C18.1422 21.5427 18.1807 21.5135 18.1877 21.5082L18.1886 21.5074C18.1886 21.5074 18.1889 21.5072 18.1908 21.5061L18.1953 21.5036C18.2013 21.5002 18.2092 21.4963 18.2214 21.4905L18.2308 21.486C18.2525 21.4758 18.2894 21.4585 18.3225 21.4387C18.3893 21.3987 18.4507 21.355 18.5034 21.3174L18.5174 21.3075C18.6918 21.1835 18.8267 21.0322 18.9439 20.9007L18.9453 20.8992C19.1311 20.6908 19.2332 20.4198 19.2632 20.3137C19.2641 20.312 19.2668 20.3061 19.2737 20.2926L19.2748 20.2903C19.2796 20.2808 19.2867 20.2668 19.2943 20.2493L19.3846 20.2452L19.4468 20.2424C19.6678 20.2321 19.888 20.2219 20.1055 20.2219C20.2231 20.2219 20.3449 20.2273 20.4682 20.2327C20.7612 20.2457 21.0628 20.259 21.3363 20.2013C21.5519 20.1558 21.787 20.1423 22.0188 20.1289C22.1498 20.1214 22.2799 20.1139 22.4045 20.1007C22.4271 20.0984 22.4495 20.0948 22.4716 20.0903C22.573 20.187 22.6848 20.2626 22.783 20.3249C22.8119 20.3432 22.8303 20.3558 22.8514 20.3703C22.8715 20.3841 22.894 20.3996 22.9305 20.4234C22.9867 20.4599 23.0579 20.503 23.1376 20.5337C23.192 20.5547 23.2456 20.5799 23.3096 20.6103L23.313 20.6119C23.3669 20.6375 23.4287 20.6667 23.4945 20.6933L23.5039 20.7011C23.5086 20.705 23.5142 20.7095 23.5206 20.7143C23.5495 20.7361 23.6012 20.7664 23.6723 20.7709C23.7503 20.7759 23.8162 20.7477 23.8621 20.7109C23.9322 20.6548 23.9543 20.5807 23.9591 20.5644L23.9594 20.5633C23.9726 20.5194 23.9764 20.4713 23.9771 20.4628L23.9772 20.4616C23.9772 20.4616 23.9772 20.4606 23.9787 20.4541C23.9797 20.45 23.9809 20.4452 23.9826 20.4391L23.9864 20.426L23.9893 20.416C23.9962 20.3932 24.0079 20.3542 24.0151 20.3166C24.0298 20.2405 24.0381 20.1661 24.0452 20.102L24.0471 20.0847C24.0708 19.8727 24.0477 19.6718 24.0276 19.4971L24.0274 19.4952C24.0127 19.3674 23.9616 19.2383 23.93 19.1585L23.9252 19.1462C23.9244 19.1442 23.9236 19.1421 23.9227 19.1399C23.9216 19.1369 23.9204 19.1337 23.9191 19.1303L23.9123 19.1117C23.9064 19.0955 23.8994 19.0763 23.8914 19.0554C24.0055 18.936 24.122 18.8158 24.2485 18.6995C24.7553 18.2338 25.1735 17.7233 25.5044 17.1508C25.6314 17.2052 25.762 17.2591 25.9006 17.3068C26.0631 17.3626 26.2289 17.3795 26.3683 17.3887C26.4025 17.3909 26.4247 17.3933 26.4502 17.3959C26.4745 17.3984 26.5018 17.4013 26.5453 17.4047C26.6121 17.4099 26.6955 17.4137 26.7802 17.4026C26.838 17.3951 26.8972 17.3917 26.9681 17.3877L26.9718 17.3875C27.0314 17.3842 27.0997 17.3804 27.1703 17.3722L27.1823 17.3747L27.1916 17.3764L27.1959 17.3771L27.2033 17.3782C27.2392 17.3835 27.2992 17.3855 27.3638 17.3555C27.4345 17.3226 27.4788 17.2664 27.5013 17.2122C27.5357 17.1295 27.5193 17.054 27.5157 17.0375L27.5155 17.0363C27.5059 16.9916 27.4861 16.9476 27.4825 16.9397L27.482 16.9386C27.482 16.9386 27.4815 16.9377 27.4797 16.9313C27.4786 16.9272 27.4774 16.9225 27.4759 16.9165L27.4729 16.903L27.4707 16.8928C27.4656 16.8695 27.4571 16.8296 27.4453 16.7933C27.4215 16.7194 27.3927 16.65 27.368 16.5903L27.3615 16.5745C27.28 16.3772 27.1628 16.212 27.061 16.0684L27.0598 16.0668C26.9853 15.9616 26.8782 15.8728 26.8119 15.8178L26.8017 15.8094C26.7944 15.8033 26.7849 15.795 26.7738 15.7852C26.7254 15.7427 26.6445 15.6718 26.5595 15.625L26.5584 15.6241L26.5542 15.6207L26.5412 15.61L26.5393 15.6083C26.5208 15.593 26.4825 15.561 26.4315 15.5352L26.4253 15.5321C26.3556 15.4967 26.2698 15.4532 26.1733 15.42C26.225 15.0117 26.1495 14.611 26.0736 14.2083C26.0176 13.9111 25.9614 13.6128 25.956 13.3095C25.9538 13.1883 25.9526 13.0666 25.9514 12.945L25.9513 12.9441C25.9503 12.835 25.9492 12.7258 25.9474 12.6167C26.0057 12.5982 26.0602 12.5788 26.1087 12.5616L26.1092 12.5614L26.1437 12.5491L26.1734 12.5388C26.2699 12.5056 26.3556 12.4622 26.4253 12.4268L26.4315 12.4237C26.4825 12.3979 26.5208 12.3659 26.5393 12.3505L26.5412 12.3489L26.5543 12.3381L26.5595 12.3339C26.6445 12.2871 26.7254 12.2161 26.7738 12.1737L26.7863 12.1627L26.7933 12.1567L26.8018 12.1495L26.8119 12.141C26.8782 12.0861 26.9853 11.9972 27.0598 11.8921L27.061 11.8905C27.1628 11.7469 27.28 11.5817 27.3615 11.3844L27.3681 11.3684C27.3928 11.3088 27.4215 11.2394 27.4453 11.1656C27.4571 11.1292 27.4656 11.0895 27.4706 11.0661L27.4729 11.0559C27.4758 11.0428 27.4778 11.0342 27.4797 11.0276L27.4814 11.0221L27.482 11.0203L27.4825 11.0192C27.486 11.0114 27.5059 10.9674 27.5155 10.9226L27.5157 10.9214C27.5193 10.9049 27.5357 10.8294 27.5013 10.7467C27.4788 10.6925 27.4345 10.6363 27.3638 10.6034C27.2992 10.5734 27.2392 10.5754 27.2033 10.5806C27.1954 10.5818 27.1883 10.5831 27.1823 10.5842L27.1703 10.5866C27.0997 10.5785 27.0314 10.5747 26.9718 10.5714L26.9681 10.5712C26.8972 10.5672 26.838 10.5638 26.7802 10.5562C26.6955 10.5451 26.6121 10.5489 26.5453 10.5542C26.5018 10.5576 26.4745 10.5604 26.4503 10.563C26.4247 10.5656 26.4025 10.5679 26.3683 10.5702C26.2289 10.5794 26.0631 10.5963 25.9006 10.6521C25.8338 10.6751 25.7689 10.6995 25.7052 10.7247C25.698 10.7024 25.6906 10.6802 25.6829 10.658C25.6167 10.4657 25.4502 10.3182 25.2884 10.1749C25.185 10.0833 25.0835 9.99339 25.0112 9.89451C24.7903 9.59244 24.5237 9.30514 24.264 9.02535L24.2634 9.02461C24.1625 8.91591 24.0625 8.80818 23.9668 8.70131C23.9099 8.6377 23.8475 8.583 23.782 8.53363C23.7861 8.52399 23.7894 8.51575 23.7919 8.50943L23.7928 8.50705C23.7974 8.49537 23.8 8.48923 23.8011 8.48645L23.8016 8.48516C23.8536 8.40354 23.8903 8.30263 23.9123 8.24227C23.9174 8.22837 23.9217 8.21661 23.9252 8.20774L23.93 8.19548C23.9616 8.11562 24.0127 7.98656 24.0274 7.85876L24.0276 7.8568C24.0477 7.68214 24.0708 7.48126 24.0471 7.26927L24.0453 7.25229C24.0381 7.18816 24.0298 7.11349 24.0151 7.03735C24.0079 6.99968 23.9962 6.96072 23.9893 6.93788L23.9864 6.92794C23.9826 6.91505 23.9803 6.90656 23.9787 6.89985L23.9777 6.89486L23.9772 6.89234ZM23.3287 7.31102C23.3938 7.28594 23.4555 7.25742 23.5102 7.23155C23.5134 7.25712 23.5165 7.28413 23.5198 7.31372L23.5198 7.31425L23.5213 7.32744C23.5375 7.47251 23.5227 7.61699 23.5017 7.79892C23.4958 7.85096 23.4708 7.91879 23.4334 8.01365L23.4327 8.01536C23.4183 8.05179 23.4079 8.08012 23.3993 8.10327C23.3822 8.14988 23.3727 8.17552 23.3543 8.20409C23.3266 8.24713 23.3095 8.29105 23.3019 8.31051L23.3002 8.31497L23.2981 8.32011C23.2956 8.32646 23.2941 8.33001 23.2933 8.33167C23.2466 8.39982 23.2115 8.45002 23.1702 8.49525C23.159 8.50752 23.148 8.51958 23.1373 8.53139C23.129 8.54055 23.1209 8.54955 23.1129 8.55839C23.0058 8.67689 22.9232 8.76827 22.8267 8.82749C22.7817 8.85511 22.7404 8.88757 22.7129 8.90924L22.7038 8.91635C22.6714 8.9417 22.6548 8.95348 22.6411 8.96089C22.5845 8.99147 22.4664 9.0422 22.3289 9.0889L22.329 9.08684C22.3311 9.04166 22.3351 8.95301 22.3136 8.8676C22.3136 8.8676 22.3122 8.86021 22.3122 8.83785C22.3122 8.82693 22.3125 8.8157 22.3128 8.8009L22.3129 8.79625C22.3133 8.78051 22.3138 8.76024 22.3135 8.73935C22.3132 8.72354 22.3124 8.70782 22.3118 8.69644L22.3116 8.69157L22.3108 8.67703L22.3103 8.66575C22.3101 8.65903 22.3101 8.6546 22.3101 8.65181C22.3189 8.60669 22.3264 8.5513 22.3324 8.50731L22.3352 8.48719C22.3368 8.47566 22.3382 8.46536 22.3395 8.4568C22.3486 8.39784 22.3577 8.36216 22.3684 8.33823C22.386 8.29845 22.4011 8.26294 22.4147 8.23083C22.4561 8.13327 22.4843 8.0669 22.5318 8.00618C22.6236 7.88875 22.7096 7.78124 22.8038 7.67816C22.87 7.60565 22.9579 7.54223 23.0672 7.47306C23.0918 7.45747 23.1329 7.42967 23.1675 7.40635L23.168 7.40602C23.1899 7.39117 23.2093 7.3781 23.2202 7.371C23.2672 7.34043 23.3015 7.3215 23.3287 7.31102ZM17.0502 7.83644C17.0609 7.75521 17.0751 7.68092 17.0916 7.6234C17.0972 7.62337 17.1025 7.62339 17.1076 7.62347L17.1168 7.62368C17.1246 7.62392 17.1299 7.62426 17.1331 7.62452L17.1348 7.62513C17.1392 7.62683 17.1451 7.62934 17.1526 7.63289C17.1677 7.64011 17.1865 7.65038 17.2089 7.66413C17.254 7.69184 17.3061 7.72895 17.362 7.77238C17.4737 7.85921 17.5872 7.9606 17.671 8.03723C17.6999 8.06373 17.7227 8.08364 17.7413 8.09991C17.7788 8.13267 17.7994 8.15069 17.8196 8.17809C17.8499 8.21938 17.8849 8.25108 17.9004 8.26512L17.904 8.26834C17.9117 8.27536 17.9155 8.27916 17.9171 8.28074C17.9641 8.34874 17.9985 8.3994 18.026 8.45406C18.0393 8.48051 18.0522 8.50583 18.0646 8.53019C18.137 8.67232 18.1928 8.78173 18.2134 8.89267C18.223 8.9444 18.2386 8.9944 18.2489 9.02778L18.2523 9.03874C18.2644 9.07795 18.2694 9.09763 18.2714 9.11302C18.2797 9.17652 18.2846 9.30441 18.2787 9.4488L18.2768 9.44798C18.2352 9.42976 18.1535 9.39403 18.0657 9.38311C18.0657 9.38311 18.0583 9.3817 18.0373 9.37363C18.0271 9.36971 18.0168 9.36544 18.0031 9.3598L17.9986 9.35793C17.984 9.3519 17.9651 9.34416 17.9454 9.33691C17.9305 9.33141 17.9155 9.32649 17.9046 9.32293L17.8999 9.32139C17.89 9.31816 17.8826 9.31575 17.8753 9.31322L17.8671 9.31027L17.8622 9.30837C17.823 9.28394 17.7738 9.25698 17.7347 9.23551C17.7172 9.22588 17.7017 9.21736 17.69 9.21067C17.638 9.18097 17.6078 9.15961 17.5892 9.14111C17.5583 9.11038 17.5305 9.08353 17.5053 9.05931C17.4288 8.98565 17.3768 8.93555 17.337 8.86959C17.26 8.74205 17.1903 8.62339 17.1277 8.49881C17.0837 8.41118 17.056 8.30675 17.0306 8.18044C17.0309 8.182 17.0308 8.18072 17.0306 8.17641C17.0301 8.16501 17.0286 8.13241 17.0305 8.075C17.0328 8.00609 17.0391 7.92118 17.0502 7.83644ZM14.002 11.0436C14.1415 11.0045 14.2853 10.9952 14.466 10.9862C14.6797 10.9873 14.8483 11.0429 14.8987 11.0645C14.946 11.0847 14.9923 11.0943 15.0128 11.0986L15.0175 11.0995L15.0295 11.1022L15.0352 11.1036C15.1104 11.1384 15.166 11.1646 15.2176 11.1978C15.2421 11.2135 15.2657 11.2286 15.2885 11.243L15.2897 11.2438C15.4247 11.3295 15.5286 11.3956 15.6031 11.4807C15.6378 11.5204 15.6767 11.5556 15.7027 11.5791L15.7113 11.5868C15.7417 11.6145 15.7561 11.6289 15.7657 11.6411C15.8052 11.6916 15.8748 11.7993 15.9435 11.9266L15.9415 11.9268C15.8963 11.9322 15.8077 11.9427 15.7265 11.9777C15.7265 11.9777 15.7194 11.9803 15.6973 11.9839C15.6864 11.9857 15.6754 11.9872 15.6606 11.9893L15.6559 11.99C15.6402 11.9922 15.62 11.995 15.5994 11.9988C15.5837 12.0016 15.5682 12.0049 15.5571 12.0074L15.5417 12.0107L15.5269 12.0138C15.5202 12.0151 15.5158 12.0159 15.5131 12.0163C15.4668 12.0151 15.4107 12.0167 15.366 12.018L15.3655 12.018C15.3457 12.0186 15.3282 12.0191 15.3149 12.0192C15.2549 12.0199 15.218 12.0168 15.1926 12.0103C15.1502 11.9994 15.1125 11.9904 15.0785 11.9823C14.975 11.9575 14.9045 11.9407 14.8366 11.904C14.7051 11.8331 14.5845 11.7662 14.4669 11.6906C14.3842 11.6374 14.3069 11.5615 14.2205 11.4655C14.2009 11.4438 14.1665 11.4078 14.1377 11.3776C14.1193 11.3584 14.1032 11.3415 14.0943 11.332C14.0564 11.2909 14.032 11.2603 14.0171 11.2353C13.9817 11.1755 13.9433 11.1196 13.9087 11.0701C13.9337 11.0627 13.9602 11.0553 13.9892 11.0472L14.002 11.0436ZM26.5239 11.0847C26.4822 11.0887 26.4327 11.0934 26.4034 11.0954C26.2742 11.1039 26.1665 11.1176 26.0734 11.1496C25.9411 11.1951 25.8137 11.2483 25.6765 11.3075C25.6056 11.3381 25.5488 11.3829 25.4654 11.4487C25.438 11.4704 25.4076 11.4943 25.373 11.5208C25.3521 11.5367 25.3269 11.5637 25.2905 11.6111C25.2859 11.617 25.2807 11.624 25.2748 11.6318L25.2599 11.652C25.2334 11.6877 25.2001 11.7326 25.1706 11.7681L25.1695 11.7701L25.1668 11.7751L25.1641 11.7804L25.159 11.7907L25.1505 11.8081L25.1427 11.8242C25.1411 11.8274 25.1394 11.8308 25.1376 11.8343C25.1356 11.8383 25.1335 11.8424 25.1313 11.8465L25.1268 11.8548C25.1236 11.8607 25.1204 11.8664 25.1173 11.8719C25.1123 11.8808 25.1075 11.889 25.1034 11.8962L25.101 11.9003C25.0936 11.9131 25.088 11.9227 25.0827 11.9323C25.0719 11.952 25.0695 11.9591 25.0695 11.9591C25.0472 12.0443 25.0007 12.1205 24.9771 12.1592L24.9762 12.1606C25.1194 12.1852 25.2475 12.1971 25.3118 12.1973C25.3274 12.1973 25.3477 12.1949 25.3884 12.1881L25.3998 12.1862C25.4344 12.1804 25.4862 12.1716 25.539 12.1688C25.6523 12.163 25.7686 12.1223 25.9197 12.0695C25.9456 12.0604 25.9726 12.051 26.0007 12.0413C26.0587 12.0214 26.1137 11.9941 26.1876 11.9566C26.1894 11.9552 26.1937 11.9519 26.2017 11.9452L26.2054 11.9421C26.2214 11.9287 26.2576 11.8983 26.3027 11.8738C26.3326 11.8575 26.3533 11.8395 26.3908 11.8068C26.4095 11.7906 26.4324 11.7707 26.4625 11.7456L26.4639 11.7444C26.5425 11.6791 26.5971 11.6315 26.6275 11.5887C26.7336 11.4391 26.8163 11.3194 26.8721 11.1844L26.8772 11.1721C26.8886 11.1444 26.8991 11.1191 26.9086 11.095C26.8481 11.0915 26.7803 11.0871 26.7111 11.078C26.6821 11.0742 26.6429 11.0745 26.5869 11.0789C26.5739 11.0799 26.5505 11.0821 26.5239 11.0847ZM15.1926 15.7607C15.218 15.7542 15.2549 15.751 15.3149 15.7517C15.3284 15.7519 15.3461 15.7524 15.3661 15.753C15.4107 15.7543 15.4668 15.7559 15.5131 15.7547C15.5158 15.7551 15.5202 15.7558 15.5269 15.7571C15.5343 15.7586 15.5418 15.7603 15.5517 15.7624L15.5571 15.7636C15.5682 15.766 15.5837 15.7694 15.5994 15.7722C15.62 15.7759 15.6402 15.7788 15.6559 15.781L15.6606 15.7816C15.6754 15.7837 15.6864 15.7853 15.6973 15.787C15.7194 15.7907 15.7263 15.7931 15.7263 15.7931C15.8078 15.8282 15.8969 15.8388 15.9419 15.8442L15.9435 15.8444C15.8748 15.9717 15.8052 16.0793 15.7657 16.1299C15.7561 16.1421 15.7417 16.1565 15.7113 16.1842L15.7027 16.1919C15.6767 16.2154 15.6378 16.2506 15.6031 16.2903C15.5286 16.3754 15.4247 16.4414 15.2897 16.5272C15.2666 16.5419 15.2425 16.5572 15.2176 16.5732C15.166 16.6064 15.1104 16.6326 15.0352 16.6674C15.033 16.668 15.0278 16.6693 15.0175 16.6714L15.0128 16.6724C14.9923 16.6767 14.946 16.6862 14.8987 16.7065C14.8769 16.7158 14.8118 16.7389 14.7262 16.758C14.6498 16.7751 14.5695 16.7863 14.4982 16.7858C14.493 16.7846 14.488 16.7835 14.4836 16.7826L14.4752 16.7808C14.4533 16.7763 14.4274 16.7716 14.4002 16.7668C14.3454 16.7572 14.2782 16.7464 14.2127 16.7361L14.1439 16.7252C14.1027 16.7188 14.0639 16.7127 14.0302 16.7072C13.9868 16.7002 13.9626 16.696 13.9532 16.6943L13.9527 16.6942L13.9483 16.6927L13.9209 16.6835C13.9521 16.6384 13.9858 16.5886 14.0171 16.5357C14.032 16.5107 14.0564 16.4801 14.0943 16.439C14.1032 16.4294 14.1195 16.4123 14.1379 16.3931C14.1668 16.3629 14.2009 16.3272 14.2205 16.3054C14.3069 16.2095 14.3842 16.1336 14.4669 16.0804C14.5845 16.0048 14.7051 15.9379 14.8366 15.8669C14.9045 15.8303 14.975 15.8134 15.0785 15.7887C15.1125 15.7805 15.1502 15.7715 15.1926 15.7607ZM13.508 17.0687H13.502L13.5046 17.0687L13.508 17.0687ZM25.3884 15.7707C25.3477 15.764 25.3274 15.7616 25.3118 15.7616C25.2475 15.7618 25.1194 15.7737 24.9762 15.7983L24.9771 15.7997C25.0006 15.8382 25.0472 15.9145 25.0696 16C25.0701 16.0012 25.0729 16.0088 25.0827 16.0265C25.0879 16.0361 25.0935 16.0457 25.101 16.0585L25.1034 16.0627C25.1113 16.0763 25.1215 16.0939 25.1313 16.1124C25.1387 16.1264 25.1456 16.1405 25.1505 16.1508L25.1528 16.1554C25.1572 16.1647 25.1606 16.1716 25.1641 16.1784L25.1684 16.1867L25.1706 16.1908C25.2001 16.2262 25.2334 16.2712 25.2599 16.3069C25.2717 16.3229 25.2823 16.3372 25.2905 16.3478C25.3269 16.3952 25.3521 16.4222 25.373 16.4381C25.4077 16.4646 25.438 16.4885 25.4655 16.5102C25.5489 16.576 25.6056 16.6208 25.6765 16.6514C25.8137 16.7106 25.9411 16.7638 26.0734 16.8093C26.1665 16.8413 26.2742 16.855 26.4034 16.8635C26.4327 16.8655 26.4827 16.8703 26.5244 16.8743C26.5507 16.8768 26.574 16.879 26.5869 16.88C26.6429 16.8844 26.6821 16.8846 26.7111 16.8808C26.7803 16.8718 26.8481 16.8673 26.9086 16.8639C26.8991 16.8398 26.8886 16.8145 26.8772 16.7868L26.8721 16.7745C26.8163 16.6395 26.7336 16.5198 26.6275 16.3702C26.5971 16.3274 26.5426 16.2798 26.4639 16.2145L26.4625 16.2133C26.4323 16.1882 26.4095 16.1683 26.3908 16.1521C26.3533 16.1194 26.3326 16.1014 26.3027 16.0851C26.2576 16.0606 26.2214 16.0302 26.2054 16.0167L26.2017 16.0137L26.1924 16.006L26.1876 16.0023C26.1137 15.9648 26.0587 15.9375 26.0007 15.9176C25.9726 15.9079 25.9456 15.8985 25.9198 15.8894C25.7686 15.8366 25.6523 15.7959 25.539 15.79C25.4862 15.7873 25.4344 15.7785 25.3997 15.7727L25.3884 15.7707ZM22.329 18.2666L22.3289 18.265C22.4664 18.3117 22.5845 18.3625 22.6411 18.393C22.6548 18.4004 22.6714 18.4122 22.7038 18.4376L22.7129 18.4447C22.7404 18.4664 22.7817 18.4988 22.8267 18.5264C22.9232 18.5857 23.0057 18.6769 23.1127 18.7954C23.1311 18.8157 23.1502 18.8368 23.1702 18.8587C23.2115 18.9039 23.2465 18.9541 23.2933 19.0223C23.2942 19.0243 23.2964 19.0293 23.3002 19.039L23.3019 19.0434C23.3095 19.0629 23.3266 19.1068 23.3543 19.1498C23.3727 19.1784 23.3822 19.2041 23.3993 19.2506C23.4078 19.2737 23.4183 19.3022 23.4327 19.3386L23.4334 19.3403C23.4708 19.4352 23.4958 19.503 23.5017 19.555C23.5227 19.7369 23.5375 19.8814 23.5213 20.0265L23.5198 20.0397C23.5165 20.0695 23.5135 20.0967 23.5102 20.1224C23.4555 20.0965 23.3938 20.068 23.3287 20.0429C23.3015 20.0324 23.2672 20.0135 23.2202 19.9829C23.2093 19.9758 23.1898 19.9627 23.1677 19.9478C23.133 19.9243 23.0919 19.8966 23.0672 19.8809C22.9579 19.8117 22.87 19.7483 22.8038 19.6758C22.7096 19.5727 22.6236 19.4652 22.5318 19.3477C22.4843 19.287 22.4561 19.2207 22.4147 19.1231C22.4011 19.091 22.386 19.0554 22.3684 19.0157C22.3577 18.9918 22.3486 18.9561 22.3395 18.8971C22.3375 18.8843 22.3352 18.8671 22.3326 18.8481L22.3325 18.8474L22.3324 18.8466C22.3264 18.8026 22.3189 18.7473 22.3101 18.7021C22.3101 18.6993 22.3101 18.6949 22.3103 18.6882L22.3109 18.6759L22.3118 18.6575C22.3121 18.6512 22.3125 18.6436 22.3129 18.6354L22.3131 18.6277L22.3135 18.6146C22.3138 18.5937 22.3133 18.5734 22.3129 18.5577L22.3128 18.5529C22.3125 18.5381 22.3122 18.527 22.3122 18.5161C22.3122 18.4937 22.3135 18.4866 22.3135 18.4866C22.3351 18.4009 22.331 18.3117 22.329 18.2666ZM18.7314 18.8201L18.7303 18.8212C18.698 18.8528 18.6339 18.9154 18.5553 18.9567C18.5553 18.9567 18.5492 18.9605 18.5324 18.9754C18.5242 18.9827 18.5161 18.9903 18.5053 19.0005L18.5018 19.0037C18.4903 19.0145 18.4754 19.0284 18.4596 19.0421C18.4476 19.0525 18.4353 19.0624 18.4264 19.0696L18.4225 19.0727L18.4101 19.0826L18.4024 19.089C18.3972 19.0933 18.3939 19.0962 18.3918 19.0981C18.3639 19.1348 18.3275 19.1773 18.2986 19.2111C18.2857 19.2262 18.2741 19.2398 18.2656 19.2501C18.2275 19.2962 18.2069 19.3268 18.1961 19.3506C18.1781 19.3903 18.1616 19.4252 18.1467 19.4567C18.1013 19.5525 18.0705 19.6177 18.0568 19.6934C18.0302 19.8398 18.0072 19.9753 17.993 20.1139C17.983 20.2113 17.9942 20.3187 18.0154 20.4458C18.0202 20.4744 18.0268 20.5227 18.0324 20.5638L18.0325 20.5651C18.0361 20.5914 18.0393 20.6145 18.0412 20.6273C18.0497 20.6825 18.0585 20.7205 18.0688 20.7477C18.0935 20.8126 18.1134 20.8774 18.1306 20.9352C18.152 20.9204 18.1743 20.9045 18.1988 20.8871L18.2097 20.8793C18.3291 20.7944 18.4273 20.687 18.5495 20.55C18.6639 20.4216 18.7373 20.2311 18.7542 20.1702C18.7678 20.1209 18.7893 20.079 18.7988 20.0604L18.801 20.0561L18.8054 20.0472L18.8089 20.0399C18.8286 19.9597 18.8428 19.9002 18.849 19.8394C18.8509 19.8213 18.8528 19.8035 18.8547 19.7862C18.8558 19.7758 18.8569 19.7655 18.858 19.7554L18.8581 19.7547C18.8752 19.5962 18.8884 19.4743 18.8683 19.3633C18.8589 19.3115 18.8556 19.2593 18.8534 19.2244L18.8527 19.2129C18.85 19.172 18.8477 19.1518 18.8441 19.1367C18.8292 19.0744 18.7883 18.9531 18.7314 18.8201ZM21.7578 10.1549C21.7578 9.93011 21.6803 9.80529 21.5571 9.62915C21.5141 9.56777 21.4627 9.51264 21.4113 9.45753C21.3594 9.402 21.3076 9.34648 21.2646 9.28459C21.1385 9.10352 20.9309 8.95161 20.7346 8.85217C20.7168 8.84312 20.6987 8.83361 20.6804 8.82399C20.6077 8.78574 20.5318 8.74581 20.4534 8.72631C20.4396 8.72289 20.4239 8.71488 20.4079 8.70675C20.371 8.68792 20.3328 8.66846 20.315 8.70388C20.2946 8.74439 20.245 8.77872 20.2002 8.8097C20.1801 8.82362 20.1609 8.83686 20.1459 8.84968C20.1288 8.86419 20.1121 8.8804 20.0954 8.8966C20.0738 8.91749 20.0522 8.93839 20.03 8.95561C19.9274 9.03497 19.8277 9.1231 19.745 9.22602C19.6872 9.29785 19.6174 9.35634 19.5477 9.41463C19.4482 9.49801 19.3491 9.58099 19.2865 9.70205C19.2667 9.74025 19.2431 9.77622 19.2196 9.81205C19.195 9.84949 19.1704 9.88682 19.1505 9.92636C19.1356 9.95616 19.1277 9.99303 19.1198 10.0299C19.1089 10.0808 19.098 10.1318 19.0685 10.1644C19.0454 10.19 19.0454 10.2108 19.0454 10.2222C19.0455 10.2268 19.0455 10.2299 19.0439 10.2311C19.0409 10.2336 19.0318 10.2287 19.0043 10.2139L18.9783 10.1999C18.752 10.0795 18.4664 10.0657 18.1984 10.0527C18.1324 10.0495 18.0674 10.0464 18.0047 10.0417C17.6079 10.0122 17.0859 10.0951 16.8674 10.268C16.8205 10.3409 16.8085 10.4566 16.7978 10.5595C16.7904 10.6309 16.7836 10.6961 16.7663 10.7368L16.7555 10.7618C16.7259 10.8308 16.6958 10.9009 16.6736 10.9723C16.6606 11.014 16.6602 11.0778 16.6599 11.1253L16.6598 11.1455C16.6577 11.3126 16.6566 11.4806 16.6598 11.6477C16.6635 11.8455 16.7227 12.0505 16.7863 12.2334C16.7944 12.2568 16.7989 12.2816 16.8037 12.3078C16.8197 12.3962 16.8385 12.4996 17.0092 12.6121C16.7617 12.6121 16.5323 12.7456 16.3296 12.8751C16.2239 12.9426 16.1391 13.0251 16.0529 13.1089C16.0177 13.1432 15.9822 13.1777 15.945 13.2115C15.8709 13.2788 15.813 13.3664 15.7554 13.4534C15.718 13.5099 15.6808 13.5662 15.6394 13.6165C15.6155 13.6455 15.5964 13.6786 15.5774 13.7114C15.5566 13.7474 15.536 13.7829 15.5097 13.8122C15.4965 13.8268 15.4882 13.8445 15.4802 13.8618C15.473 13.8773 15.4659 13.8923 15.4558 13.9044C15.449 13.9125 15.4411 13.9214 15.4328 13.9307C15.3943 13.9738 15.3475 14.0261 15.3631 14.0589C15.489 14.3233 15.7198 14.5205 15.9414 14.7098C15.986 14.7479 16.0305 14.7859 16.0734 14.8238C16.2043 14.9395 16.3414 15.0234 16.4969 15.1017C16.522 15.1144 16.5462 15.1287 16.5703 15.1429C16.6073 15.1647 16.6443 15.1866 16.6848 15.2027C16.7276 15.2197 16.7976 15.2416 16.8717 15.2648C16.9751 15.2972 17.0868 15.3321 17.1445 15.36C17.1396 15.4093 17.093 15.4676 17.0562 15.5136C17.0462 15.5262 17.0368 15.5379 17.0293 15.5482C17.0076 15.5778 16.9843 15.6069 16.961 15.6361C16.9198 15.6875 16.8784 15.7392 16.8451 15.795C16.7914 15.885 16.7695 15.9827 16.7472 16.0824C16.7426 16.1031 16.7379 16.1238 16.733 16.1445C16.719 16.2033 16.7007 16.261 16.6824 16.3186C16.664 16.3764 16.6456 16.4343 16.6315 16.4934C16.5995 16.6281 16.5921 16.7612 16.5921 16.8991C16.5921 16.9419 16.5911 16.9851 16.5901 17.0282C16.5865 17.1845 16.583 17.3415 16.6259 17.491C16.6338 17.5184 16.6389 17.5499 16.6442 17.5822C16.6541 17.6425 16.6644 17.7054 16.6935 17.7489C16.7831 17.7489 16.8723 17.7546 16.9613 17.7602C17.0501 17.7658 17.1389 17.7714 17.2278 17.7714L17.7839 17.7714C17.9867 17.7716 18.2132 17.7718 18.4016 17.6985C18.5004 17.66 18.5889 17.6425 18.6747 17.6256C18.7913 17.6026 18.9028 17.5805 19.0283 17.5083C19.0283 17.8557 19.2558 18.187 19.4832 18.4133C19.6283 18.5577 19.7259 18.6482 19.8284 18.7432C19.8607 18.7732 19.8937 18.8038 19.9287 18.8366C20.0466 18.9469 20.1951 19.0534 20.3465 19.112C20.349 19.1129 20.3515 19.1139 20.354 19.1148C20.3569 19.1159 20.3598 19.117 20.3628 19.118L20.3756 19.1226C20.4002 19.1315 20.4249 19.1403 20.448 19.1531C20.4578 19.1585 20.4658 19.1651 20.4734 19.1714C20.4885 19.1839 20.5025 19.1954 20.5269 19.1954C20.5701 19.1716 20.625 19.1227 20.656 19.0834C20.6805 19.0524 20.707 19.0229 20.7335 18.9933C20.7775 18.9442 20.8215 18.895 20.8565 18.8392C20.9111 18.7519 20.9756 18.671 21.0401 18.5902C21.0664 18.5572 21.0927 18.5243 21.1183 18.4909C21.1565 18.4411 21.1913 18.3911 21.2265 18.3407L21.2525 18.3034C21.2616 18.2905 21.2707 18.2776 21.2799 18.2647C21.399 18.0979 21.5014 17.8941 21.5668 17.7014C21.5751 17.677 21.5841 17.6519 21.5933 17.6265C21.6227 17.5454 21.6533 17.4606 21.6651 17.3787C21.6677 17.3607 21.6883 17.2914 21.6883 17.3002C21.806 17.4462 21.902 17.4505 21.9913 17.4545C22.0272 17.4561 22.062 17.4577 22.0967 17.4684C22.2921 17.5287 22.4913 17.5896 22.6967 17.603C22.7731 17.608 22.8493 17.6149 22.9253 17.6218C23.0682 17.6349 23.2109 17.6479 23.3544 17.6479C23.4022 17.6479 23.453 17.6505 23.505 17.6531C23.6514 17.6606 23.8073 17.6687 23.9319 17.6204C23.9405 17.6171 23.9679 17.61 24 17.6017C24.064 17.5852 24.1465 17.5639 24.1349 17.5581C24.1349 17.2988 24.1316 17.0401 24.1235 16.7817C24.1207 16.6911 24.11 16.5955 24.0998 16.5049L24.0985 16.4926C24.0923 16.4379 24.0889 16.383 24.0854 16.3282C24.0796 16.2369 24.0739 16.1457 24.0559 16.0552C24.0378 15.9641 24.0232 15.8793 24.009 15.796C23.9886 15.6766 23.9686 15.5598 23.939 15.4302C23.9873 15.4259 24.0646 15.3949 24.1058 15.3723C24.171 15.3365 24.2354 15.2976 24.2995 15.259C24.3294 15.2409 24.3593 15.2228 24.3892 15.2051C24.5156 15.1304 24.6445 15.0338 24.7531 14.9347C24.7883 14.9026 24.8117 14.8693 24.8371 14.8331L24.8435 14.8238C24.8482 14.8173 24.8529 14.8106 24.8577 14.8039C24.8982 14.7479 24.9428 14.6955 24.9874 14.643C25.0422 14.5784 25.0971 14.5138 25.1446 14.4425C25.1693 14.4055 25.2077 14.3494 25.2501 14.2877L25.2505 14.2872C25.3569 14.1322 25.4879 13.9413 25.4879 13.9241C25.4879 13.814 25.4815 13.7285 25.4288 13.6519C25.3874 13.5917 25.3212 13.5389 25.2551 13.4863C25.1945 13.4379 25.134 13.3897 25.0932 13.3361C25.0336 13.2579 24.9544 13.1956 24.8769 13.1347C24.8625 13.1233 24.848 13.1119 24.8338 13.1006C24.7459 13.0301 24.6515 12.9612 24.5545 12.9037C24.4268 12.8278 24.2979 12.7737 24.1574 12.7292C24.1367 12.7227 24.1187 12.7147 24.1015 12.707C24.069 12.6926 24.0393 12.6794 23.9996 12.6794C23.9996 12.4623 24.025 12.2478 24.0503 12.0334C24.0757 11.8193 24.101 11.6053 24.101 11.389C24.101 11.3323 24.1017 11.2756 24.1023 11.2188C24.1046 11.011 24.1069 10.803 24.0785 10.5983C24.0707 10.5419 24.0514 10.4642 24.0246 10.4139C24.0246 10.3638 23.2586 10.1123 23.0451 10.0951C23.0192 10.0951 22.9719 10.0921 22.9146 10.0885C22.7541 10.0782 22.5151 10.063 22.4492 10.0951C22.3631 10.1371 21.8562 10.1549 21.7578 10.1549Z" fill="black"/>
<path fill-rule="evenodd" clip-rule="evenodd" d="M11.7127 0.537376C12.2313 0.305746 12.9158 0 13.6611 0C14.3134 0 14.8191 0.447259 15.1329 0.772876C15.4574 1.10957 15.7809 1.54223 16.0729 1.93275L16.1392 2.02138C16.4668 2.45881 16.7615 2.84372 17.0491 3.1282C17.3548 3.43069 17.5261 3.48948 17.5837 3.4941C18.1577 3.54018 18.812 3.42519 19.5262 3.28187L19.6651 3.25388C19.9626 3.19381 20.2723 3.13126 20.5595 3.08845C20.8876 3.03954 21.2497 3.00565 21.591 3.04674C21.7475 3.06558 22.0029 3.08468 22.3475 3.11045C22.4678 3.11945 22.5992 3.12927 22.7408 3.14016C23.2705 3.18091 23.9125 3.23474 24.5728 3.31424C25.2309 3.39348 25.9217 3.49989 26.5475 3.64869C27.1574 3.79373 27.7747 3.99445 28.2405 4.29353C29.0106 4.78804 29.4974 5.65038 29.8 6.39566C30.1003 7.13507 30.2717 7.89148 30.343 8.4C30.3803 8.53333 30.4524 8.80282 30.5432 9.14191L30.5434 9.14258L30.5444 9.14659C30.6049 9.37258 30.6736 9.62923 30.7457 9.89695C30.9525 10.6643 31.1937 11.5471 31.3776 12.1671C31.4184 12.3046 31.4533 12.4269 31.485 12.538C31.5543 12.7808 31.6085 12.9709 31.6762 13.1514C31.7657 13.3902 31.8485 13.5202 31.9432 13.6114C32.1361 13.7972 32.5914 14.0238 34.0382 14.0796C34.6845 14.1045 35.2329 14.2194 35.652 14.4673C36.11 14.7383 36.3802 15.1519 36.4334 15.6323C36.4813 16.0633 36.3452 16.4606 36.1972 16.7549C36.0441 17.0593 35.839 17.3316 35.6446 17.5424L35.6425 17.5446C34.8058 18.4442 33.5395 19.8157 32.4599 21.0063C31.9197 21.6021 31.4288 22.1496 31.0626 22.5692C30.879 22.7795 30.7304 22.9535 30.6237 23.0834C30.5814 23.135 30.5481 23.1767 30.5231 23.2091C30.5182 23.2365 30.5125 23.2719 30.5064 23.3165C30.4866 23.462 30.4674 23.6618 30.4486 23.9102C30.4164 24.336 30.388 24.8648 30.3573 25.4374L30.3419 25.7235C30.3054 26.3987 30.2646 27.114 30.2105 27.7473C30.1577 28.3648 30.088 28.9605 29.9817 29.3701C29.8594 29.841 29.5933 30.3042 29.3097 30.7176C29.0199 31.1402 28.6699 31.5698 28.332 31.973C28.237 32.0864 28.1435 32.1971 28.0519 32.3056C27.8087 32.5935 27.5789 32.8655 27.3708 33.1291C27.0811 33.496 26.8802 33.7894 26.7745 34.0135C26.7525 34.06 26.7301 34.1078 26.7072 34.1566L26.7054 34.1605C26.429 34.7505 26.0751 35.506 25.4118 36.3578C24.6914 37.283 23.6283 38.2971 21.9314 39.4062C20.9167 40.0695 19.9047 40.1591 18.9895 39.7648C18.1376 39.3977 17.4796 38.6577 16.9842 37.8928C15.9882 36.3547 15.4064 34.3322 15.2206 33.3776C15.0622 32.5641 15.0368 31.1797 15.0571 29.9148C15.0774 28.6528 15.1458 27.4118 15.206 26.7713C15.2039 26.4504 15.1745 25.818 15.071 25.207C15.0171 24.8891 14.9472 24.6019 14.8621 24.3766C14.82 24.265 14.7787 24.181 14.7419 24.1213C14.7067 24.0646 14.6846 24.0445 14.6829 24.0429C14.3583 23.7824 14.1422 23.3945 13.992 23.0733C13.832 22.7309 13.6923 22.3399 13.5684 21.9819C13.5442 21.912 13.5206 21.8434 13.4975 21.7761C13.3971 21.4841 13.3056 21.218 13.2106 20.9804C13.0872 20.6722 12.9955 20.5131 12.9426 20.4519C12.8197 20.3098 12.7287 20.1992 12.6533 20.1073C12.5102 19.9332 12.4227 19.8268 12.279 19.7029C12.0942 19.5437 11.8038 19.3576 11.1424 19.0922C10.9561 19.0174 10.8577 19.0258 10.7442 19.0572C10.6054 19.0957 10.477 19.158 10.2559 19.2655C10.1705 19.307 10.0713 19.3551 9.95233 19.4113C9.14172 19.7937 7.99447 20.2234 5.92017 20.1629C3.50777 20.0925 2.06175 18.1557 1.24389 16.3468C0.407537 14.4969 0.0699024 12.4584 0.00659441 11.5437C-0.0748194 10.3675 0.612184 9.34015 1.26186 8.58339C1.60114 8.18819 1.97026 7.82223 2.30017 7.50269C2.37093 7.43415 2.43905 7.36852 2.5045 7.30546C2.75554 7.06358 2.9673 6.85956 3.13705 6.67561C3.6315 6.13981 3.82202 5.93053 3.94444 5.72417C4.04746 5.55052 4.11508 5.35419 4.23074 4.79716C4.5067 3.4681 5.2051 2.52646 6.02972 1.86456C6.55646 1.44176 7.32574 1.2507 8.00312 1.1492C8.71698 1.04225 9.49234 1.01369 10.1531 1.01369C10.6018 1.01369 11.0368 0.837983 11.6271 0.575548L11.7127 0.537376ZM30.5362 23.1476L30.5357 23.1496L30.5345 23.1536C30.535 23.1517 30.5357 23.1496 30.5357 23.1496C30.536 23.1485 30.5362 23.1476 30.5362 23.1476ZM12.2545 2.02608C11.707 2.26953 10.9804 2.59263 10.1531 2.59263C9.52749 2.59263 8.84119 2.62039 8.23954 2.71053C7.60142 2.80614 7.20136 2.95298 7.0265 3.09334C6.44792 3.55776 5.97698 4.19297 5.78521 5.11654C5.66701 5.68584 5.55922 6.10899 5.31144 6.52665C5.09764 6.88704 4.78978 7.22019 4.3895 7.65336L4.30636 7.74337C4.10179 7.96504 3.8455 8.21184 3.5904 8.45747C3.52913 8.51648 3.46791 8.57543 3.40751 8.63394C3.08331 8.94795 2.75814 9.27186 2.4689 9.60877C1.86155 10.3162 1.55461 10.9221 1.59013 11.4353C1.64376 12.2101 1.94926 14.0574 2.69151 15.6991C3.45226 17.3818 4.52031 18.5424 5.96672 18.5846C7.75123 18.6367 8.65032 18.278 9.27215 17.9846C9.3304 17.9572 9.39275 17.9267 9.45819 17.8947C9.71756 17.7679 10.0256 17.6173 10.3184 17.5362C10.7639 17.4128 11.2209 17.4211 11.7363 17.6279C12.4781 17.9257 12.9477 18.1901 13.3184 18.5096C13.5699 18.7264 13.7804 18.9818 13.9663 19.2076C14.0287 19.2832 14.0882 19.3555 14.1457 19.4219C14.3851 19.6986 14.5565 20.0745 14.6853 20.3964C14.7964 20.674 14.9038 20.9868 15.0047 21.2805C15.0265 21.3441 15.0481 21.4067 15.0692 21.468C15.1938 21.828 15.31 22.148 15.4313 22.4075C15.4911 22.5356 15.5459 22.6348 15.5948 22.7082C15.6188 22.7442 15.639 22.7702 15.6547 22.7884C15.6582 22.7924 15.6613 22.7959 15.6641 22.7989C15.6676 22.8026 15.6705 22.8056 15.673 22.808C15.6774 22.8123 15.6796 22.8141 15.6796 22.8141C16.0198 23.0872 16.221 23.4848 16.3481 23.8215C16.4822 24.1769 16.5731 24.5725 16.6362 24.9445C16.7624 25.6893 16.7934 26.4392 16.7934 26.8075V26.8456L16.7897 26.8835C16.7339 27.457 16.6644 28.6794 16.6442 29.94C16.6236 31.2243 16.6566 32.4491 16.7789 33.0774C16.9439 33.9249 17.473 35.7319 18.3186 37.0377C18.7441 37.6948 19.1897 38.1304 19.6204 38.3159C19.9878 38.4742 20.4375 38.4934 21.0598 38.0867C22.6371 37.0558 23.5618 36.1552 24.1569 35.3909C24.7083 34.6828 24.9957 34.0705 25.2711 33.484L25.2713 33.4834C25.2846 33.4553 25.2978 33.4272 25.3109 33.3991C25.3198 33.3802 25.3287 33.3614 25.3376 33.3425C25.5242 32.9471 25.8202 32.5366 26.1225 32.1538C26.3481 31.8682 26.6031 31.5662 26.852 31.2716L26.8524 31.2711C26.9404 31.1669 27.0277 31.0635 27.1127 30.9622C27.4472 30.5629 27.7549 30.183 27.9986 29.8277C28.2485 29.4632 28.3916 29.1802 28.4448 28.9754C28.5139 28.7092 28.5758 28.2348 28.6289 27.6134C28.6807 27.0077 28.7203 26.3151 28.7569 25.6387L28.7721 25.356C28.8027 24.7856 28.8322 24.2361 28.8658 23.7916C28.8854 23.5331 28.9073 23.2964 28.9336 23.104C28.9467 23.0082 28.9623 22.9124 28.9818 22.8248C28.9979 22.7525 29.029 22.6259 29.0927 22.5031C29.138 22.416 29.1989 22.3336 29.234 22.287C29.279 22.2271 29.3337 22.1585 29.3942 22.0848C29.5158 21.9367 29.6765 21.7489 29.8641 21.534C30.2401 21.1031 30.7388 20.5469 31.2812 19.9488C32.3663 18.7522 33.6367 17.3762 34.4761 16.4737C34.5932 16.3467 34.7044 16.1942 34.7777 16.0485C34.8137 15.9769 34.8353 15.9172 34.8465 15.8714C34.8504 15.8555 34.8527 15.8427 34.854 15.8327C34.8502 15.8302 34.8457 15.8274 34.8406 15.8244C34.7457 15.7682 34.4998 15.6775 33.9768 15.6573C32.5003 15.6005 31.4939 15.3765 30.839 14.7458C30.5099 14.4287 30.3223 14.0589 30.1889 13.7029C30.0977 13.4596 30.0167 13.1759 29.939 12.9037C29.9108 12.8049 29.8829 12.7073 29.8552 12.614C29.665 11.9725 29.419 11.072 29.2126 10.3056C29.1304 10.0008 29.0554 9.72055 28.9924 9.48505C28.8937 9.11616 28.8243 8.85697 28.8028 8.78445L28.785 8.72431L28.7769 8.66211C28.7259 8.26884 28.5831 7.6146 28.3283 6.98702C28.0638 6.33566 27.7321 5.84642 27.3796 5.62008C27.1438 5.46864 26.7378 5.31738 26.1785 5.18436C25.6349 5.05511 25.0102 4.95737 24.3821 4.88174C23.7561 4.80637 23.141 4.75461 22.6184 4.7144C22.4983 4.70516 22.3809 4.6964 22.2683 4.688C21.9076 4.66106 21.5958 4.63778 21.4003 4.61424C21.2738 4.59902 21.0805 4.60736 20.7947 4.64996C20.5513 4.68624 20.2869 4.73957 19.9854 4.80037L19.8401 4.82963C19.1511 4.9679 18.2852 5.13449 17.456 5.06793C16.8121 5.01624 16.2964 4.61043 15.9297 4.24769C15.5449 3.86695 15.1819 3.38602 14.8663 2.96463L14.8221 2.90564C14.5073 2.485 14.24 2.12798 13.9871 1.86549C13.7842 1.65502 13.6758 1.59815 13.6476 1.5834C13.6432 1.58105 13.6403 1.5791 13.6403 1.5791C13.2645 1.58499 12.8761 1.74975 12.2747 2.01708L12.2545 2.02608Z" fill="black"/>
<path fill-rule="evenodd" clip-rule="evenodd" d="M35.6844 29.1525C35.7091 29.6204 35.6782 30.098 35.6033 30.4587C35.5436 30.7463 35.5751 31.1225 35.6729 31.5189C35.7685 31.9067 35.9096 32.2426 35.999 32.4147C36.1904 32.7835 36.169 33.2646 36.0454 33.7203C35.9115 34.2144 35.625 34.8091 35.1139 35.4982C34.7852 35.9415 34.4353 36.2909 34.0404 36.5106C33.6232 36.7427 33.1909 36.8097 32.763 36.737C32.3623 36.6689 32.0089 36.4855 31.712 36.2961C31.4392 36.1222 31.1608 35.9074 30.8995 35.7057L30.832 35.6537C30.4535 35.362 30.1745 35.0222 30.0287 34.6196C29.8822 34.2149 29.8995 33.8277 29.9727 33.495C30.0429 33.1762 30.1726 32.8752 30.2805 32.6339C30.2962 32.5987 30.3115 32.5646 30.3265 32.5315L30.3425 32.496L30.3429 32.495C30.4329 32.2957 30.5078 32.1296 30.5676 31.9568C30.606 31.846 30.6101 31.7629 30.5982 31.6174C30.5963 31.594 30.5934 31.5651 30.5899 31.5315C30.5737 31.3729 30.5468 31.1109 30.5713 30.8348C30.637 30.0974 31.0282 29.2669 32.115 27.9874C32.6574 27.3489 33.2408 26.8621 33.8822 26.7903C34.2443 26.7497 34.5786 26.8477 34.8492 27.049C35.1007 27.2361 35.2627 27.4856 35.3691 27.7109C35.5785 28.1547 35.6602 28.6944 35.6844 29.1525ZM33.8897 28.4572C33.7518 28.5561 33.5648 28.7271 33.3275 29.0065C32.3095 30.2048 32.1745 30.726 32.1525 30.9741C32.1423 31.088 32.1499 31.1653 32.1631 31.3006C32.1682 31.3531 32.1742 31.4146 32.1804 31.4902C32.2014 31.7495 32.2055 32.0747 32.0685 32.4708C31.9829 32.718 31.8723 32.9625 31.7814 33.1633L31.7544 33.223L31.7308 33.2755C31.6231 33.5164 31.5554 33.687 31.5233 33.8329C31.4942 33.9648 31.5042 34.0351 31.5221 34.0845C31.5407 34.136 31.598 34.2467 31.8041 34.4055L31.8553 34.445C32.1352 34.6607 32.3586 34.833 32.5685 34.9668C32.7904 35.1083 32.9341 35.1643 33.0303 35.1806C33.0994 35.1924 33.1641 35.189 33.2657 35.1325C33.3897 35.0635 33.5806 34.9061 33.8366 34.5609C34.261 33.9886 34.4423 33.5696 34.5129 33.3091C34.5484 33.1781 34.5531 33.1017 34.5533 33.0693C34.4148 32.7882 34.2477 32.3673 34.1313 31.895C34.0068 31.3904 33.9214 30.7529 34.0488 30.1394C34.0909 29.9369 34.1184 29.5979 34.0993 29.2353C34.0809 28.8867 34.0233 28.5974 33.9481 28.4176C33.9307 28.4287 33.9112 28.4417 33.8897 28.4572Z" fill="black"/>
</svg>
